<svg id="esJe5Z3ayb11" xmlns="http://www.w3.org/2000/svg" xmlns:xlink="http://www.w3.org/1999/xlink" viewBox="0 0 246 183" shape-rendering="geometricPrecision" text-rendering="geometricPrecision"><g id="esJe5Z3ayb12" transform="matrix(0.10000000000000 0 0 -0.10000000000000 0 183)"><path id="esJe5Z3ayb13" d="M343,1559C321,1548,289,1520,273,1498L245,1457L242,1208L239,960L290,960L340,960L340,1186C340,1414,344,1440,379,1467C405,1487,446,1482,479,1454L510,1428L510,1194L510,960L560,960L610,960L610,1194C610,1443,606,1466,562,1513C500,1579,418,1596,343,1559Z" fill="rgb(0,0,0)" stroke="none" stroke-width="1"/><path id="esJe5Z3ayb14" d="M820,1573C785,1560,748,1526,730,1490C712,1454,710,1430,710,1205L710,960L760,960L810,960L810,1195L810,1431L835,1455C865,1485,889,1486,924,1459L950,1439L950,1199L950,960L1005,960L1060,960L1060,1195L1060,1431L1085,1455C1114,1485,1149,1487,1181,1461C1205,1442,1205,1440,1208,1201L1211,960L1261,960L1310,960L1310,1203C1310,1435,1309,1448,1288,1490C1256,1553,1211,1580,1140,1580C1096,1580,1075,1574,1046,1555L1010,1531L974,1555C946,1574,925,1580,886,1579C858,1579,828,1576,820,1573Z" fill="rgb(0,0,0)" stroke="none" stroke-width="1"/><path id="esJe5Z3ayb15" d="M1482,1559C1456,1546,1427,1520,1412,1497L1385,1457L1382,1208L1379,960L1430,960L1480,960L1480,1060L1480,1160L1565,1160L1650,1160L1650,1060L1650,960L1700,960L1750,960L1750,1194C1750,1443,1746,1466,1702,1513C1639,1580,1558,1596,1482,1559ZM1619,1454C1649,1429,1650,1425,1650,1349L1650,1270L1565,1270L1480,1270L1480,1341C1480,1412,1490,1445,1519,1467C1545,1487,1586,1482,1619,1454Z" fill="rgb(0,0,0)" stroke="none" stroke-width="1"/><path id="esJe5Z3ayb16" d="M1945,1564C1905,1544,1872,1512,1852,1475C1838,1450,1834,1405,1832,1203L1828,960L1884,960L1940,960L1940,1189C1940,1402,1941,1419,1960,1443C1985,1474,2025,1485,2062,1469C2115,1447,2120,1423,2120,1180L2120,960L2170,960L2220,960L2220,1197C2220,1419,2219,1437,2199,1478C2168,1541,2104,1580,2031,1580C2000,1580,1962,1573,1945,1564Z" fill="rgb(0,0,0)" stroke="none" stroke-width="1"/><path id="esJe5Z3ayb17" d="M712,618C715,391,717,362,734,334C759,292,826,250,867,250C900,250,900,250,900,300C900,344,897,350,880,350C868,350,848,361,835,375L810,399L810,635L810,870L759,870L709,870L712,618Z" fill="rgb(0,0,0)" stroke="none" stroke-width="1"/><path id="esJe5Z3ayb18" d="M2146,828C2138,815,2129,790,2125,773L2118,740L2170,740C2214,740,2221,743,2218,758C2216,768,2205,775,2192,776C2163,778,2156,785,2164,806C2169,819,2173,820,2185,810C2197,800,2201,801,2206,815C2213,832,2196,850,2173,850C2166,850,2154,840,2146,828Z" fill="rgb(0,0,0)" stroke="none" stroke-width="1"/><path id="esJe5Z3ayb19" d="M240,565C240,382,245,356,289,306C344,244,466,232,533,283C599,333,610,373,610,568L610,740L560,740L510,740L510,580C510,378,499,350,421,350C405,350,381,359,366,371L340,391L340,566L340,740L290,740L240,740L240,565Z" fill="rgb(0,0,0)" stroke="none" stroke-width="1"/><path id="esJe5Z3ayb110" d="M2120,475L2120,250L2170,250L2220,250L2220,475L2220,700L2170,700L2120,700L2120,475Z" fill="rgb(0,0,0)" stroke="none" stroke-width="1"/><path id="esJe5Z3ayb111" d="M1791,678C1743,670,1693,636,1660,591C1632,550,1619,470,1622,353L1625,255L1673,252L1720,249L1720,365C1720,531,1747,580,1835,580C1901,579,1940,535,1940,460C1940,380,1848,324,1779,360C1761,370,1760,367,1760,316C1760,255,1766,250,1837,250C1990,250,2086,423,2014,569C1971,655,1888,695,1791,678Z" fill="rgb(0,0,0)" stroke="none" stroke-width="1"/><path id="esJe5Z3ayb112" d="M930,300L930,250L1260,250L1590,250L1590,300L1590,350L1260,350L930,350L930,300Z" fill="rgb(0,0,0)" stroke="none" stroke-width="1"/></g><rect id="esJe5Z3ayb113" width="10.100000" height="8.800000" rx="0" ry="0" transform="matrix(1.39968789469296 -0.01647077227205 0.01176664603103 0.99993077062424 35.37980288926406 56.16635480422723)" fill="rgb(232,110,8)" stroke="none" stroke-width="0"/><rect id="esJe5Z3ayb114" width="12.416651" height="8.700000" rx="0" ry="0" transform="matrix(1 0 0 1 36.23990144999998 113.00000000000004)" fill="rgb(232,110,8)" stroke="none" stroke-width="0"/></svg>