<svg id="eGxQ0UmRKNP1" xmlns="http://www.w3.org/2000/svg" xmlns:xlink="http://www.w3.org/1999/xlink" viewBox="0 0 768 432" shape-rendering="geometricPrecision" text-rendering="geometricPrecision"><g id="eGxQ0UmRKNP2" transform="matrix(0.10000000000000 0 0 -0.10000000000000 0 432)"><path id="eGxQ0UmRKNP3" d="M2799,1993C2746,1895,2664,1774,2559,1640C2513,1582,2391,1423,2286,1285C2182,1148,2032,953,1953,853L1810,671L1810,616L1810,560L1898,560L1985,560L2018,615C2037,646,2084,712,2124,763C2228,897,2380,1097,2414,1144C2430,1167,2448,1188,2454,1192C2460,1197,2599,1199,2764,1197L3063,1195L3096,1080C3115,1017,3130,962,3130,959C3130,947,2991,770,2898,663L2809,560L2944,560L3078,560L3106,608C3152,686,3212,762,3222,752C3227,747,3241,702,3253,651L3275,560L3415,560L3555,560L3578,603C3606,656,3678,745,3693,745C3704,745,3739,622,3740,583C3740,560,3740,560,3920,560C4019,560,4100,562,4100,565C4100,568,4087,596,4071,628C4055,659,4015,771,3981,875L3920,1065L3967,1133L4013,1200L4317,1200L4620,1200L4631,1173C4673,1061,4782,681,4795,597L4801,560L4986,560C5088,560,5170,563,5168,568C5124,652,5084,761,4997,1030C4877,1399,4725,1914,4709,2008L4698,2070L4550,2070C4405,2070,4402,2070,4396,2048C4385,2003,4273,1847,3910,1373C3880,1333,3852,1301,3849,1300C3846,1300,3833,1335,3820,1379L3798,1457L3891,1578C3943,1644,4020,1744,4063,1799C4107,1855,4175,1936,4216,1979C4257,2022,4290,2061,4290,2064C4290,2067,4226,2070,4147,2070L4005,2070L3987,2023C3971,1978,3731,1660,3713,1659C3703,1658,3601,2005,3601,2043L3600,2070L3425,2070C3311,2070,3250,2066,3250,2060C3250,2054,3258,2033,3269,2012C3296,1959,3359,1773,3420,1568L3473,1391L3422,1330C3363,1259,3366,1257,3327,1395C3312,1445,3271,1580,3235,1695C3198,1811,3163,1942,3157,1988L3146,2070L2994,2070L2842,2070L2799,1993ZM4513,1525L4557,1385L4459,1382C4404,1381,4315,1381,4260,1382L4160,1385L4256,1505C4308,1571,4375,1660,4403,1704L4455,1783L4462,1724C4466,1691,4489,1602,4513,1525ZM2910,1720C2910,1699,2930,1616,2955,1537C2980,1457,3000,1389,3000,1386C3000,1383,2912,1380,2805,1380C2698,1380,2610,1382,2610,1385C2610,1388,2658,1452,2718,1527C2777,1603,2840,1689,2859,1717C2877,1746,2896,1767,2901,1764C2906,1761,2910,1741,2910,1720ZM3584,1088L3619,992L3569,921C3541,882,3515,850,3511,850C3507,850,3489,895,3472,951L3440,1052L3491,1121C3520,1159,3544,1189,3546,1187C3547,1186,3564,1141,3584,1088Z" transform="matrix(1.65402932212033 0 0 1.65402932212033 -2045.85440116213704 -330.10816858823364)" paint-order="stroke fill markers" fill="rgb(255,255,255)" stroke="none" stroke-width="1" stroke-dashoffset="18947.630000" stroke-dasharray="18947.630000"/></g></svg>