<?xml version="1.0" standalone="no"?>
<!DOCTYPE svg PUBLIC "-//W3C//DTD SVG 20010904//EN"
 "http://www.w3.org/TR/2001/REC-SVG-20010904/DTD/svg10.dtd">
<svg version="1.0" xmlns="http://www.w3.org/2000/svg"
 width="307.000000pt" height="294.000000pt" viewBox="0 0 307.000000 294.000000"
 preserveAspectRatio="xMidYMid meet">

<g transform="translate(0.000000,294.000000) scale(0.100000,-0.100000)"
fill="#000000" stroke="none">
<path d="M1305 2615 c-95 -18 -235 -65 -320 -107 -238 -120 -455 -351 -559
-592 -115 -269 -128 -598 -34 -865 145 -410 461 -690 890 -788 112 -25 376
-23 488 5 424 104 732 376 874 772 42 115 57 202 63 351 14 347 -103 646 -346
890 -156 156 -337 260 -548 316 -125 32 -379 41 -508 18z m335 -45 c179 -20
349 -82 501 -182 256 -168 426 -421 489 -729 31 -147 24 -368 -14 -514 -31
-114 -94 -253 -157 -346 -55 -81 -185 -216 -269 -280 -88 -68 -264 -152 -385
-185 -92 -26 -114 -28 -285 -28 -168 0 -194 3 -283 27 -363 97 -649 358 -781
710 -59 157 -84 344 -67 498 22 196 91 391 189 536 56 82 180 213 260 273 225
169 526 252 802 220z"/>
<path d="M1447 2483 c-4 -3 -7 -37 -7 -74 0 -52 -4 -68 -16 -73 -19 -7 -33 0
-57 31 -21 26 -58 30 -120 12 -54 -15 -37 -24 41 -24 53 0 67 -3 70 -16 2 -13
-12 -20 -65 -33 -37 -8 -78 -18 -90 -22 -20 -5 -26 0 -44 42 l-21 49 -29 -33
c-22 -24 -29 -42 -29 -72 0 -21 4 -42 10 -45 5 -3 67 13 137 35 91 30 139 40
166 37 20 -3 37 -1 37 4 0 12 79 11 200 -3 89 -10 103 -14 110 -32 13 -35 37
-49 67 -41 16 4 45 7 65 6 36 0 40 3 83 71 30 45 43 74 37 80 -6 6 -25 -12
-51 -50 -22 -34 -46 -64 -52 -68 -7 -4 -25 9 -44 32 -31 37 -34 38 -68 27 -41
-12 -47 -9 -47 26 0 33 -14 56 -29 47 -6 -4 -11 -20 -11 -37 0 -42 -35 -41
-44 2 -7 36 -28 35 -36 -2 -7 -30 -32 -31 -45 -1 -12 27 -22 28 -30 2 -8 -24
-50 -27 -59 -4 -3 9 -6 42 -6 75 0 55 -7 69 -23 52z m-302 -184 c7 -22 -7 -39
-32 -39 -16 0 -17 32 -1 48 17 17 26 15 33 -9z m673 -27 c3 -16 -2 -22 -17
-22 -24 0 -35 15 -27 36 9 23 40 13 44 -14z"/>
<path d="M1070 2400 c0 -15 5 -20 18 -18 9 2 17 10 17 18 0 8 -8 16 -17 18
-13 2 -18 -3 -18 -18z"/>
<path d="M1020 2366 c0 -21 21 -31 30 -15 5 7 6 17 4 21 -9 14 -34 9 -34 -6z"/>
<path d="M2001 2272 c-43 -72 -47 -82 -31 -82 9 0 100 131 100 144 0 3 -6 6
-14 6 -7 0 -32 -31 -55 -68z"/>
<path d="M926 2321 c-6 -10 91 -151 105 -151 15 0 11 7 -41 85 -52 78 -55 81
-64 66z"/>
<path d="M855 2270 c-4 -6 12 -35 34 -64 23 -29 41 -57 41 -63 0 -6 -14 -13
-32 -17 -43 -8 -58 -23 -58 -57 0 -37 -14 -44 -50 -22 -20 12 -33 14 -38 7
-50 -74 -76 -105 -92 -114 -27 -15 -25 -23 10 -43 37 -22 39 -54 5 -67 -34
-13 -31 -23 15 -49 22 -12 44 -30 49 -39 9 -16 10 -16 17 1 4 12 -1 26 -15 41
-11 12 -21 26 -21 30 0 9 98 155 123 184 12 13 32 22 48 22 30 0 59 31 59 64
0 11 7 27 15 36 14 15 10 24 -41 88 -30 40 -57 72 -59 72 -2 0 -7 -5 -10 -10z
m60 -195 c0 -22 -31 -33 -48 -16 -7 7 -6 15 3 26 17 21 45 15 45 -10z m-125
-70 c10 -12 6 -23 -25 -60 -58 -72 -89 -42 -34 33 34 46 41 49 59 27z"/>
<path d="M2177 2226 c-7 -16 1 -26 20 -26 7 0 13 9 13 20 0 23 -25 27 -33 6z"/>
<path d="M2056 2183 l-25 -38 62 -57 c34 -32 70 -57 79 -58 9 0 30 11 45 24
22 20 25 27 16 37 -10 10 -16 9 -31 -4 -27 -25 -42 -21 -90 24 -42 39 -43 41
-28 64 9 13 16 29 16 35 0 21 -21 9 -44 -27z"/>
<path d="M1521 1992 c-1 -173 1 -223 11 -226 7 -3 25 -7 41 -10 27 -6 27 -6
27 45 0 36 -6 58 -20 76 -25 33 -26 63 0 70 19 5 19 6 1 32 -12 17 -21 51 -24
97 -3 39 -12 86 -20 105 -13 31 -14 15 -16 -189z"/>
<path d="M2220 2175 c0 -8 9 -15 20 -15 11 0 20 7 20 15 0 8 -9 15 -20 15 -11
0 -20 -7 -20 -15z"/>
<path d="M2280 2039 c-66 -50 -82 -69 -60 -69 16 0 140 99 140 111 0 17 -15 9
-80 -42z"/>
<path d="M2291 1929 c-17 -7 -21 -14 -16 -27 4 -9 8 -26 9 -37 1 -16 -4 -20
-29 -17 l-30 2 22 -19 c13 -11 31 -17 42 -14 24 6 40 -23 71 -127 13 -41 26
-79 30 -83 10 -12 163 6 167 20 3 8 -17 11 -74 10 l-78 -2 -3 28 c-3 21 1 27
16 27 11 0 30 8 42 18 45 37 -7 111 -58 83 -30 -16 -42 -14 -51 12 -10 26 2
45 36 58 30 11 29 23 -4 47 -38 26 -64 32 -92 21z m66 -35 c7 -18 -14 -35 -34
-27 -7 3 -13 14 -13 24 0 24 38 26 47 3z m91 -152 c3 -18 -1 -22 -22 -22 -19
0 -26 5 -26 18 0 39 43 43 48 4z"/>
<path d="M2486 1815 c-3 -9 1 -18 10 -22 19 -7 28 2 21 22 -8 19 -23 19 -31 0z"/>
<path d="M2504 1749 c-10 -17 13 -36 27 -22 12 12 4 33 -11 33 -5 0 -12 -5
-16 -11z"/>
<path d="M595 1740 c-3 -4 6 -15 20 -24 28 -18 30 -30 12 -66 -11 -21 -18 -24
-54 -22 -22 2 -43 0 -46 -5 -3 -4 2 -24 10 -44 17 -43 78 -83 92 -61 11 19 46
200 39 207 -11 11 -68 23 -73 15z m10 -165 c0 -30 -39 -27 -43 3 -3 20 0 23
20 20 15 -2 23 -10 23 -23z"/>
<path d="M684 1659 c-3 -6 -2 -15 4 -21 13 -13 32 -2 32 18 0 16 -26 19 -36 3z"/>
<path d="M465 1640 c-8 -14 3 -30 21 -30 8 0 14 9 14 20 0 21 -24 28 -35 10z"/>
<path d="M675 1601 c-8 -15 3 -31 21 -31 9 0 14 7 12 17 -4 20 -24 28 -33 14z"/>
<path d="M460 1570 c0 -11 7 -20 15 -20 8 0 15 9 15 20 0 11 -7 20 -15 20 -8
0 -15 -9 -15 -20z"/>
<path d="M2488 1546 c-42 -6 -80 -15 -85 -20 -10 -11 159 2 170 14 16 15 -8
16 -85 6z"/>
<path d="M1450 1492 c0 -16 7 -37 15 -48 13 -18 14 -15 15 29 0 35 -4 47 -15
47 -10 0 -15 -10 -15 -28z"/>
<path d="M1550 1470 c0 -57 13 -65 29 -19 17 48 14 69 -9 69 -17 0 -20 -7 -20
-50z"/>
<path d="M510 1434 c-11 -12 -10 -18 3 -32 16 -15 18 -15 34 0 13 14 14 20 3
32 -7 9 -16 16 -20 16 -4 0 -13 -7 -20 -16z"/>
<path d="M2483 1443 c-18 -6 -16 -42 2 -49 16 -6 45 12 45 27 0 12 -33 27 -47
22z"/>
<path d="M778 1393 c7 -3 16 -2 19 1 4 3 -2 6 -13 5 -11 0 -14 -3 -6 -6z"/>
<path d="M898 1393 c34 -2 90 -2 125 0 34 2 6 3 -63 3 -69 0 -97 -1 -62 -3z"/>
<path d="M2008 1393 c34 -2 90 -2 125 0 34 2 6 3 -63 3 -69 0 -97 -1 -62 -3z"/>
<path d="M2248 1393 c7 -3 16 -2 19 1 4 3 -2 6 -13 5 -11 0 -14 -3 -6 -6z"/>
<path d="M963 1353 c31 -2 83 -2 115 0 31 2 5 3 -58 3 -63 0 -89 -1 -57 -3z"/>
<path d="M1913 1353 c43 -2 110 -2 150 0 40 1 5 3 -78 3 -82 0 -115 -2 -72 -3z"/>
<path d="M664 1279 c-3 -6 -2 -15 4 -21 13 -13 32 -2 32 18 0 16 -26 19 -36 3z"/>
<path d="M2479 1264 c-15 -14 -41 -27 -65 -30 -53 -8 -91 -23 -98 -39 -4 -10
1 -10 22 1 15 8 48 14 75 14 43 0 47 -2 47 -25 0 -16 -10 -31 -27 -42 -39 -25
-43 -32 -36 -80 4 -27 1 -48 -6 -57 -7 -8 -46 -21 -87 -27 -71 -12 -86 -20
-64 -34 6 -3 10 -16 10 -28 1 -12 7 -33 14 -47 10 -17 11 -30 5 -42 -13 -24
-28 -23 -57 5 -23 22 -24 22 -39 2 -17 -23 -11 -81 11 -103 12 -12 18 -12 44
3 35 21 59 15 64 -17 4 -21 5 -21 13 -4 5 11 4 26 -3 37 -18 28 -15 47 16 85
27 33 55 44 67 24 11 -18 35 -10 47 16 10 21 9 31 -7 61 -17 31 -18 37 -5 61
8 14 29 33 45 42 27 15 30 21 28 61 -2 24 3 74 9 112 6 37 9 69 7 72 -3 2 -16
-7 -30 -21z m-11 -168 c2 -10 -1 -23 -7 -29 -15 -15 -46 16 -37 38 8 21 40 15
44 -9z m-118 -146 c0 -24 -26 -38 -42 -22 -16 16 -2 42 22 42 13 0 20 -7 20
-20z m60 -50 c0 -32 -1 -33 -24 -24 -16 6 -22 35 -9 47 16 17 33 5 33 -23z
m-105 -10 c0 -36 -29 -33 -33 3 -3 23 0 28 15 25 12 -2 18 -12 18 -28z m-101
-76 c21 -8 21 -43 0 -51 -20 -7 -33 12 -27 38 6 21 6 21 27 13z"/>
<path d="M526 1243 c25 -105 135 -343 158 -343 6 0 29 12 50 26 46 31 36 55
-12 30 -30 -15 -31 -15 -51 10 -28 36 -26 62 4 76 31 14 35 43 5 34 -11 -3
-29 -9 -40 -12 -16 -5 -23 1 -36 31 -19 48 -15 67 19 83 56 27 13 92 -61 92
-41 0 -42 -1 -36 -27z m79 -18 c0 -30 -39 -27 -43 3 -3 20 0 23 20 20 15 -2
23 -10 23 -23z"/>
<path d="M1908 1263 c7 -3 16 -2 19 1 4 3 -2 6 -13 5 -11 0 -14 -3 -6 -6z"/>
<path d="M684 1219 c-3 -6 -2 -15 4 -21 13 -13 32 -2 32 18 0 16 -26 19 -36 3z"/>
<path d="M2546 1171 c-7 -11 18 -33 27 -24 4 3 7 12 7 20 0 15 -26 18 -34 4z"/>
<path d="M506 1092 c-2 -4 -1 -14 4 -22 7 -11 11 -11 24 -1 9 7 13 17 10 22
-7 11 -31 12 -38 1z"/>
<path d="M1157 1088 c-9 -7 -47 -51 -85 -98 -37 -47 -75 -86 -83 -88 -10 -2
-28 15 -48 44 -22 34 -32 43 -36 31 -8 -20 56 -118 75 -114 8 1 44 39 81 85
83 104 83 104 111 107 13 1 26 3 31 4 4 0 7 10 7 21 0 23 -27 27 -53 8z"/>
<path d="M1825 1090 c-10 -16 3 -27 40 -34 27 -5 44 -20 81 -69 55 -73 105
-127 116 -127 14 0 80 108 73 120 -5 8 -18 -5 -37 -34 -17 -25 -37 -46 -44
-46 -19 0 -44 26 -104 110 -29 39 -60 75 -70 80 -24 13 -47 13 -55 0z"/>
<path d="M534 1029 c-8 -14 11 -33 25 -25 16 10 13 36 -3 36 -8 0 -18 -5 -22
-11z"/>
<path d="M1528 984 c-5 -4 -8 -61 -8 -126 0 -65 3 -118 8 -118 19 1 34 19 26
31 -5 8 -11 61 -14 117 -3 57 -8 100 -12 96z"/>
<path d="M580 924 c0 -9 7 -14 17 -12 25 5 28 28 4 28 -12 0 -21 -6 -21 -16z"/>
<path d="M1307 874 c-4 -4 -7 -21 -7 -39 0 -42 44 -82 142 -130 l77 -37 77 39
c99 49 144 90 144 131 0 47 -15 46 -28 -2 -15 -57 -50 -89 -129 -120 l-66 -25
-73 30 c-89 37 -152 101 -109 111 12 2 11 7 -3 26 -10 13 -21 20 -25 16z"/>
<path d="M760 844 c-26 -19 -43 -24 -67 -20 -36 5 -36 5 -27 -18 4 -12 20 -16
54 -16 43 0 52 -4 74 -32 22 -28 32 -33 68 -33 42 0 43 -1 46 -37 3 -30 12
-45 45 -73 22 -19 46 -34 51 -32 20 7 99 148 88 159 -6 6 -22 -10 -47 -51 -37
-60 -59 -73 -83 -49 -7 7 -12 27 -12 46 0 29 3 34 20 29 18 -5 20 0 20 40 l0
44 -42 -3 c-33 -2 -42 -7 -40 -19 4 -27 -46 -34 -76 -12 -41 30 -50 52 -29 67
20 15 23 36 5 36 -7 -1 -29 -12 -48 -26z m210 -85 c0 -14 -5 -19 -17 -17 -26
5 -29 38 -4 38 15 0 21 -6 21 -21z"/>
<path d="M2100 729 c0 -6 14 -28 30 -49 17 -21 30 -49 30 -64 0 -18 4 -24 15
-20 25 10 17 48 -21 97 -36 46 -54 58 -54 36z"/>
<path d="M1871 696 c-12 -14 -5 -26 16 -26 15 0 18 26 4 34 -5 3 -14 0 -20 -8z"/>
<path d="M1101 629 c-23 -40 -40 -77 -38 -83 4 -11 97 127 97 144 0 26 -22 3
-59 -61z"/>
<path d="M2030 677 c0 -7 5 -18 10 -23 16 -16 4 -37 -31 -56 -44 -26 -57 -23
-81 18 l-22 37 -23 -27 c-24 -28 -33 -99 -13 -111 9 -5 168 70 202 97 17 12
16 15 -3 46 -22 33 -39 42 -39 19z m-110 -91 c0 -27 -28 -43 -36 -21 -9 21 3
45 21 45 9 0 15 -9 15 -24z"/>
<path d="M1810 655 c0 -8 9 -15 20 -15 11 0 20 7 20 15 0 8 -9 15 -20 15 -11
0 -20 -7 -20 -15z"/>
<path d="M1331 556 c-13 -52 -21 -59 -56 -50 -18 4 -25 13 -25 30 0 40 -27 27
-46 -21 -9 -25 -24 -50 -33 -55 -14 -8 -14 -9 3 -16 13 -5 24 -1 36 16 l17 23
134 -22 c122 -20 136 -25 161 -52 39 -42 89 -35 108 16 7 19 22 26 84 40 42 9
78 21 81 25 9 15 -19 100 -32 100 -26 0 -62 -32 -68 -60 -7 -32 -28 -54 -46
-48 -6 2 -17 19 -23 38 l-11 35 -119 10 c-79 7 -121 14 -124 23 -9 27 -30 10
-41 -32z m256 -30 c6 -6 14 -32 18 -57 11 -78 -40 -104 -69 -34 -13 31 -16 32
-92 38 -43 4 -82 11 -87 16 -5 5 -7 21 -3 35 l6 26 108 -6 c59 -4 112 -12 119
-18z m173 4 c0 -23 -26 -38 -41 -23 -14 14 0 43 22 43 12 0 19 -7 19 -20z"/>
<path d="M2050 545 c0 -8 9 -15 20 -15 11 0 20 7 20 15 0 8 -9 15 -20 15 -11
0 -20 -7 -20 -15z"/>
<path d="M1992 518 c7 -19 38 -22 38 -4 0 10 -9 16 -21 16 -12 0 -19 -5 -17
-12z"/>
</g>
</svg>
