<svg id="ezWMk9rYTUJ1" xmlns="http://www.w3.org/2000/svg" xmlns:xlink="http://www.w3.org/1999/xlink" viewBox="0 0 3000 2000" shape-rendering="geometricPrecision" text-rendering="geometricPrecision"><g id="ezWMk9rYTUJ2" transform="matrix(0.10000000000000 0 0 -0.10000000000000 0 2000)"><path id="ezWMk9rYTUJ3" d="M7980,13768C7587,13731,7140,13560,6620,13247C6240,13019,5672,12544,5277,12123C4726,11537,4323,10962,3990,10285C3648,9591,3467,8899,3467,8285C3466,7678,3623,7228,3951,6901C4289,6562,4793,6382,5340,6403C5662,6416,6111,6500,6945,6705C7110,6746,7346,6806,7470,6839C7902,6956,8285,7031,8625,7066C8854,7090,9254,7090,9435,7066C10006,6991,10417,6763,10668,6380C10698,6333,10726,6291,10730,6287C10734,6283,10753,6303,10772,6333C10888,6508,11094,6659,11310,6730C11488,6788,11859,6802,12125,6762C12453,6711,12769,6611,13067,6461C13192,6399,13349,6307,13407,6263C13426,6249,13442,6239,13445,6242C13452,6249,13317,6401,13219,6495C12915,6788,12365,7183,12046,7340C11388,7662,10624,7735,9593,7575C9290,7527,8999,7464,8515,7341C8228,7267,7422,7070,7080,6990C6481,6849,6147,6801,5835,6813C5520,6825,5284,6897,4997,7068C4809,7180,4712,7289,4609,7504C4516,7700,4477,7903,4477,8205C4477,8496,4501,8665,4591,9010C4829,9922,5331,10847,6125,11835C6351,12116,6751,12541,6988,12753C7338,13065,7671,13274,7990,13381C8106,13420,8123,13424,8225,13424C8330,13425,8337,13424,8390,13394C8433,13369,8451,13352,8473,13310C8506,13246,8510,13156,8482,13100C8466,13067,8461,13065,8404,13058C8266,13043,8206,13014,8114,12918C8039,12841,7987,12761,7953,12672C7917,12581,7914,12436,7947,12375C7997,12281,8082,12251,8206,12284C8331,12317,8420,12391,8524,12548C8752,12890,8808,13215,8684,13476C8620,13611,8460,13730,8295,13765C8218,13781,8126,13782,7980,13768Z" fill="rgb(255,23,38)" stroke="none" stroke-width="1"/><path id="ezWMk9rYTUJ4" d="M19030,13754C18678,13712,18167,13511,17707,13234C17110,12873,16492,12322,15874,11600C15497,11160,15055,10522,14758,9990C14425,9394,14154,8693,14070,8213C13974,7661,14063,7154,14316,6817C14615,6419,15063,6306,15620,6490C15755,6534,15892,6606,16085,6735C16293,6874,16423,6982,16641,7199C16919,7477,17104,7712,17306,8046C17414,8225,17575,8545,17645,8724C17700,8862,17762,9099,17786,9261C17811,9431,17802,9654,17766,9775C17731,9892,17699,9949,17633,10011C17527,10111,17396,10145,17228,10117C16850,10053,16483,9820,16198,9462C15954,9156,15738,8678,15645,8239C15620,8118,15580,7882,15580,7848C15580,7838,15617,7869,15673,7927C15898,8160,16167,8363,16438,8505L16533,8555L16557,8660C16623,8960,16782,9283,16979,9517C17097,9656,17225,9739,17336,9748C17460,9758,17513,9729,17551,9632C17585,9546,17583,9352,17546,9175C17438,8651,17115,8064,16670,7585C16293,7178,15899,6951,15610,6973C15351,6993,15151,7174,15064,7465C15029,7586,15020,7808,15044,7985C15159,8817,15505,9629,16186,10662C16543,11205,17194,12001,17606,12400C18020,12801,18409,13091,18814,13300C19056,13426,19202,13463,19355,13440C19497,13418,19497,13419,19383,13346C19182,13219,18929,13020,18763,12859C18393,12498,18164,12184,17982,11785C17870,11538,17831,11412,17823,11263C17801,10883,18033,10685,18367,10798C18596,10876,18776,10996,18986,11211C19223,11456,19474,11821,19605,12114C19792,12532,19860,12802,19860,13128L19860,13288L19913,13307C19991,13334,20173,13332,20310,13301C20517,13255,20802,13145,21015,13028C21184,12936,21351,12832,21772,12557C22132,12322,22317,12208,22386,12176L22428,12158L22467,12201C22643,12396,22733,12493,22848,12611L22981,12748L22848,12831C22578,12998,21863,13403,21640,13515C21332,13670,21003,13750,20677,13750C20409,13750,20247,13721,19940,13616L19724,13543L19671,13591C19605,13650,19500,13703,19394,13730C19317,13751,19113,13764,19030,13754ZM19636,13174C19651,13113,19616,12851,19564,12648C19505,12414,19383,12128,19247,11907C19023,11542,18647,11167,18378,11040C18295,11001,18245,10994,18177,11014C17992,11068,17995,11310,18185,11690C18462,12243,18901,12746,19387,13066C19470,13121,19609,13200,19622,13200C19626,13200,19633,13188,19636,13174Z" fill="rgb(255,23,38)" stroke="none" stroke-width="1"/><path id="ezWMk9rYTUJ5" d="M26410,13644C26235,13468,26036,13298,25820,13143C25568,12961,25161,12741,24888,12640C24553,12517,24214,12461,23875,12474L23715,12480L23645,12398C23430,12148,23193,11853,23201,11846C23210,11838,23376,11810,23475,11799C23607,11785,23862,11793,24005,11815C24917,11957,25829,12604,26382,13500C26450,13610,26534,13760,26528,13760C26526,13760,26473,13708,26410,13644Z" fill="rgb(255,23,38)" stroke="none" stroke-width="1"/><path id="ezWMk9rYTUJ6" d="M24521,13679C24330,13642,23997,13458,23737,13247C22634,12355,21679,11153,20816,9570C20757,9463,20628,9214,20529,9017C20325,8611,20357,8650,20190,8603C20094,8577,19960,8561,19960,8577C19960,8583,19987,8646,20020,8718C20197,9108,20272,9408,20257,9660C20247,9816,20205,9924,20119,10016C20059,10078,19999,10107,19890,10122C19681,10153,19408,10059,19098,9851C18716,9593,18359,9204,17964,8615C17774,8330,17590,7962,17488,7660C17343,7232,17324,6860,17436,6639C17470,6572,17571,6471,17632,6442C17825,6352,18085,6412,18400,6618C18855,6915,19262,7386,19708,8130L19837,8345L19929,8352C19979,8355,20067,8366,20125,8375C20183,8385,20232,8391,20234,8389C20236,8387,20193,8250,20139,8085C19949,7509,19901,7307,19893,7050C19888,6875,19895,6816,19939,6699C19981,6588,20096,6469,20200,6428C20242,6411,20276,6406,20345,6406C20497,6406,20644,6469,20843,6618C20956,6702,21199,6942,21300,7068C21336,7113,21368,7149,21371,7150C21374,7150,21372,7117,21367,7078C21356,6984,21365,6801,21385,6727C21447,6495,21625,6377,21862,6410C22049,6437,22305,6599,22596,6875L22727,6999L22719,6957C22703,6874,22709,6707,22730,6639C22782,6470,22869,6407,23050,6407C23122,6407,23159,6412,23205,6429C23278,6455,23498,6574,23597,6642C23891,6840,24267,7248,24652,7789C24769,7951,24990,8288,24990,8302C24990,8306,24937,8310,24872,8310L24753,8310L24655,8163C24306,7637,24065,7363,23788,7173C23710,7120,23690,7110,23653,7110C23602,7110,23570,7136,23570,7178C23570,7276,23719,7570,24006,8040C24051,8114,24298,8549,24555,9005C24813,9462,25049,9881,25081,9938L25139,10040L24770,10040L24401,10040L24349,9950C24321,9901,24295,9860,24291,9860C24288,9860,24279,9870,24271,9883C24263,9895,24230,9938,24196,9978C24150,10033,24121,10058,24075,10080C23927,10152,23724,10137,23526,10039C23376,9964,23133,9785,22950,9613C22543,9233,22267,8870,21600,7838C21340,7436,21107,7162,20964,7091C20838,7028,20740,7103,20724,7276C20719,7331,20723,7376,20744,7482C20804,7792,20917,8128,21107,8556L21182,8727L21324,8828C22015,9323,22700,9967,23395,10775C23688,11116,23948,11449,24065,11634L24103,11693L24069,11686C24050,11682,23994,11677,23944,11673L23853,11667L23798,11591C23368,10998,22433,10001,21820,9485C21638,9332,21438,9189,21424,9203C21416,9211,21587,9549,21715,9780C22117,10504,22617,11286,23050,11865C23354,12272,23552,12500,23881,12825C24229,13168,24402,13311,24541,13374C24629,13413,24655,13416,24685,13386C24713,13358,24715,13339,24700,13240C24686,13141,24658,13066,24554,12853C24502,12745,24461,12656,24462,12655C24467,12651,24663,12698,24693,12709C24716,12718,24733,12744,24785,12853C24894,13082,24924,13197,24924,13375C24924,13478,24921,13502,24901,13548C24872,13613,24825,13655,24758,13675C24703,13691,24593,13693,24521,13679ZM19939,9766C19990,9717,20013,9648,20018,9533C20020,9478,20017,9396,20011,9351C19992,9204,19872,8880,19769,8693C19737,8635,19724,8620,19705,8620C19693,8620,19640,8641,19589,8667C19515,8704,19479,8730,19420,8789C19233,8978,19194,9219,19313,9444C19377,9565,19586,9748,19702,9786C19728,9794,19778,9799,19827,9797C19902,9795,19911,9793,19939,9766ZM24094,9729C24130,9700,24153,9653,24146,9620C24143,9605,24094,9514,24037,9418C23980,9323,23828,9060,23700,8835C23318,8162,23129,7854,22916,7560C22786,7381,22716,7303,22612,7219C22511,7138,22463,7116,22393,7122C22300,7130,22263,7187,22275,7308C22306,7621,22487,7999,22915,8645C23135,8977,23310,9198,23520,9410C23641,9532,23798,9668,23853,9697C23959,9755,24046,9766,24094,9729ZM19014,8903C19089,8745,19318,8535,19530,8430C19566,8412,19597,8396,19599,8394C19601,8393,19574,8339,19541,8274C19282,7787,18895,7320,18629,7175C18565,7141,18467,7117,18420,7125C18358,7135,18296,7181,18269,7236C18247,7280,18245,7298,18245,7415C18246,7524,18250,7561,18272,7640C18347,7910,18538,8293,18779,8655C18871,8792,18980,8940,18989,8940C18993,8940,19004,8923,19014,8903Z" fill="rgb(255,23,38)" stroke="none" stroke-width="1"/><path id="ezWMk9rYTUJ7" d="M8243,11945C8013,11903,7717,11747,7425,11513C7276,11394,7024,11147,6872,10970C6406,10429,6095,9872,5960,9340C5849,8899,5894,8503,6073,8345C6347,8104,6764,8220,7287,8684C7421,8802,7499,8881,7660,9060C7908,9336,7998,9462,8329,10007C8465,10230,8490,10265,8515,10272C8644,10304,8838,10350,8844,10350C8847,10350,8825,10304,8794,10248C8564,9826,8414,9440,8380,9178C8365,9065,8388,8825,8426,8694C8483,8497,8593,8358,8753,8280C8991,8165,9336,8214,9678,8411C9869,8521,10054,8671,10370,8973C10488,9086,10586,9177,10588,9175C10590,9173,10578,9121,10561,9058C10445,8628,10498,8372,10724,8266C10984,8144,11328,8281,11712,8660L11839,8785L11837,8635C11836,8516,11839,8476,11853,8442C11879,8373,11925,8316,11985,8275C12040,8237,12045,8236,12139,8232C12262,8227,12332,8244,12465,8310C12742,8449,13117,8788,13490,9235C13645,9420,14100,10039,14100,10064C14100,10067,14046,10070,13980,10070L13861,10070L13739,9908C13437,9505,13184,9228,12977,9071C12828,8959,12738,8936,12705,9001C12685,9038,12686,9080,12708,9137C12722,9173,14183,11721,14256,11838L14270,11860L13906,11860L13542,11860L13501,11794L13460,11728L13389,11804C13215,11991,12999,12005,12690,11850C12490,11749,12289,11591,12024,11326C11695,10996,11537,10802,11122,10220C10818,9792,10563,9484,10291,9213C10064,8987,9901,8868,9729,8803C9614,8760,9534,8752,9454,8775C9406,8789,9385,8802,9338,8850C9274,8915,9247,8983,9235,9107C9216,9299,9302,9571,9525,10025C9820,10626,10238,11166,10643,11473C10763,11565,10921,11615,11009,11590C11109,11563,11155,11449,11108,11345C11099,11326,11088,11322,11027,11317C10923,11308,10828,11259,10753,11175C10615,11021,10558,10863,10589,10726C10606,10656,10692,10590,10768,10590C10915,10590,11098,10759,11227,11015C11451,11457,11363,11831,11011,11934C10782,12001,10498,11931,10205,11736C10021,11613,9887,11497,9620,11234C9345,10963,9277,10901,9130,10793C9002,10699,8920,10648,8817,10600C8741,10564,8630,10536,8630,10553C8630,10556,8657,10626,8690,10708C8755,10871,8809,11047,8836,11187C8860,11309,8860,11522,8836,11610C8763,11877,8546,12000,8243,11945ZM8495,11586C8507,11578,8527,11556,8539,11537C8615,11414,8617,11241,8544,10985C8509,10863,8371,10542,8351,10537C8342,10536,8302,10540,8261,10547C8095,10575,7910,10708,7845,10845C7819,10898,7816,10916,7816,11000C7817,11161,7876,11284,8026,11437C8100,11512,8132,11537,8194,11566C8305,11619,8432,11627,8495,11586ZM13222,11590C13263,11578,13310,11529,13310,11498C13310,11474,13273,11407,12987,10905C12448,9960,12157,9484,11997,9285C11907,9174,11787,9061,11684,8993C11606,8941,11592,8935,11544,8935C11483,8935,11445,8957,11417,9011C11370,9100,11451,9371,11636,9740C11817,10101,12012,10399,12374,10865C12671,11248,12794,11389,12903,11471C12996,11541,13041,11565,13113,11585C13178,11602,13177,11602,13222,11590ZM7602,10728C7709,10560,7908,10410,8125,10335C8169,10319,8209,10304,8213,10300C8227,10288,8201,10239,8043,9980C7757,9513,7480,9191,7228,9033C7137,8976,7040,8950,6967,8964C6884,8980,6814,9083,6803,9207C6785,9426,6943,9846,7213,10295C7314,10463,7538,10800,7549,10800C7553,10800,7577,10767,7602,10728Z" fill="rgb(255,23,38)" stroke="none" stroke-width="1"/><path id="ezWMk9rYTUJ8" d="M14737,11773C14520,11421,14410,11241,14410,11236C14410,11233,14564,11230,14753,11230L15095,11231L15268,11513C15363,11668,15450,11810,15461,11828L15482,11860L15137,11860L14791,11860L14737,11773Z" fill="rgb(255,23,38)" stroke="none" stroke-width="1"/></g></svg>