<?xml version="1.0" standalone="no"?>
<!DOCTYPE svg PUBLIC "-//W3C//DTD SVG 20010904//EN"
 "http://www.w3.org/TR/2001/REC-SVG-20010904/DTD/svg10.dtd">
<svg version="1.0" xmlns="http://www.w3.org/2000/svg"
 width="768.000000pt" height="432.000000pt" viewBox="0 0 768.000000 432.000000"
 preserveAspectRatio="xMidYMid meet">

<g transform="translate(0.000000,432.000000) scale(0.100000,-0.100000)"
fill="#000000" stroke="none">
<path d="M5593 4142 c-21 -27 -49 -64 -63 -82 -14 -18 -73 -94 -131 -169 -58
-75 -175 -226 -259 -336 -85 -110 -208 -270 -274 -355 -332 -430 -393 -508
-521 -675 -76 -99 -163 -210 -192 -247 -29 -37 -53 -71 -53 -76 0 -4 48 -9
108 -11 l107 -2 355 462 c195 255 384 501 420 548 36 47 140 183 231 301 91
118 201 262 245 319 82 107 259 337 276 359 8 9 -13 12 -100 12 l-110 0 -39
-48z"/>
<path d="M2799 1993 c-53 -98 -135 -219 -240 -353 -46 -58 -168 -217 -273
-355 -104 -137 -254 -332 -333 -432 l-143 -182 0 -55 0 -56 88 0 87 0 33 55
c19 31 66 97 106 148 104 134 256 334 290 381 16 23 34 44 40 48 6 5 145 7
310 5 l299 -2 33 -115 c19 -63 34 -118 34 -121 0 -12 -139 -189 -232 -296
l-89 -103 135 0 134 0 28 48 c46 78 106 154 116 144 5 -5 19 -50 31 -101 l22
-91 140 0 140 0 23 43 c28 53 100 142 115 142 11 0 46 -123 47 -162 0 -23 0
-23 180 -23 99 0 180 2 180 5 0 3 -13 31 -29 63 -16 31 -56 143 -90 247 l-61
190 47 68 46 67 304 0 303 0 11 -27 c42 -112 151 -492 164 -576 l6 -37 185 0
c102 0 184 3 182 8 -44 84 -84 193 -171 462 -120 369 -272 884 -288 978 l-11
62 -148 0 c-145 0 -148 0 -154 -22 -11 -45 -123 -201 -486 -675 -30 -40 -58
-72 -61 -73 -3 0 -16 35 -29 79 l-22 78 93 121 c52 66 129 166 172 221 44 56
112 137 153 180 41 43 74 82 74 85 0 3 -64 6 -143 6 l-142 0 -18 -47 c-16 -45
-256 -363 -274 -364 -10 -1 -112 346 -112 384 l-1 27 -175 0 c-114 0 -175 -4
-175 -10 0 -6 8 -27 19 -48 27 -53 90 -239 151 -444 l53 -177 -51 -61 c-59
-71 -56 -73 -95 65 -15 50 -56 185 -92 300 -37 116 -72 247 -78 293 l-11 82
-152 0 -152 0 -43 -77z m1714 -468 l44 -140 -98 -3 c-55 -1 -144 -1 -199 0
l-100 3 96 120 c52 66 119 155 147 199 l52 79 7 -59 c4 -33 27 -122 51 -199z
m-1603 195 c0 -21 20 -104 45 -183 25 -80 45 -148 45 -151 0 -3 -88 -6 -195
-6 -107 0 -195 2 -195 5 0 3 48 67 108 142 59 76 122 162 141 190 18 29 37 50
42 47 5 -3 9 -23 9 -44z m674 -632 l35 -96 -50 -71 c-28 -39 -54 -71 -58 -71
-4 0 -22 45 -39 101 l-32 101 51 69 c29 38 53 68 55 66 1 -1 18 -46 38 -99z"/>
</g>
</svg>
