<svg id="e4iQS6B3qym1" xmlns="http://www.w3.org/2000/svg" xmlns:xlink="http://www.w3.org/1999/xlink" viewBox="0 0 2560 1440" shape-rendering="geometricPrecision" text-rendering="geometricPrecision"><g id="e4iQS6B3qym2" transform="matrix(0.11516385931492 0 0 -0.11516385931492 -214.13189013500028 1572.33979100000079)"><path id="e4iQS6B3qym3" d="M10832,9678L10835,9435L11130,9435L11425,9435L11425,9675L11425,9915L11127,9918L10830,9920L10832,9678Z" fill="rgb(255,244,244)" stroke="none" stroke-width="1"/><path id="e4iQS6B3qym4" d="M16880,9675L16880,9430L17173,9432L17465,9435L17465,9675L17465,9915L17173,9918L16880,9920L16880,9675Z" fill="rgb(255,244,244)" stroke="none" stroke-width="1"/><path id="e4iQS6B3qym5" d="M17960,9675L17960,9430L18253,9432L18545,9435L18548,9678L18550,9920L18255,9920L17960,9920L17960,9675Z" fill="rgb(255,244,244)" stroke="none" stroke-width="1"/><path id="e4iQS6B3qym6" d="M4345,9380C4047,9315,3906,9136,3849,8748C3839,8675,3836,8105,3845,7973C3852,7880,3887,7700,3911,7632C3968,7470,4059,7367,4195,7311C4357,7243,4651,7243,4858,7311C5026,7367,5150,7510,5201,7708C5221,7788,5245,8058,5235,8091C5229,8109,5218,8110,4997,8108L4765,8105L4758,7977C4749,7812,4737,7748,4703,7681C4666,7609,4627,7588,4543,7592C4467,7597,4434,7618,4403,7681C4358,7771,4348,7882,4347,8310C4345,8826,4360,8950,4436,9025C4496,9086,4612,9082,4672,9018C4711,8976,4731,8897,4739,8761L4745,8645L4980,8645L5215,8645L5213,8765C5207,9105,5076,9301,4805,9375C4766,9385,4690,9393,4590,9396C4462,9399,4420,9397,4345,9380Z" fill="rgb(255,244,244)" stroke="none" stroke-width="1"/><path id="e4iQS6B3qym7" d="M6035,9334C5931,9319,5843,9293,5761,9253C5550,9152,5438,8967,5388,8640C5371,8527,5371,8074,5388,7960C5444,7575,5584,7393,5882,7319C5990,7293,6237,7282,6347,7299C6619,7342,6778,7456,6880,7681C6956,7848,6980,7997,6980,8306C6980,8776,6926,8986,6761,9151C6634,9277,6482,9330,6225,9335C6137,9337,6052,9336,6035,9334ZM6283,8917C6319,8890,6351,8823,6364,8750C6394,8581,6395,8060,6365,7896C6339,7747,6283,7680,6186,7680C6116,7680,6073,7705,6039,7766C5999,7836,5984,7904,5970,8075C5954,8265,5962,8623,5985,8730C6005,8821,6045,8897,6091,8928C6139,8962,6232,8956,6283,8917Z" fill="rgb(255,244,244)" stroke="none" stroke-width="1"/><path id="e4iQS6B3qym8" d="M8170,9334C8117,9323,8043,9297,8000,9272C7944,9240,7857,9159,7827,9111L7805,9075L7800,9180L7795,9285L7513,9288L7230,9290L7230,8315L7230,7340L7523,7342L7815,7345L7820,8025C7825,8747,7825,8734,7874,8805C7904,8848,7929,8867,7977,8880C8031,8896,8081,8886,8120,8853C8188,8796,8184,8840,8190,8055L8195,7345L8485,7345L8775,7345L8778,8110C8780,8928,8779,8952,8730,9082C8691,9187,8587,9279,8466,9316C8415,9331,8218,9343,8170,9334Z" fill="rgb(255,244,244)" stroke="none" stroke-width="1"/><path id="e4iQS6B3qym9" d="M9603,9330C9439,9307,9289,9244,9197,9160C9135,9104,9080,9007,9056,8914C9035,8832,9035,8658,9056,8576C9090,8444,9178,8333,9303,8262C9379,8219,9545,8150,9665,8110C9846,8051,9912,8010,9946,7936C9977,7869,9976,7826,9943,7759C9906,7687,9855,7658,9766,7658C9688,7659,9640,7678,9607,7721C9577,7763,9570,7783,9555,7885L9544,7965L9284,7965L9025,7965L9022,7900C9010,7664,9116,7461,9294,7377C9428,7314,9482,7305,9750,7305C9979,7305,10000,7307,10070,7328C10361,7420,10511,7620,10511,7918C10511,8103,10469,8228,10370,8334C10285,8425,10184,8477,9955,8551C9851,8585,9743,8624,9715,8637C9609,8690,9570,8754,9590,8848C9609,8935,9663,8970,9777,8970C9901,8970,9943,8931,9962,8802L9973,8720L10229,8722L10485,8725L10484,8815C10483,8865,10477,8925,10470,8949C10420,9133,10286,9253,10065,9311C9974,9335,9712,9345,9603,9330Z" fill="rgb(255,244,244)" stroke="none" stroke-width="1"/><path id="e4iQS6B3qym10" d="M12805,9326C12738,9308,12706,9295,12662,9265C12605,9226,12521,9140,12491,9090L12465,9045L12460,9165L12455,9285L12172,9288L11890,9290L11892,8318L11895,7345L12185,7345L12475,7345L12480,7955C12485,8553,12485,8566,12506,8611C12537,8677,12597,8734,12666,8761C12718,8781,12743,8784,12875,8785L13025,8786L13028,9049C13030,9235,13027,9317,13019,9326C13004,9344,12875,9343,12805,9326Z" fill="rgb(255,244,244)" stroke="none" stroke-width="1"/><path id="e4iQS6B3qym11" d="M15642,9330C15401,9296,15224,9175,15127,8980C15046,8815,15020,8662,15020,8355C15020,7881,15082,7642,15248,7474C15314,7408,15452,7337,15558,7315C15657,7295,15972,7294,16068,7315C16391,7382,16551,7597,16579,7997C16583,8062,16585,8121,16582,8128C16579,8138,16519,8140,16311,8138L16045,8135L16038,8030C16020,7776,15963,7680,15829,7680C15650,7680,15601,7837,15613,8378C15621,8733,15642,8843,15719,8914C15762,8955,15848,8962,15914,8930C15952,8912,15964,8898,15989,8847C16021,8782,16040,8691,16040,8603L16040,8550L16311,8550L16583,8550L16577,8673C16562,9028,16409,9230,16095,9311C16003,9334,15749,9345,15642,9330Z" fill="rgb(255,244,244)" stroke="none" stroke-width="1"/><path id="e4iQS6B3qym12" d="M21162,9330C21068,9317,20994,9293,20909,9249C20818,9202,20762,9156,20711,9086C20592,8925,20541,8715,20540,8385C20540,7770,20644,7498,20931,7366C21049,7312,21123,7300,21332,7300C21481,7300,21531,7304,21600,7320C21828,7375,21974,7506,22044,7719C22070,7796,22089,7905,22090,7973L22090,8010L21815,8010L21540,8010L21540,7963C21540,7894,21515,7786,21488,7739C21441,7655,21337,7631,21247,7683C21160,7734,21137,7810,21136,8050L21135,8215L21618,8218C22024,8220,22102,8222,22106,8234C22116,8259,22091,8681,22075,8768C22017,9087,21868,9256,21591,9316C21510,9334,21248,9342,21162,9330ZM21438,8950C21460,8937,21480,8911,21495,8877C21522,8818,21543,8689,21538,8615L21535,8565L21335,8565L21135,8565L21136,8655C21139,8824,21168,8904,21245,8947C21299,8977,21391,8979,21438,8950Z" fill="rgb(255,244,244)" stroke="none" stroke-width="1"/><path id="e4iQS6B3qym13" d="M10613,9283C10603,9280,10600,9229,10600,9079L10600,8880L10715,8880L10830,8880L10830,8368C10831,7615,10842,7517,10941,7418C11012,7347,11080,7329,11300,7323C11493,7317,11678,7331,11691,7352C11702,7368,11703,7711,11692,7725C11688,7731,11646,7735,11598,7736C11504,7737,11475,7748,11443,7797C11426,7822,11425,7864,11425,8350L11425,8875L11558,8878C11630,8879,11691,8884,11692,8888C11699,8923,11695,9268,11687,9278C11680,9287,11563,9290,11151,9289C10862,9289,10619,9286,10613,9283Z" fill="rgb(255,244,244)" stroke="none" stroke-width="1"/><path id="e4iQS6B3qym14" d="M13224,9277C13221,9269,13221,8906,13223,8469C13226,7607,13224,7646,13283,7516C13356,7356,13562,7268,13794,7298C13959,7319,14064,7374,14141,7480C14165,7513,14188,7540,14192,7540C14197,7540,14200,7495,14200,7440L14200,7340L14483,7342L14765,7345L14765,8315L14765,9285L14473,9288L14180,9290L14180,8653C14179,8302,14177,7997,14174,7975C14165,7900,14148,7852,14117,7815C14039,7720,13895,7728,13836,7830C13815,7864,13815,7881,13810,8575L13805,9285L13517,9288C13283,9290,13229,9288,13224,9277Z" fill="rgb(255,244,244)" stroke="none" stroke-width="1"/><path id="e4iQS6B3qym15" d="M16653,9283C16643,9280,16640,9229,16640,9079L16640,8880L16760,8880C16876,8880,16880,8879,16885,8858C16888,8845,16891,8563,16893,8230C16896,7690,16898,7619,16913,7565C16950,7439,17012,7375,17130,7343C17183,7328,17236,7325,17420,7325C17652,7325,17735,7332,17743,7353C17745,7360,17745,7448,17742,7550L17737,7735L17656,7736C17567,7736,17528,7750,17498,7790C17481,7813,17480,7847,17480,8325C17480,8606,17480,8845,17480,8858C17480,8880,17482,8880,17610,8880L17740,8880L17738,9083L17735,9285L17200,9287C16906,9288,16659,9286,16653,9283Z" fill="rgb(255,244,244)" stroke="none" stroke-width="1"/><path id="e4iQS6B3qym16" d="M17957,9283C17947,9274,17949,7368,17958,7352C17965,7343,18031,7340,18256,7342L18545,7345L18545,8315L18545,9285L18254,9288C18094,9289,17961,9287,17957,9283Z" fill="rgb(255,244,244)" stroke="none" stroke-width="1"/><path id="e4iQS6B3qym17" d="M18760,9273C18760,9263,18789,9139,18825,8995C19058,8054,19172,7590,19195,7485C19210,7419,19227,7359,19233,7353C19240,7343,19322,7340,19580,7340C19838,7340,19920,7343,19927,7353C19933,7359,19965,7482,20000,7625C20034,7768,20097,8022,20140,8190C20215,8482,20401,9236,20408,9273C20411,9289,20392,9290,20116,9290L19820,9290L19815,9268C19812,9255,19796,9155,19780,9045C19763,8935,19725,8699,19696,8520C19666,8341,19632,8126,19619,8042C19606,7958,19593,7895,19589,7902C19585,7909,19566,8025,19545,8160C19525,8295,19504,8425,19498,8450C19493,8475,19462,8669,19430,8882C19398,9095,19369,9274,19365,9279C19361,9286,19260,9290,19059,9290C18784,9290,18760,9289,18760,9273Z" fill="rgb(255,244,244)" stroke="none" stroke-width="1"/><path id="e4iQS6B3qym18" d="M4053,6952L4001,6949L3998,6862C3996,6814,3996,6711,3998,6633L4001,6492L8763,6497C13479,6501,13526,6502,13587,6521C13739,6570,13870,6731,13886,6889L13893,6950L10814,6951C9121,6951,6918,6952,5920,6953C4922,6954,4082,6954,4053,6952Z" fill="rgb(255,244,244)" stroke="none" stroke-width="1"/><path id="e4iQS6B3qym19" d="M17320,6938C17221,6871,17201,6656,17284,6548C17338,6476,17425,6461,17487,6514C17513,6537,17514,6538,17497,6564L17479,6591L17453,6570C17380,6513,17310,6588,17310,6725C17310,6861,17380,6937,17453,6880L17478,6860L17495,6887C17513,6913,17512,6914,17486,6937C17448,6969,17367,6969,17320,6938Z" fill="rgb(255,244,244)" stroke="none" stroke-width="1"/><path id="e4iQS6B3qym20" d="M17759,6937C17703,6900,17679,6826,17683,6710C17685,6631,17690,6608,17710,6571C17746,6508,17781,6485,17841,6486C17901,6487,17935,6509,17970,6571C17992,6611,17995,6626,17995,6725C17995,6827,17993,6838,17967,6882C17952,6909,17926,6937,17910,6945C17866,6968,17799,6964,17759,6937ZM17884,6876C17919,6842,17936,6752,17922,6671C17908,6588,17884,6555,17839,6555C17794,6555,17765,6598,17756,6680C17743,6795,17783,6900,17840,6900C17852,6900,17871,6889,17884,6876Z" fill="rgb(255,244,244)" stroke="none" stroke-width="1"/><path id="e4iQS6B3qym21" d="M18751,6934C18712,6901,18695,6844,18710,6791C18720,6752,18740,6731,18810,6687C18855,6658,18872,6625,18859,6591C18853,6577,18843,6562,18837,6558C18817,6545,18775,6549,18754,6565C18728,6585,18723,6584,18704,6555C18688,6531,18688,6528,18706,6515C18766,6469,18858,6476,18903,6530C18958,6595,18942,6691,18870,6737C18795,6784,18780,6800,18780,6834C18780,6889,18821,6913,18874,6889C18894,6880,18903,6880,18915,6890C18956,6924,18914,6960,18830,6960C18793,6960,18775,6954,18751,6934Z" fill="rgb(255,244,244)" stroke="none" stroke-width="1"/><path id="e4iQS6B3qym22" d="M21400,6934C21301,6850,21291,6628,21383,6533C21438,6475,21510,6467,21572,6513C21605,6537,21605,6538,21579,6569L21559,6593L21537,6571C21494,6532,21446,6550,21410,6620C21403,6634,21397,6679,21397,6725C21397,6771,21403,6816,21410,6830C21445,6899,21499,6920,21535,6880L21553,6860L21577,6882C21607,6910,21606,6917,21568,6940C21518,6970,21440,6967,21400,6934Z" fill="rgb(255,244,244)" stroke="none" stroke-width="1"/><path id="e4iQS6B3qym23" d="M14194,6937C14192,6930,14191,6830,14192,6715L14195,6505L14483,6502L14770,6500L14770,6725L14770,6950L14485,6950C14263,6950,14198,6947,14194,6937Z" fill="rgb(255,244,244)" stroke="none" stroke-width="1"/><path id="e4iQS6B3qym24" d="M15217,6937C15209,6916,15211,6514,15220,6500C15224,6494,15240,6490,15256,6492L15285,6495L15288,6588L15291,6680L15340,6680C15400,6680,15444,6713,15461,6770C15484,6847,15451,6918,15382,6938C15327,6955,15224,6954,15217,6937ZM15380,6860C15403,6837,15405,6809,15389,6777C15373,6747,15361,6740,15323,6740L15290,6740L15290,6810L15290,6880L15325,6880C15347,6880,15368,6872,15380,6860Z" fill="rgb(255,244,244)" stroke="none" stroke-width="1"/><path id="e4iQS6B3qym25" d="M15670,6719L15670,6489L15703,6492L15735,6495L15737,6654C15738,6741,15741,6814,15743,6816C15745,6819,15764,6752,15785,6668C15806,6584,15827,6509,15833,6503C15838,6496,15852,6490,15865,6490C15885,6490,15891,6504,15931,6655C15955,6746,15978,6820,15983,6820C15987,6820,15990,6747,15988,6658L15985,6495L16020,6495L16055,6495L16055,6720L16055,6945L16003,6948L15951,6951L15940,6908C15914,6807,15869,6644,15864,6630C15860,6622,15839,6685,15815,6771C15792,6857,15770,6932,15766,6938C15762,6945,15739,6950,15714,6950L15670,6950L15670,6719Z" fill="rgb(255,244,244)" stroke="none" stroke-width="1"/><path id="e4iQS6B3qym26" d="M16633,6940C16568,6920,16530,6836,16560,6780C16568,6765,16564,6752,16539,6717C16501,6662,16494,6584,16525,6550C16553,6519,16609,6506,16663,6518C16694,6524,16722,6524,16749,6517C16778,6509,16796,6509,16814,6518C16853,6536,16847,6558,16803,6562L16765,6565L16765,6620C16766,6711,16775,6730,16814,6730C16836,6730,16850,6736,16854,6746C16863,6770,16863,6770,16824,6770C16789,6770,16788,6771,16792,6800C16796,6824,16793,6830,16783,6825C16775,6822,16762,6820,16755,6820C16747,6820,16740,6810,16738,6798C16735,6778,16728,6775,16682,6772C16651,6770,16622,6774,16614,6781C16596,6796,16596,6840,16615,6867C16634,6894,16692,6907,16725,6892C16745,6882,16749,6884,16755,6907C16758,6921,16759,6935,16756,6937C16746,6947,16664,6949,16633,6940ZM16720,6712C16720,6675,16696,6575,16686,6568C16680,6564,16658,6560,16638,6560C16555,6560,16534,6640,16598,6713C16609,6725,16628,6730,16667,6730C16712,6730,16720,6727,16720,6712Z" fill="rgb(255,244,244)" stroke="none" stroke-width="1"/><path id="e4iQS6B3qym27" d="M18210,6720L18210,6489L18243,6492L18275,6495L18275,6642C18275,6722,18278,6791,18281,6794C18284,6798,18314,6732,18347,6648L18407,6495L18448,6492L18490,6489L18490,6720L18490,6951L18463,6948L18435,6945L18430,6785C18425,6643,18423,6628,18412,6655C18405,6672,18375,6744,18346,6815L18294,6945L18252,6948L18210,6951L18210,6720Z" fill="rgb(255,244,244)" stroke="none" stroke-width="1"/><path id="e4iQS6B3qym28" d="M19134,6936C19131,6928,19130,6843,19132,6746C19135,6588,19137,6569,19156,6543C19220,6456,19344,6465,19393,6561C19408,6590,19410,6619,19408,6770L19405,6945L19373,6948L19341,6951L19338,6772C19335,6610,19333,6590,19316,6571C19285,6537,19239,6546,19218,6590C19203,6619,19200,6653,19200,6788L19200,6950L19170,6950C19153,6950,19137,6944,19134,6936Z" fill="rgb(255,244,244)" stroke="none" stroke-width="1"/><path id="e4iQS6B3qym29" d="M19640,6720L19640,6490L19740,6490L19840,6490L19840,6525L19840,6560L19775,6560L19710,6560L19710,6755L19710,6950L19675,6950L19640,6950L19640,6720Z" fill="rgb(255,244,244)" stroke="none" stroke-width="1"/><path id="e4iQS6B3qym30" d="M19960,6915C19960,6881,19961,6880,20000,6880L20040,6880L20042,6688L20045,6495L20080,6495L20115,6495L20118,6688L20120,6880L20161,6880C20200,6880,20201,6881,20198,6913L20195,6945L20078,6948L19960,6951L19960,6915Z" fill="rgb(255,244,244)" stroke="none" stroke-width="1"/><path id="e4iQS6B3qym31" d="M20436,6928C20417,6858,20330,6509,20330,6500C20330,6495,20346,6490,20365,6490C20396,6490,20400,6493,20409,6528C20415,6548,20420,6571,20420,6578C20420,6586,20440,6590,20485,6590C20547,6590,20550,6589,20556,6563C20568,6505,20579,6490,20608,6490C20624,6490,20639,6492,20641,6494C20643,6497,20621,6599,20590,6722L20535,6945L20489,6948C20448,6951,20442,6948,20436,6928ZM20515,6771C20524,6724,20534,6680,20537,6673C20541,6663,20529,6660,20490,6660L20438,6660L20444,6693C20466,6806,20483,6871,20490,6863C20495,6859,20506,6817,20515,6771Z" fill="rgb(255,244,244)" stroke="none" stroke-width="1"/><path id="e4iQS6B3qym32" d="M20830,6720L20830,6490L20860,6490L20890,6490L20890,6647C20890,6733,20893,6800,20897,6796C20901,6792,20932,6723,20966,6642L21026,6495L21066,6495L21105,6495L21105,6720L21105,6945L21078,6948L21050,6951L21050,6796C21050,6710,21046,6640,21042,6640C21038,6640,21019,6677,21001,6723C20982,6768,20954,6838,20938,6878L20908,6950L20869,6950L20830,6950L20830,6720Z" fill="rgb(255,244,244)" stroke="none" stroke-width="1"/><path id="e4iQS6B3qym33" d="M21740,6937C21740,6929,21763,6867,21791,6799C21838,6685,21842,6669,21843,6585L21845,6495L21880,6495L21915,6495L21921,6595C21927,6687,21931,6705,21979,6815C22007,6881,22030,6938,22030,6943C22030,6948,22014,6950,21993,6948L21957,6945L21922,6847C21903,6794,21885,6752,21882,6755C21879,6757,21862,6801,21845,6852C21813,6945,21813,6945,21776,6948C21750,6950,21740,6947,21740,6937Z" fill="rgb(255,244,244)" stroke="none" stroke-width="1"/></g></svg>