<svg id="efqhWHDFZ5k1" xmlns="http://www.w3.org/2000/svg" xmlns:xlink="http://www.w3.org/1999/xlink" viewBox="0 0 2048 2048" shape-rendering="geometricPrecision" text-rendering="geometricPrecision"><g id="efqhWHDFZ5k2" transform="matrix(0.01950520323627 0 0 -0.01921674289364 823.78121263499997 1221.69278674499992)"><path id="efqhWHDFZ5k3" d="M9660,18059C9153,18011,8825,17959,8430,17864C6329,17357,4521,15982,3463,14088C3239,13687,3058,13282,2904,12840C2343,11224,2334,9442,2880,7810C3134,7050,3523,6305,4008,5650C4448,5057,5043,4460,5610,4044C5816,3893,5850,3869,5990,3777C6730,3293,7531,2942,8375,2732C8534,2692,8822,2632,8953,2611C9498,2524,9711,2507,10265,2506C10724,2506,10848,2513,11240,2561C12983,2775,14618,3589,15851,4857C16973,6011,17704,7464,17960,9052C18030,9487,18053,9797,18053,10290C18053,10783,18030,11093,17960,11528C17862,12135,17706,12691,17475,13255C17302,13677,17015,14219,16768,14589C16456,15054,16167,15405,15761,15810C15376,16194,15042,16469,14610,16759C13629,17418,12548,17834,11370,18004C10998,18058,10787,18070,10240,18069C9968,18068,9707,18064,9660,18059ZM10673,17630C11732,17566,12698,17305,13615,16835C13791,16744,13821,16728,14003,16622C14666,16235,15311,15694,15846,15075C16507,14311,17024,13364,17314,12387C17635,11306,17702,10161,17510,9033C17328,7968,16900,6939,16266,6045C15831,5431,15279,4863,14675,4409C14131,3999,13491,3649,12839,3404C12189,3160,11557,3022,10795,2958C10599,2942,9932,2942,9735,2959C9167,3006,8714,3088,8220,3230C6288,3788,4645,5143,3729,6935C3335,7706,3088,8495,2981,9323C2933,9690,2926,9817,2925,10280C2925,10720,2931,10837,2966,11140C3097,12251,3462,13282,4058,14225C4473,14880,5027,15503,5640,16001C6588,16773,7756,17309,8955,17524C9515,17624,10135,17662,10673,17630Z" fill="rgb(0,0,0)" stroke="none" stroke-width="1"/><path id="efqhWHDFZ5k4" d="M9848,17142L9750,17126L9750,16629C9750,16290,9747,16129,9739,16125C9734,16121,9692,16117,9647,16115C9602,16114,9552,16107,9536,16101C9486,16081,9459,16101,9391,16206C9252,16418,9132,16492,8930,16491C8878,16490,8813,16486,8785,16481C8688,16465,8150,16335,8150,16329C8150,16325,8171,16299,8196,16271C8294,16162,8382,16148,8610,16204C8813,16253,8922,16267,9004,16252C9091,16236,9150,16209,9200,16164C9257,16113,9265,16094,9246,16065C9227,16036,9216,16033,8938,15975C8621,15908,8433,15863,8257,15814C8171,15790,8094,15770,8087,15770C8058,15770,8030,15822,7977,15980C7904,16199,7843,16355,7825,16370C7813,16380,7791,16365,7703,16289C7398,16027,7336,15920,7361,15703C7370,15620,7433,15319,7445,15299C7458,15278,7521,15293,7689,15356C8107,15514,8956,15778,9208,15830C9381,15865,9478,15853,9615,15781C9684,15745,9852,15699,9866,15713C9878,15725,9858,15738,9771,15775C9721,15795,9673,15821,9664,15832C9647,15850,9647,15852,9668,15873C9689,15893,9704,15896,9893,15904C10112,15914,10481,15901,10690,15875C11198,15813,11620,15758,11646,15749C11675,15740,11678,15735,11683,15681C11701,15514,11797,15392,11950,15340C12093,15292,12253,15332,12355,15441L12403,15492L12459,15470C12490,15457,12563,15423,12622,15393C12726,15342,12762,15332,12786,15348C12800,15357,13088,15807,13195,15988C13239,16061,13312,16171,13357,16232C13404,16295,13440,16353,13440,16365C13440,16407,13301,16498,13256,16486C13242,16482,13146,16347,12971,16084C12825,15867,12693,15678,12677,15664C12661,15651,12641,15640,12632,15640C12623,15640,12581,15657,12540,15678L12465,15715L12459,15766C12446,15872,12377,15978,12282,16039C12143,16128,11941,16113,11823,16006C11776,15964,11754,15962,11676,15991L11620,16013L11620,16296L11620,16580L11505,16580C11392,16580,11390,16580,11390,16558C11390,16503,11377,16065,11376,16063C11374,16060,11213,16077,11158,16086L11120,16092L11120,16311C11120,16500,11118,16530,11105,16530C11090,16530,10922,16494,10888,16484C10872,16479,10870,16461,10870,16293L10870,16108L10738,16115C10665,16119,10604,16123,10603,16124C10602,16125,10598,16195,10593,16281L10585,16436L10468,16411L10350,16385L10350,16270L10350,16155L10194,16155C10052,16155,10037,16157,10024,16174C10013,16189,10010,16230,10010,16345C10010,16429,10007,16646,10003,16828L9997,17160L9971,17159C9957,17158,9901,17150,9848,17142ZM7813,15861C7840,15788,7858,15724,7853,15720C7833,15701,7588,15618,7579,15627C7573,15633,7566,15662,7563,15692C7552,15799,7608,15914,7699,15972C7724,15987,7749,15999,7754,15997C7759,15995,7786,15934,7813,15861ZM12159,15843C12257,15770,12254,15633,12153,15573C12045,15510,11917,15584,11916,15712C11916,15832,12065,15912,12159,15843Z" fill="rgb(0,0,0)" stroke="none" stroke-width="1"/><path id="efqhWHDFZ5k5" d="M7395,16681C7265,16621,7258,16450,7383,16379C7414,16362,7433,16359,7476,16362C7537,16367,7572,16388,7608,16441C7628,16470,7631,16485,7628,16535C7623,16609,7595,16654,7536,16681C7484,16704,7446,16704,7395,16681Z" fill="rgb(0,0,0)" stroke="none" stroke-width="1"/><path id="efqhWHDFZ5k6" d="M7065,16434C6996,16398,6970,16355,6970,16277C6970,16211,6997,16166,7055,16133C7152,16078,7268,16129,7301,16240C7340,16370,7186,16497,7065,16434Z" fill="rgb(0,0,0)" stroke="none" stroke-width="1"/><path id="efqhWHDFZ5k7" d="M13692,16193C13681,16183,13587,16040,13482,15875C13378,15710,13238,15488,13171,15382C13103,15276,13049,15187,13051,15186C13077,15163,13210,15090,13225,15090C13256,15090,13263,15098,13339,15222C13378,15287,13496,15471,13601,15632C13867,16040,13870,16044,13870,16072C13870,16101,13838,16136,13772,16180C13719,16215,13718,16215,13692,16193Z" fill="rgb(0,0,0)" stroke="none" stroke-width="1"/><path id="efqhWHDFZ5k8" d="M6455,16081C6395,16054,6350,16012,6350,15984C6350,15947,6573,15621,6883,15205C7031,15006,7037,15000,7071,15000C7102,15000,7165,15049,7175,15080C7185,15110,7116,15224,6832,15650C6594,16006,6525,16100,6502,16100C6498,16100,6477,16091,6455,16081Z" fill="rgb(0,0,0)" stroke="none" stroke-width="1"/><path id="efqhWHDFZ5k9" d="M5989,15752C5929,15712,5870,15652,5870,15630C5870,15616,5943,15517,6062,15366C6243,15138,6324,15036,6395,14945C6466,14855,6467,14830,6403,14790C6375,14772,6349,14762,6340,14766C6332,14770,6296,14779,6262,14787C6142,14813,6009,14770,5917,14678C5854,14614,5822,14552,5808,14466C5796,14396,5808,14302,5835,14248C5850,14218,5849,14217,5811,14179C5787,14155,5763,14140,5748,14140C5724,14140,5596,14226,5437,14348C5399,14376,5363,14400,5356,14400C5337,14400,5133,14128,4929,13831C4742,13559,4714,13529,4667,13551C4653,13557,4630,13560,4616,13556C4585,13548,4500,13446,4500,13416C4500,13387,4516,13373,4625,13309C4832,13188,4950,13108,4966,13078C4981,13049,4980,13046,4919,12924C4885,12856,4851,12800,4844,12800C4836,12800,4805,12811,4773,12825C4684,12865,4664,12859,4618,12775C4557,12663,4557,12663,4740,12563C4825,12517,4943,12454,5002,12424C5147,12349,5194,12300,5206,12208C5210,12178,5206,12147,5191,12105C5165,12032,5165,12030,5190,12030C5201,12030,5232,12051,5259,12078C5316,12132,5337,12189,5347,12310C5358,12460,5304,12553,5162,12628C5092,12665,5082,12680,5097,12720C5109,12752,5442,13283,5573,13480C5681,13642,5736,13718,5888,13913C5975,14025,6007,14059,6019,14054C6091,14023,6123,14017,6195,14017C6366,14018,6499,14111,6559,14273C6584,14342,6587,14457,6565,14520C6557,14543,6553,14568,6558,14575C6562,14581,6612,14631,6670,14685C6728,14738,6778,14790,6781,14799C6785,14808,6783,14826,6778,14839C6769,14864,6135,15665,6071,15733C6031,15775,6025,15777,5989,15752ZM6281,14536C6368,14477,6374,14344,6294,14281C6228,14229,6145,14234,6083,14293C5978,14392,6048,14560,6195,14560C6232,14560,6255,14553,6281,14536ZM5489,13984L5599,13918L5517,13811C5472,13752,5361,13609,5271,13493L5106,13282L5040,13333C5004,13362,4962,13395,4946,13407L4918,13429L5009,13552C5059,13620,5162,13759,5238,13862C5313,13965,5376,14049,5377,14050C5378,14050,5428,14020,5489,13984Z" fill="rgb(0,0,0)" stroke="none" stroke-width="1"/><path id="efqhWHDFZ5k10" d="M10273,15107L10275,14688L10307,14660C10341,14630,10395,14610,10444,14610C10462,14610,10470,14606,10464,14601C10451,14588,10266,14570,10145,14570C10087,14570,10040,14566,10040,14561C10040,14532,10136,14490,10233,14475L10270,14469L10270,13420L10270,12370L10197,12370C9904,12370,9511,12257,9219,12089L9163,12057L8854,12325C8684,12473,8475,12655,8390,12729C8305,12803,8233,12865,8231,12867C8229,12868,8253,12898,8283,12933C8333,12989,8338,12998,8325,13011C8312,13024,8315,13032,8355,13079C8401,13133,8408,13156,8390,13191C8376,13216,8324,13243,8302,13236C8293,13233,8241,13178,8186,13115C8132,13052,8084,13000,8081,13000C8077,13000,8064,13010,8052,13023C8034,13042,8033,13049,8043,13059C8057,13074,8065,13066,7770,13323L7575,13492L7527,13439C7500,13409,7465,13369,7450,13349L7421,13313L7655,13110C7784,12998,7890,12904,7890,12901C7890,12898,7870,12873,7846,12845L7802,12795L7762,12830C7740,12849,7721,12869,7721,12873C7719,12892,7549,13050,7320,13246C7012,13510,6975,13540,6967,13540C6963,13540,6827,13614,6663,13705C6500,13796,6365,13868,6362,13865C6360,13863,6365,13830,6374,13793C6409,13654,6516,13472,6646,13333C6706,13268,7397,12671,7425,12660C7436,12655,7475,12626,7513,12595L7580,12538L7548,12499C7530,12477,7503,12443,7487,12423L7460,12387L7482,12363C7494,12350,7511,12340,7519,12340C7528,12340,7563,12374,7598,12415L7662,12490L7703,12455C7725,12436,7754,12420,7767,12420C7784,12420,7790,12414,7791,12398C7791,12369,7866,12307,7892,12313C7905,12317,7910,12312,7910,12297C7910,12271,7980,12210,8009,12210C8022,12210,8030,12202,8032,12188C8036,12161,8115,12099,8135,12106C8145,12110,8150,12106,8150,12092C8150,12068,8225,12000,8252,12000C8262,12000,8270,11994,8270,11987C8270,11974,8395,11843,8499,11748C8588,11665,8596,11667,8703,11789L8742,11832L8778,11814C8799,11803,8817,11794,8819,11793C8821,11792,8790,11756,8750,11713C8524,11472,8357,11175,8261,10845C8212,10675,8196,10547,8196,10313L8195,10090L6763,10090L5331,10090L5163,10170C4974,10261,4973,10265,5174,10086L5294,9980L6752,9980C7554,9980,8210,9978,8210,9976C8210,9974,8217,9936,8225,9893C8233,9850,8240,9812,8240,9808C8240,9803,7819,9800,7305,9800L6369,9800L6203,9880C6112,9924,6035,9959,6034,9957C6032,9955,6094,9897,6171,9827L6312,9700L7293,9698L8273,9695L8296,9628C8308,9592,8321,9552,8325,9541L8331,9520L7547,9520L6762,9520L6596,9599C6505,9643,6430,9677,6430,9676C6430,9674,6493,9616,6570,9546L6709,9420L7542,9420L8375,9420L8422,9330L8470,9240L7797,9240L7124,9240L7029,9286C6874,9362,6784,9401,6807,9383C6818,9373,6887,9312,6958,9248L7088,9130L7364,9130C7516,9130,7640,9127,7640,9124C7640,9121,7630,9110,7618,9100L7595,9082L7619,9057L7642,9031L7606,8995C7575,8964,7570,8953,7570,8912C7570,8871,7580,8848,7645,8740C7686,8671,7719,8608,7717,8600C7716,8589,7693,8582,7639,8575L7562,8565L7144,8190C6913,7984,6684,7777,6635,7730C6585,7683,6481,7587,6402,7516C6240,7370,6205,7322,6212,7256C6219,7193,6257,7127,6403,6915C6476,6811,6567,6678,6605,6620C6678,6511,6709,6484,6754,6496C6780,6502,6934,6625,7010,6701C7035,6726,7135,6856,7233,6990C7564,7448,7748,7675,7847,7752L7900,7792L7982,7784C8128,7770,8168,7782,8272,7872C8336,7927,8370,7976,8370,8011C8370,8024,8347,8076,8319,8125C8291,8175,8255,8241,8239,8273L8210,8330L8251,8393C8298,8464,8305,8471,8457,8586C8630,8717,8657,8760,8625,8853L8609,8900L8637,8925C8652,8938,8667,8950,8670,8950C8673,8950,8704,8919,8739,8880C8810,8801,8961,8668,9065,8593C9324,8407,9663,8273,9987,8229L10079,8216L10021,8161C9935,8077,9915,8029,9915,7900C9915,7799,9916,7792,9949,7732C10005,7628,10088,7570,10215,7544C10271,7533,10263,7532,10093,7531C9924,7530,9908,7528,9890,7510C9865,7485,9864,7448,9888,7427C9904,7412,9933,7410,10088,7410L10270,7410L10272,6555L10275,5701L10325,5732C10383,5768,10515,5827,10613,5860L10681,5883L10647,5895C10557,5926,10494,5990,10457,6087C10435,6144,10435,6152,10435,6775L10435,7405L10540,7410C10641,7415,10645,7416,10659,7442C10673,7467,10673,7471,10654,7497C10634,7524,10629,7525,10531,7528C10433,7531,10430,7531,10430,7554C10430,7570,10443,7586,10471,7605C10618,7708,10665,7910,10578,8073C10550,8125,10480,8200,10458,8200C10454,8200,10450,8204,10450,8208C10450,8212,10503,8223,10568,8233C11023,8299,11427,8506,11759,8844L11862,8949L11895,8923C11927,8897,11928,8895,11914,8869C11893,8827,11896,8762,11923,8723C11935,8704,12007,8642,12082,8584C12158,8525,12233,8462,12248,8441C12283,8397,12320,8336,12320,8324C12320,8319,12286,8254,12245,8180C12147,8002,12146,7993,12237,7899C12305,7828,12379,7783,12435,7778C12452,7777,12502,7779,12547,7784C12621,7791,12633,7790,12662,7772C12760,7711,12967,7455,13395,6865C13533,6675,13729,6497,13801,6497C13842,6497,13871,6527,13958,6660C13999,6723,14085,6852,14150,6945C14287,7143,14322,7207,14322,7264C14323,7326,14301,7359,14173,7477C14109,7536,14017,7622,13970,7666C13923,7711,13679,7932,13427,8158L12969,8567L12897,8576C12841,8583,12824,8589,12822,8603C12820,8612,12851,8675,12892,8743C12955,8848,12965,8871,12965,8912C12965,8952,12960,8964,12931,8994C12897,9029,12897,9029,12914,9055C12931,9081,12931,9083,12909,9106L12887,9130L13166,9130L13445,9130L13585,9256C13662,9325,13730,9386,13735,9391C13746,9402,13562,9317,13478,9273L13425,9245L12747,9240C12375,9237,12070,9238,12070,9243C12070,9247,12091,9288,12116,9335L12162,9420L12996,9420L13831,9420L13970,9546C14047,9616,14110,9675,14110,9676C14110,9678,14035,9643,13944,9599L13778,9520L12989,9520L12201,9520L12233,9610L12265,9700L13242,9700L14220,9700L14360,9826C14437,9896,14500,9954,14500,9956C14500,9961,14456,9941,14315,9870L14185,9805L13236,9802C12441,9800,12289,9802,12293,9813C12296,9821,12304,9861,12311,9903L12324,9980L13786,9980C15121,9980,15249,9981,15261,9996C15268,10005,15334,10066,15407,10131C15480,10197,15538,10250,15536,10250C15534,10250,15458,10214,15367,10170L15202,10090L13771,10090L12341,10090L12347,10218C12372,10755,12156,11326,11778,11718C11739,11758,11709,11792,11711,11793C11713,11794,11732,11804,11753,11814L11792,11834L11857,11762C11904,11709,11928,11690,11947,11690C11963,11690,11998,11713,12052,11763C12096,11802,12140,11844,12149,11855C12158,11866,12189,11898,12219,11927C12248,11955,12269,11983,12265,11989C12261,11996,12268,12000,12282,12000C12311,12000,12380,12064,12380,12091C12380,12105,12387,12110,12408,12110C12440,12110,12500,12165,12500,12193C12500,12204,12508,12210,12523,12210C12552,12210,12631,12276,12628,12297C12626,12307,12633,12314,12646,12315C12676,12317,12739,12369,12746,12396C12750,12411,12759,12420,12772,12420C12783,12420,12810,12436,12833,12455C12855,12474,12877,12487,12880,12483C12883,12478,12914,12443,12949,12403L13012,12331L13041,12352C13057,12364,13070,12380,13070,12388C13070,12396,13045,12430,13015,12465C12985,12499,12960,12531,12961,12536C12962,12548,13095,12660,13108,12660C13114,12660,13187,12720,13272,12793C13357,12865,13473,12965,13530,13015C13588,13064,13637,13107,13640,13110C13643,13113,13688,13152,13741,13197C13915,13346,14027,13482,14101,13635C14135,13706,14184,13859,14175,13869C14173,13870,14041,13800,13882,13711C13723,13623,13584,13547,13574,13543C13558,13537,13434,13434,12993,13056C12947,13017,12910,12981,12910,12975C12909,12970,12889,12949,12865,12930C12840,12911,12820,12890,12820,12883C12820,12877,12800,12855,12776,12835L12732,12799L12691,12842C12669,12866,12650,12891,12650,12897C12650,12904,12754,13000,12880,13111C13007,13221,13110,13314,13110,13317C13110,13321,13038,13407,12974,13479C12963,13491,12938,13473,12818,13369C12482,13078,12481,13078,12494,13058C12503,13043,12500,13037,12480,13023C12466,13013,12453,13005,12450,13005C12447,13005,12398,13058,12341,13123C12274,13198,12231,13240,12218,13240C12193,13240,12130,13178,12130,13155C12130,13145,12150,13113,12175,13084C12219,13033,12230,13010,12210,13010C12190,13010,12201,12990,12250,12934C12278,12903,12300,12874,12300,12871C12300,12868,12207,12784,12093,12685C11979,12586,11778,12411,11645,12295C11513,12180,11397,12079,11389,12073C11376,12063,11345,12075,11209,12143C11073,12212,10950,12260,10793,12306C10783,12309,10780,12395,10780,12694C10780,13144,10793,13097,10645,13183L10555,13236L10552,13403L10550,13569L10704,13572L10859,13575L10821,13625C10800,13653,10730,13746,10666,13832L10550,13990L10550,14288C10550,14609,10543,14697,10505,14847C10485,14925,10386,15213,10286,15485C10272,15521,10271,15485,10273,15107ZM14069,13715C14026,13611,13937,13478,13848,13385C13765,13297,13089,12709,13058,12697C13046,12693,13006,12662,12969,12629L12900,12568L12960,12498C12994,12459,13019,12423,13017,12417C13015,12411,13006,12402,12996,12396C12982,12387,12971,12394,12930,12440C12904,12470,12875,12495,12866,12495C12858,12495,12845,12503,12838,12513C12826,12529,12821,12527,12779,12491C12754,12469,12726,12452,12716,12453C12704,12454,12696,12447,12694,12435C12690,12407,12622,12350,12593,12350C12577,12350,12570,12344,12570,12331C12570,12304,12494,12241,12469,12247C12455,12251,12450,12247,12450,12231C12450,12204,12382,12141,12353,12140C12337,12140,12330,12134,12330,12121C12330,12097,12260,12040,12231,12040C12217,12040,12210,12035,12212,12025C12214,12017,12193,11988,12165,11961C12138,11933,12106,11901,12094,11888C12057,11846,11929,11735,11915,11732C11902,11729,11888,11742,11818,11824L11793,11854L11765,11832C11719,11795,11702,11803,11617,11900C11548,11979,11536,11989,11518,11979C11502,11970,11489,11975,11444,12006C11414,12026,11390,12047,11390,12050C11390,12054,11418,12082,11453,12112C11487,12142,11693,12321,11910,12509C12127,12698,12309,12856,12314,12861C12319,12865,12299,12896,12269,12930C12224,12982,12218,12994,12227,13010C12237,13025,12232,13036,12189,13085C12137,13145,12134,13151,12150,13181C12162,13203,12216,13233,12230,13225C12237,13220,12428,13006,12447,12981C12449,12978,12466,12992,12485,13010C12508,13033,12517,13047,12510,13054C12505,13059,12500,13067,12500,13071C12500,13077,12902,13431,12942,13460C12965,13476,12954,13485,13056,13364L13098,13315L12873,13120C12729,12996,12641,12926,12629,12927C12618,12929,12610,12927,12610,12924C12610,12921,12636,12888,12667,12852C12699,12815,12726,12783,12727,12781C12731,12775,12814,12852,12827,12874C12833,12886,12862,12913,12892,12935C12921,12956,12963,12990,12985,13010C13008,13029,13050,13066,13080,13091C13284,13263,13512,13459,13550,13496C13605,13549,14093,13823,14098,13804C14100,13797,14087,13757,14069,13715ZM6698,13673C6834,13598,6959,13522,6975,13504C7016,13461,7616,12950,7626,12950C7631,12950,7672,12911,7718,12863L7803,12776L7824,12802C7835,12816,7865,12851,7890,12880C7923,12920,7929,12931,7913,12926C7892,12919,7856,12948,7565,13204C7527,13237,7482,13277,7466,13291L7436,13318L7504,13394C7542,13436,7576,13470,7581,13468C7604,13459,8038,13070,8030,13065C8011,13054,8020,13032,8053,13007L8087,12981L8195,13106C8254,13174,8308,13230,8315,13230C8338,13230,8390,13179,8390,13157C8390,13146,8368,13111,8341,13080C8298,13030,8293,13021,8306,13009C8318,12996,8314,12987,8270,12935C8243,12902,8220,12873,8220,12869C8220,12862,8361,12739,8979,12201C9071,12122,9146,12055,9147,12051C9148,12048,9124,12028,9092,12006C9046,11975,9032,11970,9018,11979C9008,11985,8999,11990,8997,11990C8995,11990,8959,11950,8916,11900C8872,11851,8829,11810,8820,11810C8810,11810,8791,11819,8777,11830C8763,11841,8748,11850,8743,11849C8739,11849,8713,11822,8686,11789C8659,11756,8631,11731,8624,11732C8611,11735,8481,11848,8446,11888C8434,11901,8403,11933,8375,11961C8348,11988,8326,12017,8328,12025C8330,12035,8323,12040,8308,12040C8280,12040,8210,12099,8210,12123C8210,12134,8202,12140,8188,12140C8158,12141,8090,12204,8090,12231C8090,12247,8085,12251,8071,12247C8046,12241,7970,12304,7970,12331C7970,12344,7963,12350,7947,12350C7918,12350,7850,12407,7846,12435C7844,12447,7836,12454,7824,12453C7814,12452,7788,12467,7766,12486C7722,12523,7705,12528,7696,12504C7692,12495,7683,12491,7672,12494C7659,12499,7642,12485,7610,12446C7562,12388,7550,12381,7530,12405C7516,12422,7519,12428,7588,12508C7618,12542,7641,12572,7639,12573C7637,12574,7605,12601,7569,12633C7532,12664,7493,12693,7482,12697C7451,12709,6847,13232,6729,13350C6611,13467,6521,13593,6471,13713C6441,13787,6435,13810,6445,13810C6448,13810,6562,13748,6698,13673ZM10600,12335C11038,12257,11414,12064,11721,11760C11897,11585,12017,11417,12126,11195C12288,10866,12359,10495,12331,10137C12267,9345,11773,8670,11037,8371C10412,8116,9693,8190,9125,8568C8622,8902,8296,9427,8214,10030C8198,10154,8196,10400,8210,10520C8258,10913,8409,11278,8650,11580C8729,11679,8894,11842,8996,11923C9269,12138,9640,12296,9975,12339C10019,12345,10069,12352,10085,12354C10155,12364,10509,12351,10600,12335ZM11580,11928C11631,11870,11622,11866,11561,11919C11533,11943,11520,11961,11524,11969C11529,11976,11533,11980,11534,11978C11536,11976,11556,11954,11580,11928ZM9020,11962C9020,11958,8994,11935,8963,11910L8905,11865L8948,11918C8987,11964,9020,11985,9020,11962ZM8594,9055C8625,9013,8653,8973,8656,8965C8660,8957,8649,8943,8628,8929L8594,8907L8613,8854C8625,8822,8630,8791,8626,8775C8616,8737,8560,8680,8447,8594C8314,8493,8287,8468,8239,8394L8199,8332L8241,8247C8290,8150,8289,8146,8212,8110C8169,8090,8156,8088,8059,8095C7929,8103,7923,8101,7819,7993C7702,7873,7567,7701,7315,7355C7239,7251,7154,7135,7127,7097C7078,7031,6907,6872,6840,6831C6790,6801,6759,6804,6723,6843C6707,6860,6636,6961,6566,7065C6496,7170,6412,7293,6379,7340L6319,7425L6362,7464C6386,7485,6459,7553,6524,7614C6590,7675,6852,7912,7108,8141L7572,8557L7636,8563C7746,8571,7751,8589,7671,8717C7565,8889,7557,8925,7616,8990C7652,9029,7652,9030,7635,9056C7619,9081,7619,9083,7641,9106L7663,9130L8101,9130L8538,9130L8594,9055ZM12894,9104L12922,9079L12899,9054L12876,9030L12912,8994C12979,8930,12973,8896,12868,8725C12803,8619,12794,8597,12814,8581C12821,8575,12859,8567,12896,8563L12965,8557L13155,8386C13260,8292,13410,8156,13490,8085C13570,8014,13637,7953,13640,7950C13643,7947,13686,7909,13735,7865C13785,7821,13861,7751,13905,7709C13949,7667,14035,7588,14095,7534C14156,7480,14206,7433,14208,7430C14209,7426,14162,7354,14103,7269C14043,7184,13959,7061,13916,6995C13789,6800,13763,6783,13682,6838C13564,6918,13453,7031,13335,7192C12932,7742,12802,7908,12680,8024L12598,8102L12481,8095C12373,8089,12360,8090,12317,8110C12244,8144,12244,8148,12289,8239C12312,8283,12330,8325,12330,8331C12330,8337,12311,8371,12288,8407C12254,8460,12220,8492,12097,8587C12016,8650,11940,8716,11929,8733C11906,8771,11905,8818,11925,8867L11940,8903L11906,8932L11871,8961L11933,9045L11995,9130L12430,9130L12865,9129L12894,9104ZM10460,8190C10634,8066,10662,7822,10520,7667C10449,7590,10371,7555,10265,7555C10198,7555,10175,7560,10122,7584C9877,7697,9848,8028,10070,8189C10106,8215,10108,8215,10269,8213C10414,8211,10434,8208,10460,8190ZM10632,7508C10656,7488,10660,7464,10644,7441C10629,7420,10624,7420,10266,7420C9883,7420,9880,7420,9880,7466C9880,7518,9896,7520,10270,7520C10532,7520,10620,7517,10632,7508Z" fill="rgb(0,0,0)" stroke="none" stroke-width="1"/><path id="efqhWHDFZ5k11" d="M13735,13539C13696,13504,13689,13467,13719,13450C13748,13435,13753,13437,13793,13474C13835,13513,13838,13522,13810,13550C13784,13576,13777,13575,13735,13539ZM13808,13524C13810,13510,13800,13493,13779,13476C13745,13447,13732,13447,13716,13473C13708,13486,13712,13496,13735,13520C13769,13555,13803,13557,13808,13524Z" fill="rgb(0,0,0)" stroke="none" stroke-width="1"/><path id="efqhWHDFZ5k12" d="M13417,13323C13128,13072,13044,12996,13037,12977C13022,12938,13079,12887,13115,12908C13124,12912,13239,13010,13370,13125C13573,13300,13610,13337,13610,13360C13610,13392,13582,13420,13552,13420C13539,13420,13485,13381,13417,13323ZM13585,13394C13594,13385,13600,13368,13598,13357C13596,13344,13510,13262,13380,13148C13102,12904,13105,12907,13080,12915C13050,12925,13036,12957,13052,12981C13075,13016,13534,13409,13552,13410C13561,13410,13576,13403,13585,13394Z" fill="rgb(0,0,0)" stroke="none" stroke-width="1"/><path id="efqhWHDFZ5k13" d="M12512,12844C12489,12825,12470,12804,12470,12800C12470,12795,12484,12774,12502,12754L12534,12718L12505,12694C12488,12681,12472,12670,12468,12670C12464,12670,12448,12686,12433,12705C12418,12724,12402,12740,12398,12740C12393,12740,12335,12692,12268,12633C12201,12573,12127,12509,12104,12490C11948,12357,11630,12076,11630,12070C11630,12064,11715,11953,11741,11926C11749,11917,11756,11922,11850,12010C11880,12039,11923,12074,11945,12088C11967,12103,12005,12131,12030,12151C12055,12172,12085,12188,12095,12187C12109,12186,12114,12190,12112,12202C12109,12223,12170,12273,12207,12280C12225,12283,12236,12293,12238,12305C12244,12335,12290,12379,12324,12388C12342,12393,12356,12404,12360,12417C12367,12444,12419,12487,12450,12492C12466,12494,12476,12502,12478,12516C12482,12542,12551,12600,12579,12600C12592,12600,12600,12606,12600,12618C12600,12627,12621,12654,12646,12676L12693,12718L12630,12791C12596,12832,12564,12868,12561,12873C12557,12877,12535,12864,12512,12844ZM12614,12793C12645,12756,12670,12722,12670,12718C12670,12714,12652,12696,12630,12679C12608,12661,12590,12638,12590,12628C12590,12616,12583,12610,12568,12610C12539,12610,12470,12545,12470,12519C12470,12505,12463,12500,12443,12500C12412,12500,12350,12446,12350,12418C12350,12406,12342,12400,12327,12400C12299,12400,12220,12330,12220,12305C12220,12294,12215,12290,12206,12293C12188,12300,12113,12245,12105,12220C12101,12209,12091,12200,12081,12200C12072,12200,12051,12186,12034,12169C12018,12152,11988,12130,11968,12119C11947,12108,11903,12073,11869,12040C11835,12007,11805,11980,11800,11980C11796,11980,11785,11971,11775,11960C11765,11949,11754,11940,11749,11940C11745,11940,11719,11969,11691,12005L11639,12071L11667,12094C11682,12107,11853,12256,12045,12423L12395,12729L12432,12687L12469,12645L12502,12675C12520,12691,12538,12707,12543,12711C12547,12714,12534,12735,12515,12758L12479,12799L12512,12829C12530,12846,12548,12860,12551,12860C12554,12860,12582,12830,12614,12793Z" fill="rgb(0,0,0)" stroke="none" stroke-width="1"/><path id="efqhWHDFZ5k14" d="M6728,13559C6699,13543,6707,13505,6745,13471C6786,13435,6800,13433,6824,13459C6848,13485,6838,13512,6792,13544C6749,13573,6751,13573,6728,13559ZM6791,13529C6823,13507,6830,13466,6804,13456C6785,13449,6720,13499,6720,13521C6720,13556,6749,13559,6791,13529Z" fill="rgb(0,0,0)" stroke="none" stroke-width="1"/><path id="efqhWHDFZ5k15" d="M6935,13396C6925,13381,6922,13363,6926,13349C6933,13323,7386,12922,7425,12906C7459,12892,7500,12922,7500,12960C7500,12986,7471,13015,7253,13204C6988,13434,6968,13447,6935,13396ZM7242,13198C7388,13070,7486,12977,7488,12964C7492,12935,7456,12904,7431,12916C7402,12929,6942,13331,6935,13348C6927,13369,6957,13410,6980,13410C6991,13410,7104,13319,7242,13198Z" fill="rgb(0,0,0)" stroke="none" stroke-width="1"/><path id="efqhWHDFZ5k16" d="M7911,12799L7841,12718L7885,12682C7909,12661,7929,12637,7929,12628C7930,12609,7946,12597,7973,12595C7997,12593,8048,12542,8052,12516C8054,12502,8065,12494,8088,12489C8127,12481,8180,12434,8180,12408C8180,12396,8187,12390,8201,12390C8229,12390,8298,12333,8302,12306C8304,12292,8314,12283,8332,12280C8368,12273,8420,12225,8420,12199C8420,12182,8425,12179,8441,12183C8455,12187,8473,12178,8498,12156C8518,12139,8555,12111,8580,12096C8604,12080,8646,12045,8672,12018C8697,11992,8723,11970,8729,11970C8735,11970,8747,11959,8756,11945C8765,11931,8776,11920,8780,11920C8795,11920,8912,12072,8903,12079C8899,12083,8825,12147,8740,12221C8655,12294,8583,12357,8580,12360C8577,12363,8490,12439,8385,12530C8281,12620,8182,12705,8167,12719L8139,12745L8104,12708C8085,12687,8066,12670,8062,12670C8057,12670,8043,12681,8031,12694C8006,12721,8010,12739,8049,12774C8061,12785,8070,12796,8070,12799C8070,12803,8050,12822,8026,12843L7981,12880L7911,12799ZM8020,12831L8055,12802L8021,12759L7986,12717L8026,12683L8065,12649L8102,12689L8140,12729L8267,12617C8338,12555,8499,12415,8625,12306C8752,12196,8864,12099,8874,12089C8893,12072,8892,12070,8844,12006C8817,11970,8792,11941,8788,11940C8779,11940,8754,11960,8687,12024C8658,12050,8617,12084,8595,12098C8573,12113,8534,12142,8507,12163C8480,12186,8454,12200,8445,12196C8435,12193,8430,12197,8430,12209C8430,12237,8353,12302,8329,12295C8315,12290,8310,12293,8310,12309C8310,12335,8253,12389,8218,12397C8202,12400,8190,12409,8190,12417C8190,12438,8118,12500,8093,12500C8077,12500,8070,12506,8070,12519C8070,12544,7990,12610,7961,12610C7947,12610,7940,12616,7940,12629C7940,12640,7922,12664,7899,12684L7858,12719L7916,12789C7949,12827,7977,12859,7980,12859C7983,12860,8001,12847,8020,12831Z" fill="rgb(0,0,0)" stroke="none" stroke-width="1"/><path id="efqhWHDFZ5k17" d="M10178,11915C10159,11906,10127,11904,10068,11907C9989,11912,9982,11911,9955,11888C9930,11866,9926,11855,9925,11810C9925,11749,9945,11726,9980,11748C10009,11766,10025,11763,10058,11735C10140,11666,10109,11453,9988,11255C9948,11191,9941,11185,9909,11182C9846,11177,9739,11209,9620,11269C9462,11349,9412,11364,9309,11365C9231,11365,9220,11363,9188,11338C9168,11323,9142,11289,9129,11263C9103,11210,9098,11155,9080,10735C9074,10592,9056,10180,9040,9820C9023,9460,9010,9159,9010,9153C9010,9110,9071,9155,9349,9401C9511,9543,9645,9659,9647,9656C9651,9652,9551,9289,9544,9281C9542,9279,9522,9282,9500,9288C9452,9300,9381,9281,9342,9247C9317,9224,9300,9174,9306,9139C9310,9119,9304,9112,9272,9097C9251,9088,9227,9068,9219,9054C9212,9040,9195,9024,9183,9019C9170,9014,9160,9004,9160,8996C9160,8977,9225,8878,9245,8867C9253,8863,9260,8848,9260,8834C9260,8799,9276,8773,9308,8756C9379,8720,9697,8669,9835,8671C9895,8673,9888,8674,9790,8681C9557,8698,9334,8744,9293,8782C9280,8794,9270,8815,9270,8830C9270,8845,9261,8865,9249,8876C9237,8886,9219,8912,9209,8933C9198,8953,9185,8970,9180,8970C9160,8970,9170,9008,9193,9014C9205,9017,9224,9035,9235,9053C9247,9072,9268,9089,9288,9095C9319,9104,9320,9106,9320,9156C9320,9220,9338,9244,9405,9268C9448,9284,9462,9285,9503,9274L9550,9262L9570,9329C9648,9594,9677,9700,9674,9700C9671,9700,9652,9685,9632,9666C9429,9481,9044,9150,9033,9150C9020,9150,9019,9167,9024,9253C9028,9309,9040,9560,9050,9810C9061,10060,9074,10362,9080,10480C9085,10598,9094,10801,9100,10930C9112,11215,9119,11248,9174,11305C9208,11340,9224,11350,9265,11356C9349,11368,9455,11340,9605,11265C9743,11196,9825,11170,9901,11170C9948,11170,9949,11170,9985,11229C10075,11379,10128,11546,10115,11640C10100,11741,10032,11796,9970,11758C9944,11742,9930,11759,9930,11808C9930,11832,9939,11850,9961,11872C9991,11902,9992,11903,10071,11897C10128,11893,10158,11896,10178,11906C10201,11917,10216,11917,10270,11906C10466,11865,10500,11811,10500,11550C10500,11392,10517,11293,10560,11209L10582,11167L10653,11173C10693,11176,10748,11186,10775,11195C10825,11212,10837,11218,10965,11282C11073,11336,11136,11354,11221,11355C11286,11355,11302,11351,11337,11328C11392,11292,11416,11237,11424,11125C11432,11011,11510,9273,11510,9202C11510,9162,11507,9149,11496,9152C11489,9154,11358,9265,11205,9400C10866,9699,10855,9708,10861,9690C10864,9682,10893,9582,10925,9469L10983,9263L11029,9275C11086,9289,11152,9273,11190,9235C11211,9214,11215,9200,11215,9155C11215,9107,11218,9100,11234,9100C11245,9100,11272,9081,11294,9057C11317,9033,11343,9011,11353,9007C11374,8999,11375,8981,11355,8973C11346,8970,11333,8953,11325,8934C11318,8916,11301,8892,11287,8880C11270,8865,11264,8852,11268,8835C11274,8804,11235,8765,11184,8751C11094,8725,10947,8700,10830,8690C10635,8674,10631,8673,10700,8672C10794,8670,10992,8695,11119,8725C11213,8748,11233,8756,11255,8782C11269,8798,11280,8821,11280,8832C11280,8843,11294,8868,11310,8887C11327,8905,11340,8927,11340,8935C11340,8943,11349,8954,11360,8960C11385,8973,11386,9008,11363,9017C11353,9021,11327,9043,11304,9067C11282,9091,11256,9110,11247,9110C11234,9110,11230,9119,11230,9150C11230,9198,11208,9245,11179,9260C11134,9285,11075,9296,11042,9288C11023,9283,11004,9280,10998,9282C10988,9286,10879,9651,10886,9659C10889,9662,11058,9515,11389,9222C11454,9165,11489,9140,11504,9142C11516,9144,11525,9150,11525,9155C11524,9174,11509,9506,11500,9715C11494,9831,11479,10179,11465,10490C11431,11277,11434,11248,11367,11318C11288,11400,11150,11386,10925,11275C10788,11207,10704,11180,10633,11180C10583,11180,10573,11192,10539,11290C10521,11344,10516,11387,10510,11550C10501,11822,10484,11855,10335,11898C10234,11927,10206,11930,10178,11915Z" fill="rgb(0,0,0)" stroke="none" stroke-width="1"/><path id="efqhWHDFZ5k18" d="M10013,10839C9990,10835,9933,10829,9888,10827L9805,10823L9807,10754C9814,10549,9894,10315,10014,10153C10039,10118,10062,10090,10065,10090C10068,10090,10070,10261,10070,10470C10070,10679,10067,10850,10063,10849C10058,10848,10036,10844,10013,10839Z" fill="rgb(0,0,0)" stroke="none" stroke-width="1"/><path id="efqhWHDFZ5k19" d="M10470,10469L10471,10085L10500,10120C10622,10267,10715,10514,10727,10726L10733,10827L10624,10833C10564,10836,10505,10842,10493,10845L10470,10852L10470,10469Z" fill="rgb(0,0,0)" stroke="none" stroke-width="1"/><path id="efqhWHDFZ5k20" d="M9912,8665C9919,8658,10622,8658,10628,8665C10631,8668,10470,8670,10270,8670C10070,8670,9909,8668,9912,8665Z" fill="rgb(0,0,0)" stroke="none" stroke-width="1"/><path id="efqhWHDFZ5k21" d="M8405,8908C8367,8875,8333,8843,8331,8838C8322,8813,8357,8735,8398,8689L8442,8639L8489,8677C8579,8751,8595,8789,8563,8861C8543,8905,8494,8970,8482,8970C8478,8970,8444,8942,8405,8908ZM8524,8906C8544,8876,8563,8838,8566,8821C8574,8783,8544,8733,8489,8689L8449,8657L8414,8691C8374,8729,8356,8760,8346,8805C8340,8834,8344,8840,8412,8898C8451,8932,8485,8960,8486,8960C8487,8960,8504,8936,8524,8906Z" fill="rgb(0,0,0)" stroke="none" stroke-width="1"/><path id="efqhWHDFZ5k22" d="M8162,8698C8144,8680,8146,8676,8206,8590C8267,8502,8265,8503,8329,8558L8364,8587L8272,8648C8222,8682,8179,8710,8177,8710C8176,8710,8169,8705,8162,8698ZM8267,8638L8344,8587L8310,8558C8291,8543,8272,8530,8268,8530C8257,8530,8160,8677,8167,8684C8179,8695,8191,8690,8267,8638Z" fill="rgb(0,0,0)" stroke="none" stroke-width="1"/><path id="efqhWHDFZ5k23" d="M12018,8938C11977,8884,11960,8843,11960,8800C11960,8763,11966,8753,12015,8704C12046,8674,12078,8650,12087,8650C12121,8650,12184,8734,12198,8798L12208,8840L12132,8905C12091,8941,12053,8970,12049,8970C12046,8970,12031,8955,12018,8938ZM12190,8816C12189,8783,12156,8718,12122,8686L12091,8658L12062,8679C11954,8756,11944,8820,12026,8928L12052,8961L12121,8899C12166,8859,12190,8831,12190,8816Z" fill="rgb(0,0,0)" stroke="none" stroke-width="1"/><path id="efqhWHDFZ5k24" d="M12260,8649C12213,8616,12176,8587,12177,8584C12180,8575,12271,8508,12274,8512C12276,8513,12303,8552,12335,8598C12390,8677,12391,8682,12374,8695C12363,8703,12353,8709,12350,8709C12347,8709,12307,8682,12260,8649ZM12370,8679C12370,8663,12277,8531,12265,8531C12260,8531,12240,8543,12222,8558L12189,8586L12262,8637C12333,8687,12370,8701,12370,8679Z" fill="rgb(0,0,0)" stroke="none" stroke-width="1"/><path id="efqhWHDFZ5k25" d="M10190,8171C10061,8129,9987,8029,9987,7900C9987,7792,10037,7707,10132,7654C10178,7629,10195,7625,10265,7625C10335,7625,10352,7629,10398,7654C10478,7699,10541,7790,10539,7857C10538,7881,10537,7880,10529,7847C10515,7789,10485,7736,10444,7700C10412,7672,10354,7640,10335,7640C10332,7640,10330,7757,10330,7900C10330,8043,10332,8160,10335,8160C10354,8160,10412,8128,10444,8100C10485,8064,10515,8011,10529,7953C10537,7920,10538,7919,10539,7943C10541,8010,10478,8102,10399,8144C10344,8175,10241,8188,10190,8171ZM10315,7900L10315,7635L10268,7632L10220,7629L10220,7900L10220,8171L10268,8168L10315,8165L10315,7900ZM10210,7900C10210,7728,10207,7640,10200,7640C10146,7640,10051,7720,10020,7793C9963,7923,10018,8077,10145,8143C10213,8179,10210,8188,10210,7900Z" fill="rgb(0,0,0)" stroke="none" stroke-width="1"/><path id="efqhWHDFZ5k26" d="M14570,15498C14507,15466,14480,15421,14480,15350C14480,15252,14549,15180,14642,15180C14727,15180,14789,15227,14809,15307C14830,15388,14792,15466,14716,15501C14662,15526,14624,15525,14570,15498Z" fill="rgb(0,0,0)" stroke="none" stroke-width="1"/><path id="efqhWHDFZ5k27" d="M13935,15413C13926,15404,13882,15342,13838,15276C13793,15209,13720,15103,13675,15040C13566,14885,13556,14868,13563,14837C13568,14820,13634,14762,13777,14649C14006,14469,14148,14345,14345,14156C14429,14075,14483,14031,14497,14030C14511,14030,14605,14102,14758,14229C14890,14339,15001,14434,15006,14441C15011,14450,14990,14476,14939,14522C14863,14593,14836,14607,14801,14595C14777,14588,14697,14525,14589,14428C14543,14387,14503,14360,14490,14360C14476,14360,14438,14388,14386,14438C14309,14512,14095,14706,13948,14835C13896,14879,13880,14900,13880,14920C13880,14947,13972,15091,14063,15206C14111,15267,14120,15302,14097,15330C14076,15356,13978,15430,13964,15430C13957,15430,13944,15423,13935,15413Z" fill="rgb(0,0,0)" stroke="none" stroke-width="1"/><path id="efqhWHDFZ5k28" d="M14884,15231C14781,15184,14753,15058,14826,14970C14862,14928,14900,14910,14956,14910C15050,14910,15122,14983,15122,15079C15122,15155,15089,15205,15017,15235C14969,15255,14934,15254,14884,15231Z" fill="rgb(0,0,0)" stroke="none" stroke-width="1"/><path id="efqhWHDFZ5k29" d="M15298,14294C14935,14012,14680,13809,14680,13804C14680,13802,14701,13772,14726,13738C14773,13672,14796,13650,14816,13650C14822,13650,14899,13707,14987,13778C15074,13848,15244,13979,15364,14070C15771,14377,15765,14372,15768,14410C15770,14439,15762,14456,15724,14503C15698,14536,15670,14560,15660,14560C15649,14560,15487,14440,15298,14294Z" fill="rgb(0,0,0)" stroke="none" stroke-width="1"/><path id="efqhWHDFZ5k30" d="M15321,13525C15246,13508,15174,13485,15108,13456L15060,13435L15185,13230C15352,12956,15351,12945,15171,12945C15050,12946,15032,12952,14849,13052C14790,13084,14740,13110,14737,13110C14704,13110,14884,12863,14978,12778C15053,12712,15092,12695,15175,12696C15227,12697,15262,12704,15312,12724C15419,12768,15413,12775,15497,12545C15607,12244,15730,11875,15815,11590C15861,11436,15899,11327,15911,11315C15929,11297,15934,11297,16017,11309C16206,11336,16337,11351,16660,11380C17060,11416,17064,11416,17085,11440C17105,11462,17100,11521,17075,11569C17047,11625,17046,11625,16566,11579C16323,11556,16113,11540,16099,11543C16067,11551,16063,11561,16010,11748C15968,11898,15961,11945,15983,11936C16095,11889,16221,11889,16316,11935C16395,11973,16472,12053,16501,12127C16536,12214,16534,12344,16498,12422C16424,12582,16250,12675,16087,12641C15987,12621,15914,12573,15841,12480C15825,12460,15818,12457,15803,12465C15775,12482,15649,12739,15643,12793C15631,12897,15649,12911,15925,13015C16034,13056,16127,13095,16132,13102C16153,13135,16137,13154,15925,13343C15802,13453,15719,13501,15605,13525C15519,13543,15406,13543,15321,13525ZM15640,13316C15681,13295,15770,13211,15770,13194C15770,13187,15731,13160,15683,13134C15634,13108,15576,13076,15553,13063L15512,13039L15441,13170C15402,13242,15370,13304,15370,13306C15370,13309,15385,13318,15403,13326C15448,13346,15592,13340,15640,13316ZM16230,12411C16282,12384,16310,12337,16310,12278C16310,12221,16293,12182,16250,12147C16111,12029,15917,12229,16030,12372C16074,12428,16165,12446,16230,12411Z" fill="rgb(0,0,0)" stroke="none" stroke-width="1"/><path id="efqhWHDFZ5k31" d="M9930,13204C9887,13175,9860,13127,9860,13082C9860,13064,9876,12956,9896,12842C9916,12728,9940,12586,9950,12527C9959,12468,9969,12418,9971,12415C9973,12413,9975,12596,9975,12821C9975,13046,9973,13230,9970,13230C9967,13229,9949,13218,9930,13204Z" fill="rgb(0,0,0)" stroke="none" stroke-width="1"/><path id="efqhWHDFZ5k32" d="M16612,12847C16526,12830,16466,12730,16489,12642C16529,12495,16731,12468,16801,12600C16839,12670,16815,12785,16754,12825C16719,12848,16659,12857,16612,12847Z" fill="rgb(0,0,0)" stroke="none" stroke-width="1"/><path id="efqhWHDFZ5k33" d="M16720,12419C16701,12413,16670,12395,16653,12377C16543,12272,16615,12090,16767,12090C16832,12090,16870,12108,16907,12157C16931,12188,16935,12203,16935,12255C16935,12307,16931,12322,16907,12353C16861,12414,16789,12439,16720,12419Z" fill="rgb(0,0,0)" stroke="none" stroke-width="1"/><path id="efqhWHDFZ5k34" d="M4287,12332C4266,12328,4210,12212,4210,12174C4210,12144,4227,12134,4370,12074C4433,12048,4497,12018,4512,12008C4557,11977,4557,11950,4512,11811C4490,11742,4466,11657,4460,11623C4440,11523,4415,11508,4299,11530C4126,11563,3868,11598,3843,11591C3766,11570,3775,11323,3859,11147C3962,10931,4188,10767,4427,10735C4508,10724,4520,10742,4554,10920C4626,11300,4708,11648,4787,11911C4831,12058,4841,12105,4836,12134C4827,12179,4823,12181,4595,12251C4348,12326,4307,12337,4287,12332ZM4194,11314C4266,11305,4328,11295,4332,11291C4339,11284,4308,11005,4299,10996C4297,10993,4272,10999,4243,11009C4131,11047,4052,11148,4042,11266C4039,11314,4040,11330,4050,11330C4057,11330,4122,11323,4194,11314Z" fill="rgb(0,0,0)" stroke="none" stroke-width="1"/><path id="efqhWHDFZ5k35" d="M4863,11825C4765,11765,4754,11634,4840,11557C4976,11433,5178,11582,5106,11754C5070,11840,4947,11877,4863,11825Z" fill="rgb(0,0,0)" stroke="none" stroke-width="1"/><path id="efqhWHDFZ5k36" d="M3499,11710C3361,11669,3336,11471,3460,11401C3510,11373,3591,11373,3636,11401C3728,11457,3743,11589,3666,11666C3621,11711,3557,11728,3499,11710Z" fill="rgb(0,0,0)" stroke="none" stroke-width="1"/><path id="efqhWHDFZ5k37" d="M4825,11435C4628,11364,4718,11068,4923,11112C5002,11129,5052,11196,5052,11282C5051,11399,4936,11476,4825,11435Z" fill="rgb(0,0,0)" stroke="none" stroke-width="1"/><path id="efqhWHDFZ5k38" d="M3402,11293C3289,11238,3279,11065,3385,11000C3461,10953,3545,10964,3604,11030C3658,11090,3664,11166,3620,11237C3581,11302,3474,11329,3402,11293Z" fill="rgb(0,0,0)" stroke="none" stroke-width="1"/><path id="efqhWHDFZ5k39" d="M17000,11083C16644,11047,16518,11033,16263,10996C16096,10972,15954,10947,15945,10940C15916,10916,15929,10811,15964,10788C15982,10776,16164,10779,16325,10795C16408,10803,16529,10814,16595,10819C16937,10849,17132,10870,17150,10880C17161,10886,17173,10902,17176,10916C17186,10954,17176,11056,17161,11074C17148,11090,17094,11093,17000,11083Z" fill="rgb(0,0,0)" stroke="none" stroke-width="1"/><path id="efqhWHDFZ5k40" d="M3739,10367C3676,10333,3630,10255,3630,10180C3631,9987,3841,9891,3989,10016C4104,10113,4072,10317,3932,10376C3878,10398,3791,10394,3739,10367Z" fill="rgb(0,0,0)" stroke="none" stroke-width="1"/><path id="efqhWHDFZ5k41" d="M16529,10367C16461,10331,16426,10274,16422,10191C16417,10112,16437,10062,16494,10013C16623,9899,16829,9980,16847,10152C16857,10246,16812,10328,16729,10371C16674,10398,16586,10397,16529,10367Z" fill="rgb(0,0,0)" stroke="none" stroke-width="1"/><path id="efqhWHDFZ5k42" d="M4765,9374C4721,9351,4699,9329,4684,9293C4648,9210,4684,9109,4763,9071C4837,9035,4908,9049,4963,9110C5063,9219,4988,9390,4840,9390C4815,9390,4782,9383,4765,9374Z" fill="rgb(0,0,0)" stroke="none" stroke-width="1"/><path id="efqhWHDFZ5k43" d="M16546,9331C16542,9325,16532,9297,16523,9268C16487,9146,16422,9074,16323,9047C16247,9026,16021,8984,15845,8959C15647,8931,15589,8912,15503,8847C15433,8795,15330,8639,15279,8507C15241,8407,15252,8390,15308,8462C15379,8555,15394,8571,15455,8620C15558,8702,15668,8750,15800,8769C15895,8783,16167,8800,16287,8800C16407,8800,16410,8796,16380,8662C16337,8472,16328,8459,16220,8434C16057,8396,15948,8282,15910,8108C15899,8060,15900,8042,15914,7985C15933,7910,15962,7846,15993,7813C16005,7799,16015,7772,16018,7742C16023,7688,16011,7659,15933,7537C15830,7376,15798,7354,15711,7384C15654,7405,15497,7405,15420,7385C15388,7377,15309,7350,15245,7325C15181,7300,15119,7280,15108,7280C15096,7280,15055,7296,15018,7316C14926,7363,14922,7362,14865,7252C14831,7188,14837,7176,14930,7120C14975,7093,15002,7069,15006,7055C15009,7042,15007,6999,15000,6958C14979,6817,15012,6698,15115,6549C15153,6494,15180,6444,15180,6430C15180,6399,15044,6220,15020,6220C15009,6220,14945,6273,14765,6429C14674,6508,14606,6559,14593,6560C14547,6560,14473,6435,14438,6297C14421,6229,14418,6196,14423,6095C14428,5967,14443,5904,14491,5805C14551,5681,14661,5571,14713,5584C14726,5587,14775,5625,14821,5668C15009,5843,15019,5850,15068,5850C15110,5850,15189,5793,15223,5738C15269,5665,15269,5598,15226,5475C15207,5420,15192,5374,15194,5373C15202,5364,15271,5423,15313,5475C15389,5570,15425,5651,15425,5730C15424,5820,15397,5875,15310,5960C15272,5998,15240,6038,15240,6047C15240,6072,15262,6103,15358,6217C15404,6271,15493,6381,15556,6462C15671,6610,15699,6636,15726,6626C15734,6623,15807,6576,15888,6522C15969,6468,16043,6421,16052,6417C16081,6407,16106,6439,16179,6580C16234,6687,16252,6730,16259,6783C16279,6922,16235,7055,16150,7117C16125,7134,16090,7161,16073,7176C16022,7216,16028,7247,16108,7376C16146,7437,16190,7510,16207,7540C16252,7618,16296,7656,16350,7665C16437,7679,16499,7710,16564,7771C16641,7843,16679,7918,16687,8019C16697,8133,16668,8222,16590,8314C16542,8371,16541,8355,16606,8570C16665,8769,16693,8878,16735,9068C16774,9250,16778,9301,16754,9321C16733,9338,16556,9347,16546,9331ZM16380,8188C16455,8136,16479,8057,16441,7983C16383,7869,16225,7865,16162,7975C16103,8078,16180,8210,16300,8210C16332,8210,16357,8203,16380,8188ZM15673,7205C15693,7194,15710,7182,15710,7178C15710,7171,15650,7076,15554,6932C15551,6926,15300,7092,15300,7100C15300,7123,15409,7201,15470,7221C15511,7235,15631,7225,15673,7205ZM15980,6999C16058,6923,16088,6806,16056,6697C16047,6666,16034,6640,16028,6640C16012,6640,15769,6783,15772,6790C15791,6833,15918,7040,15926,7040C15933,7040,15957,7022,15980,6999ZM15331,6884C15396,6837,15450,6796,15450,6793C15450,6788,15420,6745,15327,6617L15277,6549L15243,6582C15224,6600,15197,6640,15182,6670C15146,6743,15145,6840,15179,6918C15192,6946,15205,6970,15207,6970C15210,6970,15265,6931,15331,6884ZM14748,6185L14860,6090L14762,5974L14665,5859L14628,5900C14547,5991,14537,6149,14605,6254C14615,6268,14625,6280,14629,6280C14633,6280,14687,6237,14748,6185Z" fill="rgb(0,0,0)" stroke="none" stroke-width="1"/><path id="efqhWHDFZ5k44" d="M3866,9270C3790,9264,3763,9258,3754,9245C3747,9236,3743,9223,3745,9217C3766,9153,3928,8601,3960,8485C4036,8206,4082,8097,4331,7595C4499,7255,4740,6809,4779,6764C4824,6712,4824,6712,5327,7027C5453,7106,5454,7110,5391,7204C5322,7305,5291,7320,5226,7281C5209,7271,5131,7224,5053,7176C4975,7129,4905,7090,4898,7090C4877,7090,4849,7125,4795,7220C4768,7267,4711,7362,4668,7432C4625,7501,4590,7567,4590,7578C4590,7594,4629,7618,4778,7695C4980,7801,5000,7813,5000,7842C5000,7869,4957,7950,4918,7997L4884,8037L4685,7940C4494,7847,4484,7844,4459,7858C4422,7879,4416,7890,4330,8133C4287,8255,4240,8386,4225,8424C4211,8462,4203,8496,4207,8501C4211,8505,4323,8548,4455,8595C4587,8643,4698,8685,4702,8689C4710,8697,4661,8840,4625,8910C4529,9099,4386,9224,4225,9258C4153,9274,3981,9279,3866,9270ZM4212,9042C4270,9017,4336,8951,4362,8893C4373,8869,4380,8847,4378,8846C4365,8835,4096,8771,4090,8777C4085,8781,4068,8839,4050,8905C4033,8971,4017,9033,4014,9042C4011,9052,4016,9060,4027,9064C4063,9074,4167,9062,4212,9042Z" fill="rgb(0,0,0)" stroke="none" stroke-width="1"/><path id="efqhWHDFZ5k45" d="M4880,8977C4761,8914,4765,8739,4886,8680C4936,8655,4983,8655,5036,8679C5099,8708,5125,8751,5125,8830C5125,8882,5120,8902,5102,8928C5052,8998,4958,9018,4880,8977Z" fill="rgb(0,0,0)" stroke="none" stroke-width="1"/><path id="efqhWHDFZ5k46" d="M17015,8691C16906,8665,16856,8535,16915,8435C16990,8305,17194,8346,17225,8497C17238,8560,17198,8645,17142,8674C17105,8692,17051,8699,17015,8691Z" fill="rgb(0,0,0)" stroke="none" stroke-width="1"/><path id="efqhWHDFZ5k47" d="M3723,8140C3614,8084,3603,7932,3702,7857C3774,7802,3883,7816,3938,7888C3961,7918,3965,7933,3965,7991C3965,8064,3951,8094,3897,8134C3857,8163,3775,8166,3723,8140Z" fill="rgb(0,0,0)" stroke="none" stroke-width="1"/><path id="efqhWHDFZ5k48" d="M3915,7778C3899,7772,3870,7754,3853,7737C3744,7634,3815,7450,3964,7450C4054,7450,4120,7503,4136,7587C4151,7665,4093,7757,4015,7779C3968,7792,3955,7792,3915,7778Z" fill="rgb(0,0,0)" stroke="none" stroke-width="1"/><path id="efqhWHDFZ5k49" d="M4225,7135C4151,7108,4100,7021,4115,6947C4133,6863,4199,6810,4288,6810C4345,6810,4392,6836,4428,6890C4460,6936,4456,7029,4421,7078C4379,7137,4296,7161,4225,7135Z" fill="rgb(0,0,0)" stroke="none" stroke-width="1"/><path id="efqhWHDFZ5k50" d="M8898,6764C8787,6548,8771,6352,8847,6135C8861,6097,8875,6062,8879,6057C8883,6053,8901,6071,8919,6096L8951,6142L8993,6059C9043,5958,9156,5838,9269,5765C9344,5716,9557,5612,9665,5570C9774,5528,10025,5404,10090,5360C10124,5337,10179,5291,10211,5259L10269,5200L10322,5256C10418,5358,10552,5436,10835,5555C11154,5689,11304,5774,11413,5883C11480,5950,11539,6037,11559,6098C11567,6121,11577,6140,11581,6140C11585,6140,11601,6120,11617,6095C11632,6070,11647,6050,11650,6050C11658,6050,11697,6156,11715,6225C11737,6308,11737,6476,11715,6565C11706,6604,11675,6682,11647,6740L11595,6845L11589,6725C11581,6564,11541,6446,11461,6346C11444,6325,11430,6305,11430,6303C11430,6301,11455,6318,11486,6341C11516,6363,11543,6380,11545,6378C11554,6369,11458,6188,11406,6115C11254,5903,11182,5857,10713,5666C10406,5541,10328,5507,10290,5480C10270,5466,10259,5463,10254,5471C10243,5489,10129,5539,9850,5648C9522,5776,9420,5822,9339,5876C9259,5929,9152,6040,9088,6136C9042,6206,8957,6370,8964,6377C8966,6379,9026,6356,9098,6326C9213,6277,9233,6272,9270,6278L9312,6285L9250,6335C9120,6439,9007,6612,8965,6771L8944,6853L8898,6764Z" fill="rgb(0,0,0)" stroke="none" stroke-width="1"/><path id="efqhWHDFZ5k51" d="M5525,6622C5348,6484,5177,6366,5110,6335C5055,6310,5032,6306,4960,6305C4885,6305,4867,6309,4810,6336C4774,6353,4708,6395,4663,6429C4619,6462,4577,6490,4571,6490C4557,6490,4625,6297,4663,6230C4704,6158,4764,6093,4814,6068C4896,6026,5028,6034,5207,6091C5296,6120,5301,6120,5328,6105C5343,6095,5423,6007,5505,5908C5588,5809,5670,5710,5689,5688C5754,5614,5804,5602,5943,5631C6081,5660,6260,5686,6288,5682C6330,5676,6335,5644,6321,5472C6315,5386,6305,5295,6299,5270C6288,5222,6294,5164,6313,5140C6320,5131,6341,5113,6360,5100C6379,5087,6507,4989,6644,4882C6781,4775,6900,4686,6907,4683C6934,4672,7005,4748,7069,4856C7133,4963,7170,5024,7347,5310C7620,5751,7620,5751,7569,5794C7536,5822,7481,5852,7443,5864C7425,5870,7413,5859,7362,5788C7296,5696,6940,5122,6907,5054C6896,5030,6882,5010,6878,5010C6873,5010,6800,5062,6716,5126L6562,5241L6557,5288C6553,5333,6565,5532,6575,5596C6584,5647,6599,5652,6655,5626C6683,5613,6733,5582,6768,5556C6803,5530,6835,5512,6840,5515C6858,5526,6882,5618,6887,5695C6891,5760,6888,5787,6871,5836L6851,5897L6871,5956C6888,6004,6891,6029,6886,6090C6883,6131,6874,6170,6867,6177C6860,6185,6819,6193,6774,6196C6710,6201,6684,6198,6637,6182C6579,6163,6578,6163,6529,6181C6443,6214,6269,6202,6186,6158C6169,6149,6170,6146,6198,6117C6260,6051,6320,5951,6320,5915C6320,5894,6294,5891,6238,5906C6168,5924,6102,5924,6005,5903C5959,5894,5911,5890,5895,5894C5874,5898,5817,5950,5708,6062C5622,6151,5546,6234,5539,6247C5516,6290,5537,6314,5683,6409C5795,6483,5820,6504,5820,6523C5820,6552,5672,6700,5644,6700C5633,6700,5580,6665,5525,6622ZM6696,5899C6695,5834,6692,5779,6690,5776C6687,5774,6644,5785,6595,5801L6505,5830L6474,5920C6457,5969,6446,6010,6451,6012C6456,6014,6514,6016,6579,6016L6698,6018L6696,5899Z" fill="rgb(0,0,0)" stroke="none" stroke-width="1"/><path id="efqhWHDFZ5k52" d="M14031,5789C13998,5767,13968,5744,13964,5739C13952,5719,13971,5683,14032,5603C14211,5373,14407,5113,14422,5086C14444,5046,14445,4959,14424,4917C14415,4899,14389,4858,14368,4826C14323,4758,14328,4746,14397,4754C14448,4761,14566,4818,14613,4860C14664,4904,14693,4972,14693,5045C14694,5151,14683,5167,14356,5565C14191,5767,14132,5830,14109,5830C14100,5830,14065,5812,14031,5789Z" fill="rgb(0,0,0)" stroke="none" stroke-width="1"/><path id="efqhWHDFZ5k53" d="M12587,5598C12504,5576,12448,5478,12471,5395C12495,5310,12550,5267,12635,5267C12736,5267,12801,5334,12801,5436C12801,5551,12700,5628,12587,5598Z" fill="rgb(0,0,0)" stroke="none" stroke-width="1"/><path id="efqhWHDFZ5k54" d="M7813,5548C7748,5475,7242,4606,7224,4536C7209,4474,7333,4409,7376,4458C7411,4498,7470,4580,7517,4655C7544,4699,7662,4887,7778,5072C7894,5257,7992,5420,7996,5435C8005,5470,7980,5504,7917,5540C7855,5576,7840,5577,7813,5548Z" fill="rgb(0,0,0)" stroke="none" stroke-width="1"/><path id="efqhWHDFZ5k55" d="M13624,5497C13585,5474,13529,5427,13519,5408C13506,5385,13513,5374,13614,5236C13717,5098,13724,5085,13711,5061C13702,5045,13554,4962,13222,4787C13126,4737,13106,4730,13095,4741C13088,4749,13047,4816,13004,4890C12962,4964,12896,5078,12858,5143C12776,5281,12788,5280,12665,5155C12579,5068,12532,4988,12490,4855C12455,4746,12451,4576,12480,4413C12506,4261,12521,4220,12549,4220C12585,4220,13217,4528,13447,4658C13665,4781,13999,4976,14016,4991C14046,5016,14028,5050,13885,5236C13727,5441,13669,5510,13654,5510C13649,5509,13636,5504,13624,5497ZM12852,4828C12889,4755,12918,4695,12917,4695C12874,4666,12657,4561,12650,4565C12621,4583,12611,4727,12634,4793C12654,4847,12699,4908,12739,4936C12759,4949,12777,4960,12780,4960C12783,4960,12815,4900,12852,4828Z" fill="rgb(0,0,0)" stroke="none" stroke-width="1"/><path id="efqhWHDFZ5k56" d="M12237,5387C12158,5367,12099,5276,12114,5197C12144,5040,12352,5003,12429,5141C12452,5182,12457,5258,12439,5293C12399,5370,12318,5408,12237,5387Z" fill="rgb(0,0,0)" stroke="none" stroke-width="1"/><path id="efqhWHDFZ5k57" d="M9144,4932C9119,4916,9097,4848,9029,4578C8990,4422,8951,4287,8943,4278C8922,4255,8889,4255,8760,4280C8536,4322,8483,4345,8497,4398C8500,4413,8514,4451,8527,4484C8540,4516,8554,4564,8557,4590L8562,4637L8487,4663C8399,4695,8369,4697,8347,4672C8338,4663,8293,4556,8245,4435C8120,4115,8110,4091,8076,4047C8029,3986,7997,3967,7909,3950L7827,3935L7853,3904C7913,3832,8049,3792,8136,3820C8199,3840,8235,3874,8304,3979C8340,4034,8378,4081,8388,4084C8399,4088,8575,4057,8781,4016C9247,3924,9245,3924,9415,3905C9605,3884,9674,3873,9815,3840C9881,3824,9984,3807,10044,3801C10104,3795,10163,3784,10175,3776C10190,3766,10202,3740,10213,3693C10236,3601,10289,3525,10360,3482C10436,3437,10469,3428,10590,3423C10851,3411,11008,3526,11014,3734C11015,3774,11023,3815,11031,3827C11049,3856,11104,3878,11177,3886C11209,3889,11406,3932,11615,3981C11824,4029,12018,4074,12045,4080C12106,4093,12140,4114,12140,4138C12140,4167,11943,4850,11930,4865C11907,4893,11860,4880,11708,4803C11593,4745,11543,4714,11504,4675C11416,4588,11370,4461,11370,4308C11370,4211,11358,4186,11303,4175C11287,4171,11231,4158,11177,4144C11070,4118,11044,4115,11035,4129C11030,4138,10950,4580,10950,4600C10950,4618,10870,4629,10650,4640C10305,4657,9409,4730,9359,4746C9350,4748,9335,4759,9325,4770C9309,4788,9308,4795,9319,4830C9335,4884,9323,4903,9263,4917C9181,4937,9155,4940,9144,4932ZM11799,4528C11827,4387,11842,4289,11836,4283C11829,4275,11596,4231,11561,4230C11538,4230,11537,4232,11542,4293C11552,4413,11610,4499,11713,4550C11747,4566,11778,4580,11782,4580C11786,4580,11793,4556,11799,4528ZM9450,4505C9486,4502,9596,4488,9695,4475C10025,4431,10073,4428,10409,4424C10618,4422,10747,4417,10753,4411C10759,4405,10767,4349,10772,4285C10776,4222,10791,4119,10804,4057C10840,3891,10845,3835,10827,3767C10797,3651,10723,3580,10627,3572C10554,3566,10511,3587,10460,3652C10399,3728,10387,3762,10388,3850C10391,4005,10368,4023,10135,4040C9997,4050,9560,4101,9311,4135C9161,4156,9152,4169,9191,4304C9246,4494,9269,4525,9350,4515C9369,4513,9414,4508,9450,4505Z" fill="rgb(0,0,0)" stroke="none" stroke-width="1"/><path id="efqhWHDFZ5k58" d="M13797,4671C13760,4663,13704,4616,13684,4578C13663,4537,13669,4449,13697,4412C13734,4362,13778,4340,13839,4340C13905,4340,13950,4363,13980,4412C14020,4478,14016,4555,13969,4614C13933,4660,13858,4685,13797,4671Z" fill="rgb(0,0,0)" stroke="none" stroke-width="1"/><path id="efqhWHDFZ5k59" d="M13431,4490C13363,4474,13311,4416,13303,4347C13296,4287,13314,4237,13355,4201C13423,4141,13513,4140,13581,4197C13714,4310,13603,4528,13431,4490Z" fill="rgb(0,0,0)" stroke="none" stroke-width="1"/></g></svg>