<svg id="splitsvg" version="1.1" xmlns="http://www.w3.org/2000/svg" xmlns:xlink="http://www.w3.org/1999/xlink" width="1380" height="480" style=""><g id="svgg"><path id="path0" d="M145.798 92.772 L 145.798 136.174 146.481 135.345 C 147.622 133.960,149.100 132.101,150.945 129.731 C 151.639 128.841,152.514 127.719,152.890 127.239 C 153.266 126.759,153.646 126.271,153.734 126.155 C 153.822 126.040,154.549 125.095,155.349 124.055 C 156.150 123.015,157.371 121.408,158.064 120.483 C 158.756 119.559,159.379 118.755,159.448 118.697 C 159.572 118.593,162.324 114.976,163.130 113.858 C 164.003 112.646,166.678 109.134,166.804 109.034 C 167.437 108.530,170.588 103.113,170.588 102.528 C 170.588 102.060,171.761 101.891,174.996 101.891 C 178.941 101.891,178.992 101.904,178.992 102.911 C 178.992 103.735,179.397 105.733,179.925 107.511 C 180.105 108.117,180.385 109.063,180.548 109.611 C 180.711 110.160,181.098 111.413,181.408 112.395 C 181.961 114.149,182.292 115.242,182.776 116.912 C 182.910 117.374,183.248 118.439,183.527 119.280 C 183.806 120.120,184.034 120.947,184.034 121.118 C 184.034 121.647,184.536 121.458,185.027 120.744 C 185.285 120.370,185.737 119.784,186.032 119.444 C 186.571 118.823,186.599 118.159,186.126 117.234 C 185.939 116.867,185.886 116.709,183.821 110.294 C 182.984 107.694,182.184 105.284,182.043 104.937 C 181.901 104.590,181.661 103.976,181.509 103.571 C 181.357 103.167,181.140 102.716,181.027 102.568 C 180.648 102.073,181.113 101.996,184.909 101.923 C 190.107 101.823,189.986 101.790,190.264 103.415 C 190.387 104.137,190.653 105.294,190.855 105.987 C 191.343 107.666,191.579 108.523,191.875 109.699 C 192.011 110.238,192.193 110.750,192.280 110.837 C 192.366 110.924,192.437 111.215,192.437 111.485 C 192.437 112.095,192.749 112.112,193.227 111.527 C 193.428 111.281,193.923 110.676,194.328 110.183 C 194.732 109.690,195.583 108.611,196.218 107.785 C 196.854 106.960,197.695 105.887,198.088 105.401 C 198.852 104.454,199.568 103.055,199.575 102.491 C 199.583 101.944,200.083 101.871,203.588 101.907 C 207.694 101.950,207.616 101.883,205.810 103.810 C 204.436 105.274,202.416 107.763,199.696 111.343 C 199.124 112.095,198.552 112.805,198.424 112.920 C 198.296 113.036,197.771 113.697,197.258 114.391 C 196.745 115.084,196.272 115.699,196.208 115.756 C 195.470 116.421,194.964 117.435,195.146 117.886 C 195.257 118.159,195.511 118.964,195.711 119.675 L 196.076 120.968 196.725 120.159 C 197.082 119.714,197.705 118.903,198.109 118.357 C 198.514 117.810,198.940 117.261,199.056 117.137 C 199.173 117.013,199.409 116.710,199.581 116.462 C 199.754 116.215,200.888 114.714,202.101 113.127 C 203.314 111.540,204.449 110.039,204.622 109.791 C 204.795 109.543,205.323 108.822,205.794 108.189 C 207.356 106.093,208.240 104.773,208.877 103.588 C 209.805 101.860,209.723 101.891,213.445 101.891 C 217.316 101.891,217.337 101.900,217.511 103.707 C 217.580 104.417,217.724 105.221,217.830 105.493 C 217.937 105.765,218.185 106.602,218.381 107.353 C 218.577 108.104,218.823 108.883,218.927 109.083 C 219.032 109.284,219.118 109.580,219.118 109.742 C 219.118 109.904,219.257 110.496,219.427 111.058 C 219.917 112.678,220.935 116.165,221.320 117.542 C 221.514 118.235,221.750 119.039,221.845 119.328 C 221.939 119.617,222.556 121.555,223.215 123.634 C 223.874 125.714,224.488 127.605,224.578 127.836 C 224.668 128.067,225.196 129.674,225.750 131.408 C 226.305 133.141,226.835 134.649,226.930 134.758 C 227.024 134.868,227.101 135.090,227.101 135.252 C 227.101 135.559,227.427 136.356,228.277 138.133 C 228.555 138.713,228.782 139.256,228.782 139.341 C 228.782 139.426,226.661 139.496,224.070 139.496 L 219.358 139.496 219.147 138.393 C 219.032 137.786,218.878 136.931,218.806 136.492 C 218.734 136.053,218.455 135.013,218.186 134.181 C 217.918 133.349,217.535 132.101,217.337 131.408 C 217.138 130.714,216.763 129.485,216.503 128.676 C 216.243 127.868,215.861 126.639,215.654 125.945 C 215.447 125.252,215.180 124.472,215.061 124.212 L 214.845 123.739 207.558 123.739 L 200.271 123.739 199.190 125.310 C 198.596 126.174,198.109 126.966,198.109 127.071 C 198.109 127.282,199.310 131.169,199.578 131.828 C 199.673 132.059,200.061 133.241,200.441 134.454 C 200.822 135.667,201.445 137.180,201.826 137.815 C 202.893 139.592,203.117 139.496,197.913 139.496 L 193.306 139.496 192.957 137.868 C 192.765 136.972,192.504 135.933,192.376 135.559 L 192.144 134.879 191.578 135.559 C 191.267 135.933,190.833 136.443,190.615 136.692 C 190.396 136.940,189.941 137.673,189.602 138.320 L 188.987 139.496 185.367 139.496 C 181.363 139.496,181.559 139.570,181.291 137.961 C 181.045 136.480,180.605 134.874,180.447 134.874 C 180.114 134.874,178.822 136.637,177.946 138.288 L 177.305 139.496 173.736 139.496 C 171.774 139.496,170.168 139.440,170.168 139.371 C 170.168 139.303,170.886 138.475,171.763 137.533 C 173.252 135.932,173.843 135.202,176.925 131.159 C 178.028 129.711,178.100 129.549,177.915 128.927 C 177.480 127.474,177.044 125.896,176.800 124.895 L 176.544 123.845 169.159 123.789 L 161.774 123.734 161.297 124.453 C 160.906 125.041,159.954 126.320,157.527 129.517 C 157.439 129.632,157.101 130.058,156.776 130.462 C 156.451 130.867,155.763 131.765,155.246 132.458 C 154.730 133.151,154.246 133.766,154.171 133.824 C 154.096 133.881,153.584 134.543,153.034 135.294 C 152.484 136.045,151.955 136.691,151.858 136.730 C 151.760 136.768,151.681 136.876,151.681 136.968 C 151.681 137.061,151.336 137.668,150.915 138.317 L 150.150 139.496 147.974 139.496 L 145.798 139.496 145.798 144.433 L 145.798 149.371 195.641 149.318 L 245.483 149.265 245.528 99.475 L 245.574 49.685 245.040 50.315 C 244.747 50.662,243.672 52.033,242.653 53.361 C 241.633 54.690,240.212 56.534,239.496 57.458 C 238.357 58.927,237.315 60.281,233.508 65.242 C 232.265 66.862,231.756 67.521,230.292 69.406 C 228.722 71.428,226.744 73.996,226.155 74.778 C 225.924 75.084,224.648 76.740,223.319 78.458 C 220.373 82.265,219.968 82.792,216.523 87.290 C 215.018 89.254,213.450 91.295,213.039 91.824 C 212.627 92.354,211.266 94.126,210.014 95.763 L 207.738 98.739 204.920 98.739 C 201.682 98.739,201.752 98.814,203.214 96.923 C 205.729 93.671,210.864 87.025,211.451 86.262 C 211.797 85.812,212.931 84.342,213.971 82.994 C 215.011 81.647,216.145 80.173,216.492 79.720 C 216.838 79.266,217.236 78.751,217.376 78.576 C 218.451 77.221,220.491 74.592,221.633 73.087 C 222.387 72.093,223.902 70.122,225.000 68.706 C 227.339 65.690,231.945 59.733,234.022 57.038 C 234.824 55.998,236.426 53.925,237.582 52.432 C 238.739 50.938,239.637 49.638,239.578 49.543 C 239.519 49.448,218.395 49.370,192.635 49.370 L 145.798 49.370 145.798 92.772 M171.954 110.766 C 171.607 111.315,171.253 111.764,171.166 111.764 C 171.079 111.765,171.008 111.858,171.008 111.972 C 171.008 112.207,169.787 113.851,167.388 116.848 C 166.490 117.969,165.756 118.938,165.756 119.002 C 165.756 119.161,174.688 119.149,174.848 118.990 C 174.918 118.920,174.893 118.707,174.791 118.517 C 174.690 118.328,174.310 117.180,173.945 115.966 C 173.581 114.753,173.179 113.487,173.053 113.152 C 172.926 112.818,172.769 111.919,172.703 111.156 L 172.584 109.769 171.954 110.766 M210.419 110.540 C 209.951 111.356,206.131 116.485,205.483 117.166 C 205.241 117.421,205.042 117.713,205.042 117.816 C 205.042 117.918,204.853 118.173,204.622 118.382 C 203.866 119.067,204.151 119.118,208.733 119.118 L 213.264 119.118 213.126 118.645 C 213.051 118.385,212.906 117.889,212.805 117.542 C 212.704 117.195,212.390 116.203,212.109 115.336 C 211.250 112.695,210.932 111.486,210.874 110.645 L 210.819 109.840 210.419 110.540 M187.326 125.734 L 186.132 127.284 186.786 129.346 C 187.145 130.480,187.474 131.526,187.516 131.670 C 187.654 132.145,187.907 131.936,189.003 130.442 C 190.147 128.882,190.197 128.531,189.493 126.996 C 189.387 126.765,189.125 126.037,188.910 125.380 L 188.519 124.184 187.326 125.734  M -25 0 L -5 0 L -5 20 L -25 20 Z M 405 0 L 425 0 L 425 20 L 405 20 Z" stroke="none" fill="#050493" fill-rule="evenodd" transform="translate(30,0)" class="fibueCkJ_0"></path><path id="path1" d="M0.000 105.042 L 0.000 210.084 200.000 210.084 L 400.000 210.084 400.000 105.042 L 400.000 0.000 200.000 0.000 L 0.000 0.000 0.000 105.042 M245.746 99.422 L 245.693 149.475 195.693 149.475 L 145.693 149.475 145.637 144.380 L 145.581 139.286 147.773 139.286 L 149.966 139.286 150.439 138.498 C 150.855 137.805,155.498 131.546,156.236 130.683 C 156.390 130.504,157.674 128.845,159.090 126.996 L 161.665 123.634 169.159 123.579 L 176.654 123.524 177.198 125.365 C 177.497 126.377,177.891 127.704,178.072 128.313 C 178.254 128.922,178.347 129.565,178.279 129.743 C 178.076 130.273,173.359 136.250,171.902 137.824 L 170.549 139.286 173.821 139.286 L 177.094 139.286 177.639 138.210 C 178.236 137.032,180.181 134.454,180.473 134.454 C 180.695 134.454,181.263 136.199,181.601 137.920 L 181.849 139.181 185.332 139.238 L 188.815 139.296 189.238 138.398 C 189.730 137.354,191.718 134.798,192.108 134.707 C 192.387 134.642,192.846 135.940,193.299 138.078 L 193.554 139.286 197.951 139.286 L 202.347 139.286 201.595 137.941 C 201.181 137.201,200.417 135.287,199.897 133.687 C 199.377 132.086,198.708 130.038,198.411 129.134 C 197.678 126.903,197.668 126.975,198.961 125.150 L 200.105 123.536 207.653 123.585 L 215.201 123.634 216.322 127.206 C 218.792 135.080,219.082 136.084,219.320 137.605 C 219.438 138.356,219.535 139.041,219.536 139.128 C 219.537 139.215,221.563 139.286,224.038 139.286 L 228.538 139.286 228.071 138.393 C 227.516 137.333,226.596 134.876,225.454 131.408 C 223.144 124.386,221.985 120.813,221.741 119.958 C 221.507 119.136,220.837 116.807,219.627 112.605 C 219.444 111.970,219.214 111.213,219.116 110.924 C 218.595 109.384,217.226 104.170,217.117 103.309 L 216.991 102.311 213.445 102.311 L 209.899 102.311 209.204 103.615 C 208.115 105.657,196.529 121.192,196.081 121.209 C 195.820 121.219,195.008 118.781,194.912 117.698 C 194.850 117.007,199.939 110.245,204.780 104.584 L 206.725 102.311 203.257 102.311 C 199.902 102.311,199.790 102.325,199.790 102.742 C 199.790 103.623,199.381 104.220,194.973 109.769 C 192.259 113.185,192.497 113.121,191.854 110.609 C 191.617 109.685,191.084 107.763,190.670 106.338 C 190.255 104.914,189.916 103.425,189.916 103.029 L 189.916 102.311 185.609 102.311 C 183.241 102.311,181.303 102.356,181.303 102.411 C 181.303 102.466,181.579 103.114,181.917 103.851 C 182.254 104.589,182.631 105.560,182.755 106.010 C 182.878 106.460,183.830 109.424,184.872 112.598 C 187.127 119.472,187.109 118.912,185.144 120.966 C 185.001 121.116,184.798 121.391,184.695 121.576 C 184.591 121.762,184.374 121.863,184.212 121.801 C 183.954 121.702,183.681 120.925,182.461 116.807 C 182.307 116.287,181.943 115.105,181.654 114.181 C 179.888 108.552,179.009 105.414,178.886 104.307 C 178.644 102.117,179.038 102.311,174.828 102.314 L 171.113 102.316 170.005 104.471 C 169.266 105.909,167.727 108.178,165.383 111.288 C 161.386 116.593,154.929 125.086,154.503 125.601 C 154.346 125.791,152.962 127.559,151.426 129.531 C 147.152 135.021,145.918 136.517,145.746 136.414 C 145.659 136.362,145.588 116.756,145.588 92.845 L 145.588 49.370 195.694 49.370 L 245.799 49.370 245.746 99.422 M172.919 110.836 C 173.045 112.084,173.223 112.747,174.513 116.781 C 174.896 117.980,175.210 119.044,175.210 119.144 C 175.210 119.245,172.988 119.328,170.273 119.328 C 167.558 119.328,165.336 119.245,165.336 119.144 C 165.336 118.991,166.266 117.781,168.021 115.651 C 169.050 114.402,172.269 109.860,172.269 109.657 C 172.269 108.818,172.816 109.809,172.919 110.836 M211.134 110.145 C 211.134 110.989,211.522 112.519,212.613 115.982 C 213.071 117.435,213.445 118.782,213.445 118.976 C 213.445 119.295,212.993 119.328,208.613 119.328 C 203.002 119.328,203.267 119.520,205.325 116.949 C 207.268 114.522,209.725 111.200,210.309 110.211 C 210.865 109.269,211.134 109.248,211.134 110.145 M189.583 126.486 L 190.405 128.887 189.163 130.612 C 187.592 132.794,187.635 132.806,186.705 129.980 C 185.758 127.101,185.759 127.194,186.669 126.155 C 187.075 125.693,187.617 125.009,187.873 124.634 C 188.537 123.666,188.664 123.803,189.583 126.486  M -25 0 L -5 0 L -5 20 L -25 20 Z M 405 0 L 425 0 L 425 20 L 405 20 Z" stroke="none" fill="#fbfbfb" fill-rule="evenodd" transform="translate(490,0)" class="fibueCkJ_1"></path><path id="path2" d="M235.692 54.884 C 229.782 62.535,222.909 71.437,218.160 77.594 C 217.344 78.652,214.374 82.495,211.560 86.134 C 208.745 89.774,205.825 93.556,205.069 94.538 C 204.313 95.520,203.336 96.781,202.898 97.340 C 201.791 98.752,201.772 98.739,204.914 98.739 L 207.728 98.739 209.372 96.586 C 210.276 95.402,213.053 91.786,215.543 88.550 C 218.032 85.315,220.257 82.420,220.486 82.116 C 220.716 81.812,221.991 80.163,223.319 78.450 C 224.648 76.737,225.924 75.084,226.155 74.778 C 226.387 74.471,227.114 73.521,227.773 72.667 C 232.105 67.046,234.764 63.591,237.718 59.744 C 239.571 57.331,242.053 54.108,243.233 52.581 C 245.900 49.131,245.942 49.370,242.665 49.370 L 239.953 49.370 235.692 54.884  M -25 0 L -5 0 L -5 20 L -25 20 Z M 405 0 L 425 0 L 425 20 L 405 20 Z" stroke="none" fill="#f51727" fill-rule="evenodd" transform="translate(950,0)" class="fibueCkJ_2"></path><path id="path3" d="M245.640 99.317 L 245.588 149.369 195.641 149.422 L 145.693 149.476 195.647 149.528 C 235.456 149.569,245.622 149.526,245.701 149.317 C 245.756 149.173,245.777 126.602,245.747 99.160 L 245.692 49.265 245.640 99.317 M170.895 102.325 C 170.819 102.448,170.813 102.606,170.882 102.675 C 170.952 102.744,171.008 102.691,171.008 102.556 C 171.008 102.378,172.043 102.311,174.767 102.311 C 178.928 102.311,178.755 102.249,178.810 103.746 C 178.830 104.287,178.867 104.367,178.933 104.017 C 178.985 103.741,178.968 103.198,178.895 102.809 L 178.762 102.101 174.898 102.101 C 172.387 102.101,170.985 102.179,170.895 102.325 M181.092 102.404 C 181.092 102.570,181.186 102.764,181.300 102.835 C 181.419 102.908,181.455 102.825,181.384 102.641 C 181.276 102.360,181.810 102.312,185.641 102.258 L 190.021 102.197 185.557 102.149 C 181.788 102.108,181.092 102.148,181.092 102.404 M203.241 102.258 L 206.798 102.321 205.972 103.199 L 205.147 104.077 206.019 103.352 C 207.529 102.095,207.532 102.096,203.407 102.148 L 199.685 102.195 203.241 102.258 M209.804 102.254 C 209.749 102.343,211.342 102.388,213.344 102.354 C 216.874 102.294,216.988 102.306,217.081 102.725 C 217.165 103.101,217.174 103.096,217.150 102.682 C 217.121 102.195,210.095 101.785,209.804 102.254 M208.929 103.782 C 208.749 104.128,208.650 104.412,208.708 104.412 C 208.765 104.412,208.959 104.128,209.139 103.782 C 209.318 103.435,209.417 103.151,209.360 103.151 C 209.302 103.151,209.108 103.435,208.929 103.782 M189.952 103.676 C 189.948 103.908,190.027 104.286,190.126 104.517 C 190.356 105.052,190.356 104.500,190.126 103.782 C 189.991 103.359,189.957 103.339,189.952 103.676 M198.458 105.095 C 197.795 106.018,197.773 106.078,198.322 105.462 C 198.941 104.770,199.467 103.992,199.317 103.992 C 199.280 103.992,198.893 104.488,198.458 105.095 M217.263 104.307 C 217.259 104.538,217.338 104.916,217.437 105.147 C 217.667 105.682,217.667 105.130,217.437 104.412 C 217.302 103.990,217.268 103.969,217.263 104.307 M182.263 105.042 C 182.341 105.331,182.491 105.709,182.598 105.882 C 182.734 106.101,182.750 106.037,182.653 105.672 C 182.575 105.383,182.425 105.005,182.317 104.832 C 182.182 104.613,182.166 104.677,182.263 105.042 M196.090 108.131 C 195.644 108.674,195.390 109.051,195.524 108.968 C 195.810 108.792,197.140 107.143,196.997 107.143 C 196.943 107.143,196.535 107.588,196.090 108.131 M166.282 109.874 C 165.748 110.567,165.359 111.134,165.417 111.134 C 165.474 111.134,165.958 110.567,166.492 109.874 C 167.025 109.181,167.414 108.613,167.356 108.613 C 167.299 108.613,166.815 109.181,166.282 109.874 M172.426 109.593 C 172.581 109.655,172.695 110.104,172.704 110.679 C 172.712 111.218,172.798 111.849,172.894 112.080 C 173.002 112.338,173.030 112.014,172.967 111.239 C 172.840 109.676,172.771 109.450,172.433 109.470 C 172.222 109.483,172.221 109.510,172.426 109.593 M191.626 109.664 C 191.626 109.837,191.707 110.168,191.807 110.399 C 191.921 110.664,191.987 110.703,191.987 110.504 C 191.987 110.331,191.906 110.000,191.807 109.769 C 191.693 109.504,191.626 109.465,191.626 109.664 M210.500 109.926 C 210.294 110.351,210.301 110.362,210.566 110.035 C 210.728 109.834,210.922 109.732,210.998 109.807 C 211.073 109.882,211.134 109.834,211.134 109.699 C 211.134 109.286,210.742 109.427,210.500 109.926 M202.311 113.025 C 201.607 113.950,201.079 114.706,201.137 114.706 C 201.194 114.706,201.817 113.950,202.521 113.025 C 203.225 112.101,203.753 111.345,203.695 111.345 C 203.638 111.345,203.015 112.101,202.311 113.025 M170.588 112.185 C 170.341 112.532,170.187 112.815,170.244 112.815 C 170.302 112.815,170.551 112.532,170.798 112.185 C 171.045 111.838,171.200 111.555,171.142 111.555 C 171.084 111.555,170.835 111.838,170.588 112.185 M192.251 112.015 C 192.219 112.481,192.486 112.631,192.867 112.361 C 193.119 112.183,193.111 112.165,192.818 112.258 C 192.596 112.329,192.428 112.238,192.369 112.016 C 192.282 111.682,192.274 111.682,192.251 112.015 M208.613 112.658 C 208.303 113.080,208.253 113.227,208.480 113.042 C 208.824 112.763,209.345 111.975,209.186 111.975 C 209.145 111.975,208.888 112.282,208.613 112.658 M173.141 112.815 C 173.141 112.988,173.269 113.461,173.424 113.866 C 173.580 114.270,173.708 114.459,173.708 114.286 C 173.708 114.112,173.580 113.640,173.424 113.235 C 173.269 112.831,173.141 112.642,173.141 112.815 M169.327 113.918 C 169.018 114.341,168.967 114.487,169.194 114.303 C 169.538 114.023,170.059 113.235,169.900 113.235 C 169.860 113.235,169.602 113.543,169.327 113.918 M161.966 115.599 C 161.576 116.090,161.422 116.358,161.625 116.195 C 162.008 115.888,162.908 114.706,162.760 114.706 C 162.713 114.706,162.356 115.108,161.966 115.599 M195.284 116.459 C 194.989 116.845,194.748 117.294,194.749 117.457 C 194.750 117.619,194.898 117.469,195.079 117.122 C 195.259 116.776,195.557 116.327,195.740 116.124 C 195.924 115.922,196.016 115.756,195.947 115.756 C 195.877 115.756,195.579 116.072,195.284 116.459 M198.634 117.857 C 198.101 118.550,197.712 119.118,197.770 119.118 C 197.827 119.118,198.311 118.550,198.845 117.857 C 199.378 117.164,199.767 116.597,199.709 116.597 C 199.652 116.597,199.168 117.164,198.634 117.857 M194.988 118.277 C 194.988 118.451,195.069 118.782,195.168 119.013 C 195.282 119.277,195.349 119.316,195.349 119.118 C 195.349 118.944,195.267 118.613,195.168 118.382 C 195.054 118.118,194.988 118.079,194.988 118.277 M204.129 118.451 C 203.367 119.294,203.563 119.330,208.666 119.279 L 213.550 119.231 208.771 119.170 C 206.142 119.137,203.992 119.048,203.992 118.973 C 203.992 118.897,204.148 118.663,204.339 118.451 C 204.531 118.240,204.640 118.067,204.582 118.067 C 204.524 118.067,204.320 118.240,204.129 118.451 M175.000 118.915 C 175.000 119.061,173.399 119.113,170.168 119.073 C 167.510 119.040,165.336 119.084,165.336 119.170 C 165.336 119.257,167.558 119.328,170.273 119.328 C 174.521 119.328,175.210 119.284,175.210 119.013 C 175.210 118.839,175.163 118.697,175.105 118.697 C 175.047 118.697,175.000 118.795,175.000 118.915 M183.630 120.522 C 183.558 121.602,184.367 122.167,184.853 121.376 C 185.143 120.905,185.142 120.904,184.692 121.305 C 184.179 121.762,184.170 121.757,183.869 120.903 C 183.747 120.557,183.639 120.385,183.630 120.522 M195.591 120.536 C 195.598 120.841,195.962 121.269,196.150 121.192 C 196.255 121.149,196.172 120.948,195.965 120.746 C 195.758 120.544,195.590 120.449,195.591 120.536 M157.235 121.780 C 156.911 122.204,156.754 122.485,156.885 122.404 C 157.154 122.237,158.063 121.008,157.917 121.008 C 157.865 121.008,157.558 121.355,157.235 121.780 M156.273 123.057 C 155.669 123.786,155.413 124.160,155.517 124.160 C 155.575 124.160,155.875 123.829,156.183 123.424 C 156.756 122.674,156.825 122.391,156.273 123.057 M165.507 123.687 C 167.624 123.721,171.027 123.721,173.070 123.687 C 175.114 123.652,173.382 123.624,169.223 123.624 C 165.063 123.624,163.391 123.652,165.507 123.687 M207.447 123.686 C 213.152 123.730,215.045 123.808,215.184 124.005 C 215.319 124.195,215.345 124.180,215.282 123.950 C 215.208 123.677,214.166 123.634,207.546 123.630 L 199.895 123.626 207.447 123.686 M215.789 125.945 C 215.789 126.061,215.916 126.486,216.071 126.891 C 216.227 127.295,216.358 127.484,216.361 127.311 C 216.365 127.138,216.238 126.712,216.079 126.366 C 215.920 126.019,215.790 125.830,215.789 125.945 M177.340 126.261 C 177.340 126.434,177.422 126.765,177.521 126.996 C 177.635 127.261,177.702 127.299,177.702 127.101 C 177.702 126.928,177.620 126.597,177.521 126.366 C 177.407 126.101,177.340 126.062,177.340 126.261 M158.824 127.311 C 158.457 127.773,158.205 128.151,158.263 128.151 C 158.321 128.151,158.668 127.773,159.034 127.311 C 159.400 126.849,159.652 126.471,159.594 126.471 C 159.536 126.471,159.190 126.849,158.824 127.311 M151.681 128.992 C 151.315 129.454,151.062 129.832,151.120 129.832 C 151.178 129.832,151.525 129.454,151.891 128.992 C 152.257 128.529,152.509 128.151,152.451 128.151 C 152.393 128.151,152.047 128.529,151.681 128.992 M217.046 129.832 C 217.046 130.005,217.128 130.336,217.227 130.567 C 217.341 130.832,217.407 130.871,217.407 130.672 C 217.407 130.499,217.326 130.168,217.227 129.937 C 217.113 129.672,217.046 129.633,217.046 129.832 M150.601 130.410 C 149.997 131.139,149.740 131.513,149.844 131.513 C 149.903 131.513,150.203 131.182,150.511 130.777 C 151.083 130.027,151.153 129.744,150.601 130.410 M155.298 131.836 C 154.406 133.048,154.560 133.043,155.556 131.828 C 155.982 131.308,156.253 130.886,156.159 130.891 C 156.065 130.895,155.677 131.320,155.298 131.836 M217.677 131.933 C 217.677 132.106,217.758 132.437,217.857 132.668 C 217.971 132.933,218.038 132.972,218.038 132.773 C 218.038 132.600,217.956 132.269,217.857 132.038 C 217.743 131.773,217.677 131.734,217.677 131.933 M175.595 133.141 C 174.641 134.269,173.664 135.568,173.856 135.453 C 174.108 135.302,176.124 132.773,175.992 132.773 C 175.944 132.773,175.766 132.939,175.595 133.141 M151.891 136.345 C 151.644 136.691,151.489 136.975,151.547 136.975 C 151.605 136.975,151.854 136.691,152.101 136.345 C 152.348 135.998,152.502 135.714,152.445 135.714 C 152.387 135.714,152.138 135.998,151.891 136.345 M200.645 136.029 C 200.645 136.145,200.780 136.476,200.945 136.765 C 201.111 137.054,201.246 137.195,201.246 137.080 C 201.246 136.964,201.111 136.633,200.945 136.345 C 200.780 136.056,200.645 135.914,200.645 136.029 M178.531 136.712 C 178.161 137.143,177.883 137.605,177.994 137.605 C 178.037 137.605,178.282 137.321,178.538 136.975 C 179.045 136.290,179.040 136.120,178.531 136.712 M181.221 136.870 C 181.393 137.642,181.514 137.810,181.509 137.272 C 181.508 137.051,181.410 136.728,181.293 136.555 C 181.137 136.324,181.118 136.409,181.221 136.870 M171.436 138.122 C 170.042 139.534,170.029 139.527,173.959 139.443 L 176.996 139.378 173.747 139.332 L 170.498 139.286 171.639 138.130 C 172.266 137.495,172.732 136.975,172.675 136.975 C 172.617 136.975,172.060 137.491,171.436 138.122 M146.586 139.441 C 147.193 139.483,148.185 139.483,148.792 139.441 C 149.399 139.398,148.902 139.363,147.689 139.363 C 146.476 139.363,145.980 139.398,146.586 139.441 M183.781 139.442 C 184.740 139.481,186.252 139.481,187.142 139.442 C 188.032 139.402,187.248 139.370,185.399 139.371 C 183.550 139.371,182.822 139.403,183.781 139.442 M195.862 139.443 C 197.111 139.480,199.096 139.480,200.274 139.442 C 201.452 139.405,200.431 139.374,198.004 139.375 C 195.578 139.375,194.614 139.405,195.862 139.443 M221.901 139.442 C 223.143 139.480,225.176 139.480,226.418 139.442 C 227.660 139.405,226.644 139.375,224.160 139.375 C 221.675 139.375,220.659 139.405,221.901 139.442  M -25 0 L -5 0 L -5 20 L -25 20 Z M 405 0 L 425 0 L 425 20 L 405 20 Z" stroke="none" fill="#a1a2c4" fill-rule="evenodd" transform="translate(30,270)" class="fibueCkJ_3"></path><path id="path4" d="M145.639 92.792 C 145.611 116.617,145.659 136.153,145.746 136.207 C 145.888 136.295,145.888 106.822,145.744 65.126 C 145.715 56.518,145.668 68.968,145.639 92.792 M173.162 102.047 C 174.173 102.086,175.827 102.086,176.838 102.047 C 177.849 102.009,177.022 101.977,175.000 101.977 C 172.978 101.977,172.151 102.009,173.162 102.047 M184.401 102.047 C 185.355 102.086,186.914 102.086,187.868 102.047 C 188.821 102.008,188.041 101.976,186.134 101.976 C 184.228 101.976,183.448 102.008,184.401 102.047 M201.418 102.047 C 202.256 102.087,203.627 102.087,204.464 102.047 C 205.302 102.007,204.617 101.974,202.941 101.974 C 201.266 101.974,200.580 102.007,201.418 102.047 M211.712 102.047 C 212.665 102.086,214.225 102.086,215.179 102.047 C 216.132 102.008,215.352 101.976,213.445 101.976 C 211.539 101.976,210.759 102.008,211.712 102.047 M189.965 102.731 C 189.965 103.136,190.008 103.301,190.061 103.099 C 190.114 102.897,190.114 102.566,190.061 102.363 C 190.008 102.161,189.965 102.327,189.965 102.731 M209.349 102.731 C 209.169 103.078,209.070 103.361,209.128 103.361 C 209.186 103.361,209.380 103.078,209.559 102.731 C 209.738 102.384,209.837 102.101,209.780 102.101 C 209.722 102.101,209.528 102.384,209.349 102.731 M217.222 103.109 L 217.323 104.097 217.394 103.281 C 217.434 102.833,217.388 102.388,217.293 102.293 C 217.198 102.198,217.166 102.565,217.222 103.109 M205.767 103.624 L 204.937 104.517 205.830 103.686 C 206.660 102.914,206.819 102.731,206.660 102.731 C 206.626 102.731,206.224 103.133,205.767 103.624 M181.837 104.464 C 181.916 104.724,182.066 105.029,182.172 105.142 C 182.278 105.255,182.258 105.042,182.128 104.670 C 181.862 103.906,181.616 103.733,181.837 104.464 M179.037 104.517 C 179.040 104.748,179.113 105.221,179.202 105.567 C 179.346 106.133,179.362 106.144,179.366 105.672 C 179.368 105.383,179.294 104.911,179.202 104.622 C 179.070 104.210,179.034 104.188,179.037 104.517 M208.062 104.989 C 207.441 105.843,207.249 106.277,207.761 105.672 C 208.234 105.113,208.676 104.412,208.555 104.412 C 208.515 104.412,208.293 104.672,208.062 104.989 M190.464 105.147 C 190.637 105.920,190.757 106.087,190.753 105.550 C 190.751 105.328,190.654 105.005,190.537 104.832 C 190.381 104.602,190.361 104.687,190.464 105.147 M197.859 105.620 C 197.488 106.051,197.211 106.513,197.322 106.513 C 197.365 106.513,197.610 106.229,197.866 105.882 C 198.372 105.197,198.368 105.027,197.859 105.620 M217.775 105.777 C 217.948 106.550,218.068 106.717,218.064 106.180 C 218.062 105.959,217.965 105.636,217.848 105.462 C 217.692 105.232,217.672 105.317,217.775 105.777 M168.519 106.527 C 167.785 107.707,167.616 108.237,168.289 107.248 C 168.818 106.470,169.366 105.462,169.259 105.462 C 169.216 105.462,168.883 105.941,168.519 106.527 M182.483 106.197 C 182.558 106.544,182.703 106.970,182.804 107.143 C 182.922 107.345,182.940 107.231,182.853 106.828 C 182.778 106.481,182.633 106.056,182.532 105.882 C 182.414 105.681,182.396 105.794,182.483 106.197 M203.445 106.355 C 202.525 107.416,202.251 107.773,202.358 107.773 C 202.420 107.773,202.819 107.348,203.245 106.828 C 204.034 105.865,204.190 105.495,203.445 106.355 M179.542 106.828 C 179.617 107.174,179.762 107.600,179.863 107.773 C 179.981 107.975,179.999 107.861,179.912 107.458 C 179.837 107.111,179.692 106.686,179.591 106.513 C 179.472 106.311,179.455 106.424,179.542 106.828 M190.996 106.933 C 190.996 107.106,191.077 107.437,191.176 107.668 C 191.290 107.933,191.357 107.972,191.357 107.773 C 191.357 107.600,191.276 107.269,191.176 107.038 C 191.063 106.773,190.996 106.734,190.996 106.933 M183.009 107.773 C 183.005 107.946,183.132 108.372,183.291 108.718 C 183.662 109.530,183.668 109.152,183.298 108.193 C 183.143 107.789,183.012 107.600,183.009 107.773 M180.173 108.929 C 180.247 109.275,180.392 109.701,180.493 109.874 C 180.612 110.076,180.629 109.962,180.542 109.559 C 180.467 109.212,180.322 108.787,180.221 108.613 C 180.103 108.412,180.085 108.525,180.173 108.929 M205.212 108.981 C 204.841 109.412,204.564 109.874,204.675 109.874 C 204.718 109.874,204.963 109.590,205.219 109.244 C 205.725 108.559,205.721 108.388,205.212 108.981 M210.924 110.917 C 210.989 111.602,211.095 112.215,211.158 112.279 C 211.326 112.446,211.114 110.009,210.946 109.824 C 210.868 109.740,210.858 110.231,210.924 110.917 M171.630 110.936 C 171.378 111.290,171.208 111.614,171.251 111.657 C 171.293 111.700,171.541 111.411,171.801 111.014 C 172.386 110.121,172.254 110.061,171.630 110.936 M203.571 111.134 C 203.205 111.597,202.953 111.975,203.011 111.975 C 203.069 111.975,203.415 111.597,203.782 111.134 C 204.148 110.672,204.400 110.294,204.342 110.294 C 204.284 110.294,203.937 110.672,203.571 111.134 M209.742 111.292 C 209.121 112.145,208.930 112.580,209.442 111.975 C 209.915 111.415,210.357 110.714,210.236 110.714 C 210.196 110.714,209.974 110.974,209.742 111.292 M184.154 111.345 C 184.231 111.633,184.382 112.012,184.489 112.185 C 184.625 112.404,184.641 112.340,184.543 111.975 C 184.466 111.686,184.315 111.308,184.208 111.134 C 184.073 110.915,184.056 110.980,184.154 111.345 M199.066 111.870 C 198.640 112.390,198.368 112.811,198.463 112.807 C 198.634 112.799,200.091 110.924,199.927 110.924 C 199.879 110.924,199.492 111.350,199.066 111.870 M170.483 112.547 C 169.751 113.521,169.673 113.788,170.344 113.025 C 170.700 112.621,170.995 112.219,171.000 112.132 C 171.013 111.884,170.933 111.949,170.483 112.547 M207.563 114.286 C 206.859 115.210,206.331 115.966,206.389 115.966 C 206.446 115.966,207.069 115.210,207.773 114.286 C 208.477 113.361,209.005 112.605,208.947 112.605 C 208.890 112.605,208.267 113.361,207.563 114.286 M163.615 113.183 C 163.245 113.614,162.967 114.076,163.078 114.076 C 163.121 114.076,163.366 113.792,163.622 113.445 C 164.129 112.760,164.124 112.590,163.615 113.183 M211.475 113.340 C 211.550 113.687,211.694 114.112,211.796 114.286 C 211.914 114.487,211.931 114.374,211.844 113.971 C 211.769 113.624,211.625 113.199,211.523 113.025 C 211.405 112.824,211.388 112.937,211.475 113.340 M219.988 113.445 C 219.988 113.619,220.069 113.950,220.168 114.181 C 220.282 114.446,220.349 114.484,220.349 114.286 C 220.349 114.112,220.267 113.782,220.168 113.550 C 220.054 113.286,219.988 113.247,219.988 113.445 M168.779 114.854 C 168.333 115.397,168.079 115.774,168.213 115.691 C 168.499 115.514,169.829 113.866,169.686 113.866 C 169.632 113.866,169.224 114.310,168.779 114.854 M181.853 114.391 C 181.928 114.737,182.073 115.163,182.174 115.336 C 182.292 115.538,182.310 115.424,182.222 115.021 C 182.147 114.674,182.003 114.249,181.902 114.076 C 181.783 113.874,181.766 113.987,181.853 114.391 M162.479 114.758 C 161.558 115.820,161.285 116.176,161.392 116.176 C 161.453 116.176,161.853 115.751,162.279 115.231 C 163.068 114.268,163.224 113.898,162.479 114.758 M220.509 115.231 C 220.584 115.578,220.728 116.003,220.830 116.176 C 220.948 116.378,220.965 116.265,220.878 115.861 C 220.803 115.515,220.659 115.089,220.557 114.916 C 220.439 114.714,220.421 114.828,220.509 115.231 M199.959 115.914 C 199.589 116.345,199.312 116.807,199.423 116.807 C 199.466 116.807,199.711 116.523,199.967 116.176 C 200.473 115.492,200.468 115.321,199.959 115.914 M205.673 116.701 C 205.402 116.989,205.220 117.260,205.269 117.303 C 205.317 117.346,205.577 117.110,205.846 116.779 C 206.447 116.037,206.341 115.989,205.673 116.701 M174.485 117.753 C 174.567 118.099,174.715 118.471,174.813 118.578 C 174.912 118.686,174.903 118.460,174.793 118.077 C 174.537 117.184,174.288 116.922,174.485 117.753 M204.449 118.271 C 203.812 119.134,203.876 119.287,204.543 118.495 C 204.846 118.134,205.052 117.797,205.001 117.746 C 204.949 117.694,204.701 117.931,204.449 118.271 M165.967 118.382 C 165.696 118.670,165.514 118.941,165.563 118.984 C 165.611 119.027,165.871 118.791,166.140 118.460 C 166.741 117.718,166.635 117.670,165.967 118.382 M197.859 118.645 C 197.488 119.076,197.211 119.538,197.322 119.538 C 197.365 119.538,197.610 119.254,197.866 118.908 C 198.372 118.223,198.368 118.052,197.859 118.645 M158.659 119.666 C 158.280 120.173,158.012 120.588,158.064 120.588 C 158.213 120.588,159.513 118.896,159.427 118.816 C 159.384 118.776,159.038 119.159,158.659 119.666 M195.509 119.643 C 195.584 119.989,195.728 120.415,195.830 120.588 C 195.948 120.790,195.965 120.676,195.878 120.273 C 195.803 119.926,195.659 119.501,195.557 119.328 C 195.439 119.126,195.421 119.240,195.509 119.643 M222.809 122.899 C 222.887 123.188,223.038 123.566,223.145 123.739 C 223.280 123.959,223.297 123.894,223.199 123.529 C 223.122 123.241,222.971 122.862,222.864 122.689 C 222.728 122.470,222.712 122.534,222.809 122.899 M155.134 124.301 C 154.810 124.725,154.653 125.006,154.784 124.925 C 155.053 124.758,155.962 123.529,155.817 123.529 C 155.765 123.529,155.457 123.876,155.134 124.301 M187.907 124.721 C 187.583 125.145,187.426 125.426,187.557 125.345 C 187.826 125.179,188.736 123.950,188.590 123.950 C 188.538 123.950,188.231 124.297,187.907 124.721 M160.714 125.053 C 160.404 125.475,160.354 125.622,160.581 125.437 C 160.925 125.158,161.446 124.370,161.286 124.370 C 161.246 124.370,160.989 124.677,160.714 125.053 M176.811 125.105 C 176.886 125.452,177.031 125.877,177.132 126.050 C 177.250 126.252,177.268 126.139,177.180 125.735 C 177.105 125.389,176.961 124.963,176.860 124.790 C 176.741 124.588,176.724 124.702,176.811 125.105 M198.565 125.927 C 197.856 126.914,197.779 127.228,198.119 127.731 C 198.277 127.965,198.297 127.896,198.197 127.466 C 198.097 127.036,198.194 126.711,198.574 126.206 C 199.182 125.395,199.424 125.000,199.313 125.000 C 199.268 125.000,198.931 125.417,198.565 125.927 M186.253 126.876 C 185.959 127.200,185.935 127.357,186.131 127.663 C 186.364 128.028,186.370 128.027,186.250 127.648 C 186.177 127.416,186.271 127.088,186.477 126.860 C 186.671 126.646,186.783 126.471,186.725 126.471 C 186.667 126.471,186.455 126.653,186.253 126.876 M177.340 126.891 C 177.340 127.064,177.422 127.395,177.521 127.626 C 177.635 127.891,177.702 127.930,177.702 127.731 C 177.702 127.558,177.620 127.227,177.521 126.996 C 177.407 126.731,177.340 126.692,177.340 126.891 M152.810 127.363 C 152.190 128.071,151.828 128.571,151.935 128.571 C 151.987 128.571,152.334 128.193,152.706 127.731 C 153.427 126.834,153.500 126.576,152.810 127.363 M158.186 128.371 C 157.815 128.839,157.547 129.254,157.590 129.293 C 157.633 129.333,157.978 128.951,158.357 128.443 C 159.224 127.285,159.090 127.229,158.186 128.371 M224.577 128.352 C 224.687 128.735,224.835 129.107,224.906 129.177 C 225.103 129.375,224.760 128.073,224.556 127.850 C 224.458 127.743,224.467 127.968,224.577 128.352 M178.021 129.146 C 178.079 129.450,177.853 129.968,177.381 130.616 C 176.685 131.572,176.682 131.584,177.311 130.882 C 178.206 129.884,178.340 129.588,178.121 129.097 C 177.947 128.708,177.939 128.712,178.021 129.146 M156.722 130.305 C 156.413 130.727,156.362 130.874,156.589 130.690 C 156.933 130.410,157.454 129.622,157.295 129.622 C 157.255 129.622,156.997 129.929,156.722 130.305 M150.225 130.615 C 149.870 131.046,149.580 131.492,149.580 131.607 C 149.580 131.722,149.736 131.582,149.928 131.297 C 150.119 131.011,150.466 130.565,150.700 130.305 C 150.933 130.045,151.067 129.832,150.997 129.832 C 150.928 129.832,150.580 130.184,150.225 130.615 M154.954 132.563 C 154.409 133.256,154.041 133.822,154.135 133.821 C 154.230 133.819,154.516 133.512,154.771 133.138 C 155.026 132.764,155.436 132.198,155.681 131.880 C 155.927 131.563,156.086 131.303,156.036 131.303 C 155.986 131.303,155.499 131.870,154.954 132.563 M199.577 132.343 C 199.687 132.727,199.835 133.098,199.906 133.169 C 200.103 133.366,199.760 132.065,199.556 131.842 C 199.458 131.734,199.467 131.960,199.577 132.343 M148.909 132.300 C 148.539 132.731,148.261 133.193,148.372 133.193 C 148.415 133.193,148.660 132.910,148.916 132.563 C 149.423 131.878,149.418 131.708,148.909 132.300 M217.673 132.563 C 217.669 132.736,217.796 133.162,217.955 133.508 C 218.326 134.320,218.332 133.942,217.962 132.983 C 217.806 132.579,217.676 132.390,217.673 132.563 M175.499 133.036 C 174.879 133.744,174.517 134.244,174.624 134.244 C 174.677 134.244,175.023 133.866,175.395 133.403 C 176.116 132.506,176.189 132.249,175.499 133.036 M226.171 133.193 C 226.248 133.482,226.399 133.860,226.506 134.034 C 226.641 134.253,226.658 134.189,226.560 133.824 C 226.483 133.535,226.332 133.157,226.225 132.983 C 226.090 132.764,226.073 132.828,226.171 133.193 M218.307 134.454 C 218.307 134.627,218.388 134.958,218.487 135.189 C 218.601 135.454,218.668 135.493,218.668 135.294 C 218.668 135.121,218.587 134.790,218.487 134.559 C 218.374 134.294,218.307 134.255,218.307 134.454 M191.402 135.563 L 190.726 136.450 191.458 135.648 C 192.077 134.970,192.206 134.905,192.289 135.228 C 192.375 135.556,192.392 135.560,192.413 135.254 C 192.460 134.566,192.070 134.686,191.402 135.563 M152.912 135.242 C 152.307 135.971,152.051 136.345,152.155 136.345 C 152.213 136.345,152.513 136.014,152.822 135.609 C 153.394 134.859,153.464 134.575,152.912 135.242 M180.702 135.504 C 180.702 135.678,180.783 136.008,180.882 136.239 C 180.996 136.504,181.063 136.543,181.063 136.345 C 181.063 136.171,180.982 135.840,180.882 135.609 C 180.769 135.344,180.702 135.306,180.702 135.504 M171.898 137.380 C 170.146 139.279,169.991 139.496,170.391 139.496 C 170.513 139.496,170.564 139.416,170.503 139.318 C 170.443 139.220,170.682 138.865,171.036 138.530 C 171.761 137.842,173.822 135.504,173.704 135.504 C 173.662 135.504,172.849 136.348,171.898 137.380 M218.835 136.555 C 219.050 138.222,219.322 139.122,219.184 137.710 C 219.116 137.017,218.982 136.261,218.887 136.029 C 218.779 135.770,218.760 135.971,218.835 136.555 M178.781 136.607 C 178.472 137.030,178.421 137.176,178.648 136.992 C 178.992 136.712,179.513 135.924,179.354 135.924 C 179.314 135.924,179.056 136.232,178.781 136.607 M192.785 137.080 C 192.855 137.542,192.948 137.960,192.990 138.008 C 193.149 138.188,193.030 137.063,192.847 136.660 C 192.715 136.367,192.696 136.494,192.785 137.080 M177.707 138.288 C 177.458 138.779,177.149 139.250,177.020 139.335 C 176.854 139.444,176.862 139.490,177.045 139.493 C 177.187 139.494,177.543 139.023,177.836 138.445 C 178.129 137.868,178.321 137.395,178.264 137.395 C 178.207 137.395,177.956 137.797,177.707 138.288 M181.324 137.959 C 181.293 138.621,181.668 139.496,181.980 139.493 C 182.188 139.490,182.190 139.453,181.991 139.326 C 181.850 139.236,181.647 138.789,181.540 138.332 C 181.430 137.864,181.336 137.701,181.324 137.959 M202.064 138.646 C 202.258 139.103,202.445 139.393,202.481 139.290 C 202.548 139.101,201.950 137.815,201.796 137.815 C 201.750 137.815,201.870 138.189,202.064 138.646 M145.679 144.433 C 145.679 147.206,145.709 148.311,145.745 146.889 C 145.782 145.467,145.782 143.198,145.745 141.847 C 145.708 140.496,145.679 141.660,145.679 144.433  M -25 0 L -5 0 L -5 20 L -25 20 Z M 405 0 L 425 0 L 425 20 L 405 20 Z" stroke="none" fill="#7c7cac" fill-rule="evenodd" transform="translate(490,270)" class="fibueCkJ_4"></path></g><style data-made-with="vivus-instant">.fibueCkJ_0{stroke-dasharray:1139 1141;stroke-dashoffset:1140;animation:fibueCkJ_draw 2000ms linear 0ms forwards;}.fibueCkJ_1{stroke-dasharray:2242 2244;stroke-dashoffset:2243;animation:fibueCkJ_draw 2000ms linear 250ms forwards;}.fibueCkJ_2{stroke-dasharray:295 297;stroke-dashoffset:296;animation:fibueCkJ_draw 2000ms linear 500ms forwards;}.fibueCkJ_3{stroke-dasharray:920 922;stroke-dashoffset:921;animation:fibueCkJ_draw 2000ms linear 750ms forwards;}.fibueCkJ_4{stroke-dasharray:627 629;stroke-dashoffset:628;animation:fibueCkJ_draw 2000ms linear 1000ms forwards;}@keyframes fibueCkJ_draw{100%{stroke-dashoffset:0;}}@keyframes fibueCkJ_fade{0%{stroke-opacity:1;}94.44444444444444%{stroke-opacity:1;}100%{stroke-opacity:0;}}</style></svg>