<svg id="eOY1kV2qt8v1" xmlns="http://www.w3.org/2000/svg" xmlns:xlink="http://www.w3.org/1999/xlink" viewBox="0 0 294 232" shape-rendering="geometricPrecision" text-rendering="geometricPrecision"><g id="eOY1kV2qt8v2" transform="matrix(0.06923317143745 0 0 -0.06923317143745 48.16726345000008 216.68553416000006)"><path id="eOY1kV2qt8v3" d="M1162,1758C1153,1749,1150,1690,1150,1533L1150,1320L1105,1320L1060,1320L1060,1419C1060,1474,1057,1525,1054,1534C1044,1559,840,1556,784,1531C741,1511,697,1462,687,1421C676,1376,699,1305,735,1270C765,1241,778,1236,837,1231C908,1225,909,1221,848,1201C778,1178,806,1140,892,1140C962,1140,1012,1159,1035,1194L1052,1220L1649,1220C2127,1221,2253,1224,2283,1235C2316,1246,2327,1246,2356,1234C2400,1216,2579,1215,2604,1233C2620,1245,2622,1260,2618,1354L2615,1462L2572,1501C2521,1545,2488,1553,2355,1548L2265,1545L2260,1435L2255,1325L2173,1322L2090,1319L2090,1423C2090,1501,2086,1531,2076,1539C2065,1548,1982,1550,1766,1548L1471,1545L1468,1655L1465,1765L1421,1768C1393,1770,1374,1767,1369,1758C1364,1751,1360,1649,1360,1532L1360,1319L1313,1322L1265,1325L1260,1545L1255,1765L1215,1768C1192,1770,1169,1765,1162,1758ZM938,1370C941,1297,939,1288,925,1294C916,1297,895,1300,879,1300C818,1300,785,1384,830,1425C849,1442,905,1460,925,1456C931,1454,936,1416,938,1370ZM2483,1432C2495,1421,2500,1402,2500,1362L2500,1308L2463,1315C2391,1328,2375,1341,2372,1389C2367,1455,2372,1461,2422,1454C2446,1450,2473,1440,2483,1432ZM1978,1388L1975,1325L1723,1322L1470,1320L1470,1367C1470,1451,1468,1450,1742,1450L1981,1450L1978,1388Z" fill="rgb(225,19,27)" stroke="none" stroke-width="1"/><path id="eOY1kV2qt8v4" d="M1520,1741C1509,1719,1507,1661,1516,1636C1520,1624,1536,1620,1570,1620C1624,1620,1630,1628,1630,1690C1630,1751,1623,1760,1574,1760C1541,1760,1528,1755,1520,1741Z" fill="rgb(225,19,27)" stroke="none" stroke-width="1"/><path id="eOY1kV2qt8v5" d="M350,1540L295,1535L290,1393C285,1254,285,1251,257,1226C234,1205,231,1197,240,1180C246,1169,255,1160,261,1160C283,1160,344,1192,358,1211C371,1229,379,1230,483,1224C555,1220,605,1222,623,1229C650,1239,650,1240,650,1340C650,1452,639,1485,593,1516C562,1536,441,1548,350,1540ZM501,1444C523,1438,540,1397,540,1350C540,1319,536,1310,523,1310C491,1310,431,1330,415,1346C400,1362,394,1440,407,1453C413,1460,461,1455,501,1444Z" fill="rgb(225,19,27)" stroke="none" stroke-width="1"/></g></svg>