<?xml version="1.0" standalone="no"?>
<!DOCTYPE svg PUBLIC "-//W3C//DTD SVG 20010904//EN"
 "http://www.w3.org/TR/2001/REC-SVG-20010904/DTD/svg10.dtd">
<svg version="1.0" xmlns="http://www.w3.org/2000/svg"
 width="317.000000pt" height="159.000000pt" viewBox="0 0 317.000000 159.000000"
 preserveAspectRatio="xMidYMid meet">

<g transform="translate(0.000000,159.000000) scale(0.100000,-0.100000)"
fill="#000000" stroke="none">
<path d="M3026 1567 c3 -10 9 -15 12 -12 3 3 0 11 -7 18 -10 9 -11 8 -5 -6z"/>
<path d="M2939 1533 c-13 -17 -13 -17 6 -3 11 8 22 16 24 17 2 2 0 3 -6 3 -6
0 -17 -8 -24 -17z"/>
<path d="M3083 1527 c12 -13 24 -22 26 -20 6 4 -30 43 -40 43 -5 0 2 -10 14
-23z"/>
<path d="M2673 1524 c15 -19 17 -52 17 -357 0 -212 4 -337 10 -337 6 0 9 124
10 333 l0 334 -28 24 c-20 18 -22 19 -9 3z"/>
<path d="M3011 1506 c-1 -29 -1 -29 -22 -10 -22 19 -22 19 -10 -3 10 -21 9
-23 -11 -24 -22 -1 -22 -1 2 -8 24 -7 24 -7 5 -19 -25 -14 -11 -16 16 -2 18
10 19 7 19 -70 0 -69 -2 -80 -17 -80 -10 0 -25 -5 -33 -10 -10 -7 8 -10 60
-10 52 0 70 3 60 10 -8 5 -25 10 -37 10 -22 0 -23 4 -23 80 0 77 1 80 19 70
27 -14 41 -12 16 2 -19 12 -19 12 5 19 24 7 24 7 2 8 -20 1 -21 3 -11 24 12
22 12 22 -9 4 -20 -18 -21 -18 -25 10 l-4 28 -2 -29z"/>
<path d="M3112 1470 c0 -14 2 -19 5 -12 2 6 2 18 0 25 -3 6 -5 1 -5 -13z"/>
<path d="M2911 1444 c0 -11 3 -14 6 -6 3 7 2 16 -1 19 -3 4 -6 -2 -5 -13z"/>
<path d="M3095 1270 c-3 -5 -40 -10 -81 -10 -58 0 -74 -3 -74 -15 0 -8 10 -19
21 -26 15 -8 19 -8 15 0 -4 6 -3 11 3 11 5 0 13 -5 16 -11 4 -6 13 -8 21 -5
15 6 20 -19 5 -28 -4 -3 -11 -37 -15 -76 -6 -56 -11 -70 -24 -71 -14 0 -13 -2
3 -10 l20 -9 -20 3 c-12 2 -19 10 -19 20 2 13 -1 15 -10 7 -16 -12 -27 -3 -19
16 3 8 -1 14 -11 14 -9 0 -16 -5 -16 -10 0 -19 48 -60 70 -60 15 0 20 -6 20
-27 0 -25 1 -25 19 -9 11 10 24 15 30 11 6 -3 9 0 6 7 -2 7 9 28 25 47 24 28
32 32 44 22 8 -7 17 -22 20 -34 3 -12 3 11 0 51 -3 48 -1 71 6 67 15 -9 12 1
-16 56 -14 28 -23 57 -20 65 6 16 -10 19 -19 4z m-26 -204 c8 -10 8 -16 -2
-24 -10 -8 -13 -5 -15 14 -2 28 1 30 17 10z"/>
<path d="M2938 1203 c7 -3 16 -2 19 1 4 3 -2 6 -13 5 -11 0 -14 -3 -6 -6z"/>
<path d="M250 1060 c0 -91 3 -110 15 -110 12 0 15 19 15 110 0 91 -3 110 -15
110 -12 0 -15 -19 -15 -110z"/>
<path d="M310 1056 l0 -116 -40 0 c-29 0 -40 -4 -40 -15 0 -12 13 -15 60 -15
l61 0 -3 127 c-3 112 -5 128 -20 131 -16 3 -18 -7 -18 -112z"/>
<path d="M390 1040 l0 -130 675 0 675 0 0 85 c0 69 -3 85 -15 85 -12 0 -15
-14 -15 -70 l0 -70 -90 0 -90 0 0 70 0 70 -96 0 c-52 0 -105 -5 -117 -11 -16
-9 -22 -9 -25 0 -2 6 -12 11 -23 11 -17 0 -19 -8 -19 -70 l0 -70 -415 0 -415
0 0 115 c0 96 -3 115 -15 115 -13 0 -15 -21 -15 -130z m1110 -50 l0 -50 -105
0 -105 0 0 44 c0 26 5 46 13 49 6 3 54 6 105 6 l92 1 0 -50z"/>
<path d="M1780 1059 c0 -100 2 -110 18 -107 15 3 17 18 20 111 3 102 2 107
-18 107 -19 0 -20 -6 -20 -111z"/>
<path d="M1850 1055 l0 -115 -40 0 c-29 0 -40 -4 -40 -15 0 -12 13 -15 55 -15
l55 0 0 130 c0 109 -2 130 -15 130 -12 0 -15 -19 -15 -115z"/>
<path d="M1920 1040 c0 -123 1 -130 20 -130 19 0 20 7 20 130 0 123 -1 130
-20 130 -19 0 -20 -7 -20 -130z"/>
<path d="M2290 1040 c0 -109 2 -130 15 -130 13 0 15 21 15 130 0 109 -2 130
-15 130 -13 0 -15 -21 -15 -130z"/>
<path d="M67 1134 c-14 -15 -6 -34 14 -34 14 0 19 5 17 17 -3 18 -20 27 -31
17z"/>
<path d="M117 1134 c-14 -15 -6 -34 14 -34 14 0 19 5 17 17 -3 18 -20 27 -31
17z"/>
<path d="M1650 1120 c0 -15 5 -20 18 -18 9 2 17 10 17 18 0 8 -8 16 -17 18
-13 2 -18 -3 -18 -18z"/>
<path d="M1700 1120 c0 -15 5 -20 18 -18 9 2 17 10 17 18 0 8 -8 16 -17 18
-13 2 -18 -3 -18 -18z"/>
<path d="M2097 1134 c-14 -15 -6 -34 14 -34 14 0 19 5 17 17 -3 18 -20 27 -31
17z"/>
<path d="M2147 1134 c-14 -14 -7 -35 11 -32 9 2 17 10 17 17 0 16 -18 25 -28
15z"/>
<path d="M2357 1134 c-14 -15 -6 -34 14 -34 14 0 19 5 17 17 -3 18 -20 27 -31
17z"/>
<path d="M2960 1081 c0 -5 7 -12 16 -15 14 -5 15 -4 4 9 -14 17 -20 19 -20 6z"/>
<path d="M170 1010 l0 -70 -64 0 -65 0 -3 47 c-2 36 -7 49 -20 51 -16 3 -18
-5 -18 -62 l0 -66 100 0 100 0 0 85 c0 69 -3 85 -15 85 -12 0 -15 -14 -15 -70z"/>
<path d="M2103 1074 c-9 -4 -13 -31 -13 -85 l0 -79 45 0 46 0 -3 83 -3 82 -30
2 c-16 1 -36 0 -42 -3z m47 -85 c0 -37 -4 -49 -15 -49 -11 0 -15 12 -15 48 0
27 3 52 6 55 15 14 24 -7 24 -54z"/>
<path d="M2210 960 c0 -113 1 -120 20 -120 19 0 20 7 20 120 0 113 -1 120 -20
120 -19 0 -20 -7 -20 -120z"/>
<path d="M2350 960 c0 -113 1 -120 20 -120 19 0 20 7 20 120 0 113 -1 120 -20
120 -19 0 -20 -7 -20 -120z"/>
<path d="M2443 1073 c-9 -3 -13 -30 -13 -84 l0 -79 30 0 c28 0 30 -3 30 -35 0
-27 4 -35 18 -35 15 0 17 11 14 120 l-3 120 -32 -1 c-18 0 -38 -3 -44 -6z m47
-78 c0 -42 -3 -55 -15 -55 -11 0 -15 12 -15 48 0 27 3 52 7 55 16 17 23 3 23
-48z"/>
<path d="M2748 1063 c-24 -6 -23 -23 2 -23 11 0 20 7 20 15 0 8 -1 14 -2 14
-2 -1 -11 -3 -20 -6z"/>
<path d="M3000 860 c-1 -14 -2 -28 -1 -32 1 -11 -66 -21 -80 -12 -9 5 -10 2
-6 -9 3 -9 -2 -41 -13 -71 -12 -36 -15 -58 -9 -62 15 -9 19 -1 25 52 7 58 11
63 52 69 l32 4 -2 -334 c-2 -183 0 -328 4 -322 4 7 8 157 8 335 l0 322 26 0
c31 0 28 23 -4 28 -14 2 -22 12 -25 30 l-4 27 -3 -25z"/>
<path d="M2740 810 c0 -11 5 -20 10 -20 6 0 10 9 10 20 0 11 -4 20 -10 20 -5
0 -10 -9 -10 -20z"/>
<path d="M2690 468 c0 -257 -3 -325 -14 -337 -7 -9 -16 -32 -19 -51 -6 -34 -6
-35 10 -13 8 13 21 23 28 23 7 0 15 11 17 25 3 14 2 25 -1 25 -3 0 -5 146 -3
325 2 217 -1 325 -8 325 -7 0 -10 -108 -10 -322z"/>
<path d="M250 620 l0 -130 90 0 90 0 0 73 c0 84 -8 97 -62 97 l-38 0 0 -70 c0
-68 -1 -70 -25 -70 l-25 0 0 115 c0 96 -3 115 -15 115 -13 0 -15 -21 -15 -130z
m140 -46 c0 -40 -4 -55 -12 -52 -14 5 -23 70 -14 94 12 32 26 11 26 -42z"/>
<path d="M610 635 c0 -108 -1 -115 -20 -115 -18 0 -20 7 -20 70 l0 70 -34 0
c-63 0 -66 -4 -66 -91 l0 -79 30 0 c28 0 30 -3 30 -35 0 -28 4 -35 20 -35 16
0 20 7 20 35 l0 35 235 0 235 0 0 130 c0 123 -1 130 -20 130 -19 0 -20 -7 -20
-115 l0 -115 -25 0 c-24 0 -25 3 -25 58 0 68 -11 82 -62 82 l-38 0 0 -70 0
-70 -60 0 -60 0 0 56 c0 40 4 55 13 52 6 -3 13 -14 15 -26 5 -33 32 -28 32 6
0 35 -16 52 -50 52 -39 0 -50 -18 -50 -82 0 -51 -2 -58 -20 -58 -19 0 -20 7
-20 115 0 108 -1 115 -20 115 -19 0 -20 -7 -20 -115z m-80 -60 c0 -42 -3 -55
-15 -55 -11 0 -15 12 -15 48 0 27 3 52 7 55 16 17 23 3 23 -48z m380 -1 c0
-37 -4 -54 -11 -52 -7 2 -12 24 -11 51 1 60 0 57 12 57 6 0 10 -25 10 -56z"/>
<path d="M1080 620 c0 -109 2 -130 15 -130 13 0 15 21 15 130 0 109 -2 130
-15 130 -13 0 -15 -21 -15 -130z"/>
<path d="M1250 620 l0 -130 175 0 c143 0 175 3 175 14 0 8 -7 16 -15 20 -11 4
-15 21 -15 59 0 29 -5 58 -12 65 -18 18 -98 16 -98 -2 0 -10 13 -16 38 -18
l37 -3 3 -52 3 -53 -65 0 -66 0 0 70 c0 63 -2 70 -20 70 -18 0 -20 -7 -20 -70
l0 -70 -40 0 -40 0 0 115 c0 108 -1 115 -20 115 -19 0 -20 -7 -20 -130z"/>
<path d="M1790 635 l0 -115 -30 0 -30 0 0 70 0 70 -29 0 c-57 0 -61 -5 -61
-91 l0 -79 30 0 c28 0 30 -3 30 -35 0 -24 5 -35 15 -35 10 0 15 11 15 35 0 35
0 35 45 35 l45 0 0 130 c0 109 -2 130 -15 130 -12 0 -15 -19 -15 -115z m-90
-60 c0 -42 -3 -55 -15 -55 -11 0 -15 12 -15 48 0 27 3 52 7 55 16 17 23 3 23
-48z"/>
<path d="M2156 710 c-14 -22 -26 -49 -26 -60 0 -18 6 -20 53 -20 29 0 58 -5
65 -12 7 -7 12 -31 12 -55 l0 -43 -100 0 -100 0 0 70 c0 56 -3 70 -15 70 -12
0 -15 -14 -15 -70 l0 -70 -35 0 -35 0 0 70 0 70 -38 0 c-54 0 -62 -13 -62 -97
l0 -73 30 0 c28 0 30 -3 30 -35 0 -28 4 -35 20 -35 16 0 20 7 20 35 l0 35 215
0 215 0 0 85 c0 78 -2 85 -20 85 -18 0 -20 -7 -20 -70 l0 -70 -30 0 c-30 0
-30 0 -30 58 0 32 -5 63 -12 70 -7 7 -34 12 -60 12 -26 0 -48 3 -48 6 0 3 11
20 25 38 30 39 31 46 6 46 -10 0 -30 -17 -45 -40z m-236 -135 c0 -66 -16 -74
-22 -10 -4 50 -1 65 13 65 5 0 9 -25 9 -55z"/>
<path d="M60 700 c0 -15 5 -20 18 -18 9 2 17 10 17 18 0 8 -8 16 -17 18 -13 2
-18 -3 -18 -18z"/>
<path d="M110 700 c0 -15 5 -20 18 -18 9 2 17 10 17 18 0 8 -8 16 -17 18 -13
2 -18 -3 -18 -18z"/>
<path d="M1993 704 c-8 -20 8 -36 26 -25 15 10 8 41 -9 41 -6 0 -13 -7 -17
-16z"/>
<path d="M2295 710 c-8 -14 3 -30 21 -30 8 0 14 9 14 20 0 21 -24 28 -35 10z"/>
<path d="M2345 710 c-8 -14 3 -30 21 -30 8 0 14 9 14 20 0 21 -24 28 -35 10z"/>
<path d="M170 590 l0 -70 -64 0 -65 0 -3 47 c-2 36 -7 49 -20 51 -16 3 -18 -5
-18 -62 l0 -66 103 0 102 0 0 85 c0 74 -2 85 -17 85 -15 0 -18 -10 -18 -70z"/>
<path d="M2443 653 c-9 -3 -13 -30 -13 -84 l0 -79 30 0 c28 0 30 -3 30 -35 0
-27 4 -35 18 -35 15 0 17 12 17 120 l0 120 -35 -1 c-19 0 -41 -3 -47 -6z m47
-78 c0 -42 -3 -55 -15 -55 -11 0 -15 12 -15 48 0 27 3 52 7 55 16 17 23 3 23
-48z"/>
<path d="M1501 467 c-9 -11 -8 -17 4 -27 12 -10 16 -9 21 5 9 23 -10 40 -25
22z"/>
<path d="M1316 462 c-8 -13 11 -35 23 -28 16 10 14 36 -3 36 -8 0 -17 -4 -20
-8z"/>
<path d="M1366 462 c-2 -4 -1 -14 4 -22 7 -11 11 -11 24 -1 9 7 13 17 10 22
-7 11 -31 12 -38 1z"/>
<path d="M2932 98 c3 -7 12 -14 22 -14 14 -2 14 -1 -1 3 -16 5 -16 6 2 14 19
7 18 8 -3 8 -15 1 -22 -4 -20 -11z"/>
<path d="M2980 95 c0 -10 9 -15 28 -14 27 2 27 2 2 7 l-25 5 25 8 25 7 -27 1
c-19 1 -28 -4 -28 -14z"/>
<path d="M2690 30 c0 -5 5 -10 11 -10 5 0 7 5 4 10 -3 6 -8 10 -11 10 -2 0 -4
-4 -4 -10z"/>
</g>
</svg>
