<?xml version="1.0" standalone="no"?>
<!DOCTYPE svg PUBLIC "-//W3C//DTD SVG 20010904//EN"
 "http://www.w3.org/TR/2001/REC-SVG-20010904/DTD/svg10.dtd">
<svg version="1.0" xmlns="http://www.w3.org/2000/svg"
 width="900.000000pt" height="301.000000pt" viewBox="0 0 900.000000 301.000000"
 preserveAspectRatio="xMidYMid meet">

<g transform="translate(0.000000,301.000000) scale(0.100000,-0.100000)"
fill="#000000" stroke="none">
<path d="M7799 1930 c-129 -100 -235 -186 -237 -190 -2 -5 31 -54 74 -109 l78
-100 103 80 c56 43 106 79 111 79 5 0 37 -36 71 -81 46 -59 60 -84 52 -92 -17
-17 -13 -27 13 -27 13 0 29 -7 36 -15 11 -13 6 -15 -33 -15 -45 0 -45 -1 -60
-45 l-16 -44 101 -3 c69 -2 103 -7 105 -15 3 -9 -25 -13 -108 -15 -79 -2 -114
-7 -117 -15 -3 -10 27 -13 126 -13 103 0 132 -3 142 -15 11 -13 -5 -15 -137
-15 l-149 0 -16 -45 -17 -45 198 0 c163 0 201 -3 211 -15 11 -13 -15 -15 -206
-17 -161 -2 -218 -6 -221 -15 -4 -10 50 -13 233 -15 177 -2 238 -6 241 -15 4
-10 -52 -13 -243 -15 l-248 -3 -57 -150 -56 -150 309 -3 c170 -1 446 -1 613 0
l303 3 -79 225 c-44 124 -81 230 -84 237 -3 9 -24 5 -76 -12 -39 -14 -75 -22
-80 -19 -5 3 -9 19 -9 36 l0 31 50 -6 c28 -3 50 -3 50 0 0 3 -9 46 -21 95 -19
81 -20 92 -6 106 14 14 12 22 -18 82 -19 37 -32 70 -29 73 3 3 -1 20 -9 38 -7
19 -12 50 -9 70 3 28 -2 42 -23 65 -27 29 -27 29 -21 4 16 -65 14 -80 -3 -30
-18 50 -42 80 -63 80 -5 0 -2 -12 6 -27 19 -37 36 -103 27 -103 -4 0 -13 22
-19 48 -15 58 -47 98 -85 106 l-29 7 31 -38 c30 -38 66 -111 58 -119 -2 -3
-16 19 -30 48 -33 67 -73 106 -117 114 l-35 7 46 -49 c47 -49 79 -101 79 -126
-1 -7 -7 1 -14 17 -19 43 -67 89 -120 114 -57 26 -83 27 -91 1 -5 -15 -15 -20
-39 -20 -21 0 -39 -8 -52 -22 -22 -25 -54 -74 -54 -83 0 -3 59 -5 130 -5 108
0 130 -3 130 -15 0 -12 -24 -15 -137 -17 -98 -2 -138 -6 -141 -15 -3 -10 29
-13 137 -13 119 0 141 -2 141 -15 0 -13 -23 -15 -149 -15 -144 0 -149 -1 -154
-21 -6 -21 -7 -21 -30 7 -13 16 -35 45 -50 65 l-27 36 105 82 c58 45 105 84
105 87 0 5 -125 169 -150 197 -4 4 -112 -74 -241 -173z m-5 -180 c61 -79 64
-86 49 -102 -9 -10 -19 -18 -23 -18 -6 0 -116 137 -135 169 -8 14 21 44 37 39
4 -2 37 -41 72 -88z m514 83 c-15 -2 -42 -2 -60 0 -18 2 -6 4 27 4 33 0 48 -2
33 -4z m152 -117 c0 -5 -9 -1 -20 9 -11 10 -20 25 -20 34 0 12 6 9 20 -9 11
-14 20 -29 20 -34z m-274 -266 l209 -269 6 226 5 226 35 29 c39 33 114 58 175
58 38 0 43 -3 53 -31 6 -18 11 -40 11 -49 0 -10 9 -38 20 -63 12 -28 18 -56
15 -70 -4 -13 1 -61 9 -107 9 -46 14 -85 12 -87 -2 -3 -62 4 -133 15 -70 11
-130 18 -132 16 -11 -10 16 -19 92 -28 l82 -11 3 -63 3 -63 -91 -41 c-49 -23
-90 -44 -90 -48 0 -4 14 -24 30 -45 24 -30 28 -41 18 -52 -9 -11 -13 -12 -23
-1 -16 17 -528 679 -538 696 -9 13 -1 32 12 32 4 0 102 -121 217 -270z m204
85 c0 -13 -20 -15 -124 -15 -101 0 -125 3 -130 15 -5 13 13 15 124 15 109 0
130 -2 130 -15z m0 -60 c0 -13 -16 -15 -102 -13 -70 2 -103 7 -106 16 -3 9 22
12 102 12 89 0 106 -3 106 -15z m0 -120 c0 -11 -13 -15 -54 -15 -39 0 -55 4
-60 15 -4 12 5 15 54 15 47 0 60 -3 60 -15z m0 -61 c0 -11 -8 -14 -32 -12 -46
4 -49 28 -4 28 26 0 36 -4 36 -16z m199 -286 c0 -19 -107 -100 -114 -88 -4 6
6 21 21 33 16 12 40 32 54 44 29 25 40 29 39 11z m45 -57 c6 -9 -89 -91 -105
-91 -21 0 -6 21 42 59 57 45 56 45 63 32z m-74 -16 c-7 -8 -18 -15 -24 -15 -6
0 -2 7 8 15 25 19 32 19 16 0z m60 -43 c0 -4 -10 -13 -22 -21 -23 -14 -23 -14
-4 8 20 22 26 25 26 13z m60 -1 c0 -12 -95 -91 -110 -91 -20 0 -7 16 45 59 51
41 65 48 65 32z"/>
<path d="M8615 1635 c-5 -2 -36 -9 -67 -15 -38 -8 -58 -16 -58 -26 0 -18 4
-18 42 2 25 13 36 14 51 5 23 -15 48 -7 65 19 10 17 10 20 -5 19 -10 0 -22 -2
-28 -4z m2 -21 c-3 -3 -12 -4 -19 -1 -8 3 -5 6 6 6 11 1 17 -2 13 -5z"/>
<path d="M453 1885 c-167 -36 -278 -127 -333 -273 -11 -29 -41 -147 -65 -263
-66 -306 -61 -387 25 -471 57 -55 108 -73 250 -89 171 -19 385 7 490 61 56 28
126 94 156 146 38 64 58 131 105 344 53 242 58 339 19 414 -33 65 -98 109
-189 130 -88 20 -367 21 -458 1z m314 -271 c39 -25 39 -58 0 -247 -42 -203
-62 -258 -108 -286 -40 -24 -131 -35 -216 -26 -84 9 -103 27 -103 98 0 64 62
345 87 394 36 73 101 96 243 86 41 -2 85 -11 97 -19z"/>
<path d="M2574 1888 c-4 -6 -134 -258 -289 -560 l-282 -548 333 0 334 0 0 115
0 115 -105 0 c-64 0 -105 4 -105 10 0 20 279 565 285 558 1 -2 17 -182 36
-400 l33 -398 163 0 c90 0 163 3 163 8 0 21 -91 1052 -96 1080 l-5 32 -229 0
c-162 0 -231 -3 -236 -12z"/>
<path d="M3655 1893 c-185 -22 -270 -70 -329 -189 -60 -121 -81 -306 -41 -373
43 -73 107 -94 350 -111 88 -7 168 -16 177 -21 36 -19 12 -126 -34 -150 -34
-19 -205 -24 -253 -7 -39 13 -40 14 -43 66 l-3 52 -144 0 -144 0 -8 -37 c-4
-21 -8 -74 -8 -118 0 -107 25 -154 104 -193 54 -26 63 -27 246 -31 293 -5 429
29 520 132 66 73 111 232 103 366 -7 132 -62 159 -375 185 -101 9 -170 19
-179 27 -24 19 -12 86 20 118 25 24 34 26 135 29 138 5 154 -3 149 -64 l-3
-44 147 0 147 0 12 42 c6 23 9 78 7 123 -2 63 -8 87 -26 112 -47 67 -157 94
-372 91 -69 0 -138 -3 -155 -5z"/>
<path d="M4690 1889 c-228 -27 -357 -134 -414 -344 -31 -114 -86 -390 -93
-461 -14 -170 53 -264 212 -293 32 -6 138 -11 235 -11 192 0 262 12 338 56
117 69 159 140 206 347 l6 27 -159 0 -159 0 -11 -45 c-6 -25 -24 -60 -40 -78
-29 -32 -30 -32 -133 -35 -179 -5 -187 9 -139 246 51 254 72 298 156 321 56
15 149 14 190 -3 39 -17 51 -46 41 -101 l-7 -35 160 0 159 0 11 63 c40 233
-13 322 -210 347 -96 12 -241 11 -349 -1z"/>
<path d="M5763 1890 c-236 -20 -371 -109 -443 -289 -29 -75 -110 -473 -110
-542 0 -115 41 -189 129 -233 75 -38 152 -50 326 -49 240 2 363 40 461 145 69
74 99 150 151 384 75 337 64 444 -50 521 -81 54 -265 79 -464 63z m207 -289
c37 -27 36 -69 -5 -264 -57 -268 -78 -292 -257 -292 -182 0 -192 23 -134 294
19 90 43 179 53 199 36 72 98 94 238 86 56 -3 88 -10 105 -23z"/>
<path d="M1245 1858 c-16 -68 -225 -1061 -225 -1068 0 -6 63 -10 153 -10 l153
0 30 143 30 142 125 3 c115 2 128 1 152 -18 20 -16 27 -31 27 -55 0 -31 -22
-154 -36 -197 -5 -17 7 -18 150 -18 153 0 156 0 161 22 51 224 57 297 28 338
-23 33 -43 48 -75 55 -38 9 -35 20 10 33 98 30 154 105 191 257 59 236 27 338
-116 378 -50 14 -113 17 -406 17 l-347 0 -5 -22z m549 -257 c18 -15 20 -64 6
-131 -27 -121 -42 -130 -220 -130 -106 0 -130 3 -130 14 0 21 50 247 57 259 9
15 267 4 287 -12z"/>
<path d="M6341 1348 c-62 -293 -115 -541 -117 -550 -5 -17 7 -18 150 -18 l154
0 6 28 c3 15 33 182 66 372 34 190 64 356 68 369 5 16 21 -83 45 -285 21 -170
43 -348 49 -396 l11 -88 132 0 133 0 212 390 c117 215 214 389 216 388 1 -2
-40 -176 -92 -387 -52 -211 -94 -386 -94 -387 0 -2 70 -4 155 -4 85 0 155 3
155 7 0 4 34 165 75 358 41 194 75 358 75 365 0 10 -3 10 -16 -1 -14 -11 -18
-11 -28 2 -125 163 -166 219 -166 223 0 3 41 37 91 76 l91 70 -191 0 -191 0
-166 -332 c-92 -183 -168 -328 -170 -323 -2 6 -15 136 -29 290 -14 154 -27
299 -31 323 l-5 42 -238 0 -237 0 -113 -532z"/>
<path d="M4119 545 c-27 -14 -40 -39 -58 -110 -28 -105 -6 -135 96 -135 72 0
107 22 122 78 l10 32 -45 0 c-31 0 -44 -4 -44 -14 0 -15 -21 -26 -47 -26 -13
0 -15 8 -9 46 3 26 11 53 18 61 13 17 54 13 51 -5 -2 -8 12 -12 42 -12 l45 0
0 40 c0 29 -5 42 -19 50 -28 15 -132 12 -162 -5z"/>
<path d="M4540 547 c-35 -17 -62 -77 -68 -152 -4 -59 -3 -64 22 -80 41 -27
148 -17 182 17 25 24 53 113 54 166 0 42 -33 62 -102 62 -35 0 -74 -6 -88 -13z
m95 -104 c-9 -59 -21 -75 -54 -71 -23 3 -26 7 -23 37 6 63 18 81 53 81 l31 0
-7 -47z"/>
<path d="M4931 453 c-13 -60 -25 -118 -28 -130 -5 -21 -2 -23 35 -23 44 0 47
4 57 74 4 25 11 46 15 46 4 0 11 -27 15 -60 l7 -60 63 0 c59 0 63 1 69 26 11
41 46 215 46 225 0 5 -18 9 -39 9 -39 0 -39 0 -50 -50 -6 -28 -11 -59 -12 -68
-1 -28 -15 15 -23 71 l-7 47 -63 0 -63 0 -22 -107z"/>
<path d="M5449 547 c-40 -31 -54 -117 -21 -136 14 -9 13 -10 -10 -11 -26 0
-28 -3 -28 -40 0 -49 18 -60 95 -60 75 0 111 20 124 68 16 54 14 68 -11 85
l-23 16 28 0 c24 1 27 5 27 36 0 24 -6 37 -19 45 -27 14 -142 12 -162 -3z
m101 -67 c0 -5 -14 -10 -31 -10 -17 0 -28 4 -24 10 3 6 17 10 31 10 13 0 24
-4 24 -10z m-22 -97 c2 -9 -7 -13 -27 -13 -21 0 -31 5 -31 16 0 19 51 16 58
-3z"/>
<path d="M5846 544 c-13 -35 -7 -54 19 -54 30 0 31 -16 10 -105 -21 -85 -20
-85 24 -85 44 0 40 -7 66 113 l16 77 35 0 c20 0 34 5 34 13 0 6 3 22 6 35 6
22 5 22 -99 22 -86 0 -106 -3 -111 -16z"/>
<path d="M6241 453 c-13 -60 -25 -118 -28 -130 -5 -21 -2 -23 36 -23 37 0 41
3 49 33 6 25 14 32 33 32 21 0 24 -4 21 -33 -2 -33 -2 -33 40 -30 39 3 43 5
49 38 4 19 3 42 -2 52 -6 11 -6 18 -1 18 10 0 27 38 38 82 4 19 0 32 -15 47
-18 18 -33 21 -109 21 l-89 0 -22 -107z m143 28 c12 -20 -7 -41 -36 -41 -23 0
-29 4 -24 16 3 9 6 20 6 25 0 12 47 12 54 0z"/>
<path d="M6696 473 c-10 -49 -20 -98 -23 -110 -9 -40 28 -63 101 -63 93 0 117
23 140 132 10 46 20 93 23 106 5 20 2 22 -36 22 -38 0 -41 -2 -50 -37 -5 -21
-13 -56 -17 -78 -4 -22 -11 -48 -16 -57 -9 -19 -43 -24 -52 -9 -3 5 3 47 13
95 l19 86 -43 0 -42 0 -17 -87z"/>
<path d="M7162 535 c-24 -20 -34 -41 -46 -95 -20 -88 -20 -96 4 -120 16 -16
33 -20 80 -20 74 0 105 14 125 55 23 49 20 55 -29 55 -35 0 -45 -4 -49 -20 -6
-24 -45 -27 -53 -5 -3 8 0 34 7 57 10 32 20 44 37 46 13 2 25 -3 28 -12 4 -11
19 -16 45 -16 33 0 40 4 45 25 4 16 0 34 -10 50 -15 23 -23 25 -85 25 -60 0
-74 -4 -99 -25z"/>
<path d="M7556 538 c-10 -39 -7 -48 19 -48 30 0 31 -14 10 -110 -8 -36 -14
-68 -15 -72 0 -5 18 -8 39 -8 44 0 41 -6 66 113 l17 77 34 0 c20 0 34 5 34 13
0 6 3 22 6 35 6 22 5 22 -99 22 -100 0 -105 -1 -111 -22z"/>
<path d="M7971 453 c-13 -60 -25 -118 -28 -130 -5 -21 -2 -23 35 -23 47 0 42
-10 75 148 l24 112 -42 0 -42 0 -22 -107z"/>
<path d="M8320 547 c-35 -17 -59 -73 -67 -150 -5 -62 -5 -66 21 -82 41 -27
148 -17 182 17 25 24 53 113 54 166 0 42 -33 62 -102 62 -35 0 -74 -6 -88 -13z
m96 -103 c-7 -58 -22 -76 -55 -72 -23 3 -26 7 -23 37 7 63 18 81 53 81 l32 0
-7 -46z"/>
<path d="M8701 453 c-13 -60 -25 -118 -28 -130 -5 -21 -2 -23 35 -23 44 0 47
4 57 74 4 25 11 46 15 46 4 0 10 -27 14 -60 l7 -60 64 0 c36 0 65 2 65 4 0 3
11 56 25 120 14 64 25 120 25 126 0 5 -18 10 -39 10 -39 0 -39 0 -50 -50 -6
-28 -11 -59 -11 -68 -1 -33 -17 11 -25 66 l-7 52 -62 0 -63 0 -22 -107z"/>
</g>
</svg>
