<svg id="e0VIxDQew6u1" xmlns="http://www.w3.org/2000/svg" xmlns:xlink="http://www.w3.org/1999/xlink" viewBox="0 0 312 156" shape-rendering="geometricPrecision" text-rendering="geometricPrecision"><g id="e0VIxDQew6u2" transform="matrix(0.10000000000000 0 0 -0.10000000000000 0 156)"><path id="e0VIxDQew6u3" d="M1192,1398L1195,1235L1353,1232L1510,1229L1510,1395L1510,1560L1350,1560L1190,1560L1192,1398Z" fill="rgb(255,255,255)" stroke="none" stroke-width="1"/><path id="e0VIxDQew6u4" d="M379,1255C199,1219,72,1103,40,947C8,791,79,656,231,581C266,564,366,532,454,510C655,460,689,440,690,369C690,291,610,244,493,252C382,260,299,317,284,395C281,414,275,430,271,430C254,429,8,371,4,367C-5,358,21,276,46,234C60,211,92,172,118,148C222,50,337,9,505,8C736,7,894,89,968,248C990,295,994,320,995,390C995,467,992,482,962,543C901,666,803,724,575,771C397,808,375,816,350,847C309,900,336,977,406,1006C445,1023,540,1024,593,1009C639,997,699,939,707,899C710,883,718,870,724,870C730,870,790,882,858,896C977,922,980,924,980,950C980,1028,877,1151,765,1206C643,1266,515,1282,379,1255Z" fill="rgb(255,255,255)" stroke="none" stroke-width="1"/><path id="e0VIxDQew6u5" d="M2448,1260C2246,1224,2085,1103,2001,927C1948,816,1935,755,1937,625C1938,485,1968,385,2041,276C2123,153,2228,76,2375,30C2474,-1,2646,-1,2745,30C2894,77,3009,171,3074,300C3094,340,3110,381,3110,391C3110,404,3082,418,2983,451C2912,474,2850,495,2845,497C2839,499,2828,484,2821,465C2804,417,2757,365,2702,333C2639,296,2528,290,2450,319C2311,371,2233,528,2261,700C2279,817,2338,902,2429,944C2495,974,2628,974,2686,943C2736,916,2795,850,2811,803C2817,784,2827,771,2834,773C2840,775,2905,797,2977,821C3129,871,3122,858,3064,976C3002,1101,2879,1200,2730,1244C2664,1264,2514,1272,2448,1260Z" fill="rgb(255,254,254)" stroke="none" stroke-width="1"/><path id="e0VIxDQew6u6" d="M1520,1075L1520,920L1675,920L1830,920L1830,1075L1830,1230L1675,1230L1520,1230L1520,1075Z" fill="rgb(255,255,255)" stroke="none" stroke-width="1"/><path id="e0VIxDQew6u7" d="M1192,603C1197,247,1201,224,1269,134C1318,69,1408,22,1508,10C1599,-2,1714,12,1777,42L1825,65L1828,197L1831,328L1780,309C1718,286,1630,284,1584,306C1519,337,1516,354,1512,653L1508,920L1348,920L1188,920L1192,603Z" fill="rgb(255,255,255)" stroke="none" stroke-width="1"/></g></svg>